<svg id="svg" version="1.1" xmlns="http://www.w3.org/2000/svg" xmlns:xlink="http://www.w3.org/1999/xlink" width="400" height="400" viewBox="0, 0, 400,400"><g id="svgg"><path id="path0" d="M80.299 74.145 C 71.012 77.620,71.008 89.700,80.293 94.174 C 83.488 95.714,83.763 95.821,87.600 97.026 C 89.470 97.613,91.360 98.245,91.800 98.429 C 92.240 98.613,93.365 98.980,94.300 99.245 C 96.858 99.970,96.039 100.818,92.200 101.417 C 91.320 101.555,90.045 101.836,89.367 102.043 C 88.688 102.249,86.798 102.679,85.167 102.998 C 80.698 103.872,73.748 105.509,68.000 107.041 C 64.194 108.056,60.400 110.883,60.400 112.704 C 60.400 112.940,60.187 113.204,59.927 113.291 C 58.945 113.618,58.991 120.553,59.989 122.485 C 61.927 126.240,64.740 128.014,69.200 128.294 C 72.243 128.485,73.511 128.301,79.600 126.784 C 83.434 125.829,86.180 125.185,91.400 124.016 C 93.380 123.572,96.620 122.836,98.600 122.380 C 103.749 121.193,106.531 120.559,110.400 119.691 C 112.270 119.271,114.070 118.821,114.400 118.690 C 114.730 118.560,116.530 118.180,118.400 117.845 C 126.109 116.466,139.004 113.440,139.795 112.825 C 140.018 112.652,140.692 112.393,141.293 112.249 C 144.263 111.540,147.219 107.247,147.503 103.229 C 147.933 97.152,144.922 93.231,138.305 91.250 C 137.587 91.035,134.930 90.107,132.400 89.187 C 129.870 88.267,127.080 87.272,126.200 86.976 C 123.244 85.981,121.006 85.181,120.200 84.830 C 119.760 84.639,117.960 83.996,116.200 83.400 C 114.440 82.805,112.460 82.081,111.800 81.792 C 111.140 81.503,109.925 81.141,109.100 80.989 C 108.275 80.836,107.600 80.551,107.600 80.355 C 107.600 80.160,107.332 80.000,107.004 80.000 C 106.413 80.000,100.941 78.262,99.400 77.585 C 98.960 77.392,97.790 77.038,96.800 76.800 C 95.810 76.562,94.640 76.218,94.200 76.036 C 89.694 74.176,82.744 73.230,80.299 74.145 M305.400 79.034 C 303.640 79.598,301.930 80.198,301.600 80.368 C 301.270 80.538,300.054 80.902,298.899 81.178 C 297.743 81.454,296.697 81.842,296.575 82.040 C 296.453 82.238,296.048 82.406,295.676 82.414 C 295.304 82.421,294.280 82.775,293.400 83.200 C 292.520 83.625,291.530 83.980,291.200 83.989 C 290.870 83.998,290.150 84.236,289.600 84.519 C 289.050 84.802,287.070 85.534,285.200 86.145 C 283.330 86.757,281.440 87.404,281.000 87.584 C 280.560 87.764,276.420 89.139,271.800 90.639 C 267.180 92.139,262.950 93.598,262.400 93.881 C 261.850 94.164,261.096 94.396,260.724 94.398 C 260.352 94.399,259.948 94.560,259.827 94.756 C 259.706 94.951,259.117 95.234,258.518 95.385 C 257.918 95.535,256.666 96.005,255.736 96.429 C 254.805 96.853,253.899 97.201,253.722 97.203 C 251.161 97.223,248.222 102.254,248.230 106.600 C 248.243 113.141,251.547 116.536,259.490 118.172 C 262.566 118.805,268.154 120.073,272.000 121.011 C 275.824 121.943,280.916 123.124,285.000 124.027 C 286.980 124.464,289.770 125.096,291.200 125.431 C 292.630 125.765,295.150 126.305,296.800 126.629 C 298.450 126.954,300.077 127.373,300.416 127.560 C 300.755 127.748,302.008 128.036,303.200 128.200 C 304.392 128.364,305.645 128.652,305.984 128.840 C 306.323 129.027,307.950 129.444,309.600 129.765 C 315.394 130.892,318.608 131.646,319.491 132.083 C 321.626 133.143,329.716 132.704,331.428 131.436 C 335.485 128.433,336.554 126.293,336.318 121.642 C 336.008 115.528,333.315 112.428,327.400 111.379 C 326.520 111.223,325.620 110.962,325.400 110.798 C 325.180 110.635,324.100 110.371,323.000 110.213 C 321.900 110.055,320.820 109.786,320.600 109.615 C 320.380 109.445,318.940 109.087,317.400 108.821 C 315.860 108.555,314.330 108.230,314.000 108.099 C 313.256 107.804,307.400 106.512,304.269 105.952 C 302.987 105.723,301.394 105.307,300.729 105.027 L 299.520 104.519 301.168 103.859 C 302.075 103.497,303.083 103.200,303.408 103.200 C 303.734 103.200,304.000 103.043,304.000 102.850 C 304.000 102.658,304.540 102.392,305.200 102.260 C 305.860 102.128,307.200 101.656,308.178 101.210 C 309.156 100.765,310.200 100.400,310.498 100.400 C 310.796 100.400,311.211 100.246,311.420 100.058 C 311.629 99.870,313.060 99.286,314.600 98.760 C 319.610 97.051,323.838 90.858,322.455 87.256 C 322.232 86.675,321.937 85.625,321.798 84.923 C 320.678 79.238,313.173 76.543,305.400 79.034 M175.400 148.435 C 148.652 149.124,114.441 151.412,96.000 153.745 C 87.967 154.762,82.238 155.617,81.000 155.985 C 80.340 156.181,78.090 156.543,76.000 156.790 C 73.910 157.038,71.840 157.398,71.400 157.591 C 70.960 157.784,69.340 158.139,67.800 158.379 C 66.260 158.619,63.200 159.165,61.000 159.591 C 58.800 160.018,55.200 160.710,53.000 161.130 C 50.800 161.549,48.685 162.026,48.300 162.189 C 47.522 162.519,47.291 187.900,48.000 195.200 C 48.544 200.801,49.614 208.958,49.889 209.600 C 50.138 210.181,50.395 211.247,51.816 217.600 C 52.184 219.250,52.626 220.780,52.797 221.000 C 52.968 221.220,53.229 222.030,53.377 222.800 C 53.525 223.570,53.808 224.560,54.005 225.000 C 54.202 225.440,54.936 227.510,55.636 229.600 C 56.337 231.690,57.031 233.580,57.179 233.800 C 57.328 234.020,57.977 235.550,58.622 237.200 C 59.834 240.303,65.469 251.647,65.973 252.000 C 66.130 252.110,66.376 252.470,66.521 252.800 C 66.665 253.130,67.232 254.120,67.781 255.000 C 68.330 255.880,69.077 257.131,69.441 257.780 C 69.806 258.430,70.305 259.182,70.552 259.452 C 70.798 259.723,71.630 260.868,72.400 261.997 C 76.311 267.733,80.566 272.925,85.707 278.236 L 88.453 281.072 94.126 275.417 C 97.247 272.306,100.484 269.230,101.319 268.581 C 102.155 267.931,103.415 266.937,104.119 266.370 C 105.720 265.083,112.351 260.400,112.573 260.400 C 112.663 260.400,114.221 259.479,116.035 258.354 C 118.939 256.553,127.354 252.269,130.634 250.921 C 134.897 249.170,138.829 247.654,140.200 247.234 C 141.080 246.965,142.160 246.594,142.600 246.410 C 143.040 246.226,144.660 245.710,146.200 245.263 C 147.740 244.816,149.990 244.164,151.200 243.814 C 153.290 243.208,155.577 242.704,162.400 241.341 C 164.050 241.012,167.650 240.483,170.400 240.165 C 173.150 239.848,176.390 239.420,177.600 239.215 C 181.149 238.612,195.714 238.334,202.000 238.749 C 208.944 239.207,219.562 240.305,220.400 240.653 C 220.730 240.789,222.350 241.136,224.000 241.424 C 227.935 242.109,232.695 243.124,234.199 243.599 C 234.859 243.808,236.750 244.360,238.400 244.827 C 241.600 245.732,246.879 247.422,248.200 247.964 C 248.640 248.145,250.080 248.704,251.400 249.206 C 255.347 250.707,263.164 254.378,267.000 256.531 C 268.320 257.272,270.120 258.284,271.000 258.779 C 271.880 259.275,273.173 260.112,273.873 260.640 C 274.574 261.168,275.251 261.600,275.379 261.600 C 276.499 261.600,286.992 270.168,292.139 275.284 C 294.305 277.438,296.195 279.187,296.339 279.170 C 296.661 279.134,301.509 273.596,304.140 270.260 C 305.207 268.907,306.202 267.710,306.349 267.600 C 306.497 267.490,306.928 266.950,307.306 266.400 C 307.684 265.850,308.980 264.050,310.187 262.400 C 312.069 259.826,313.078 258.292,315.405 254.466 C 317.610 250.840,319.200 247.989,319.200 247.664 C 319.200 247.445,319.335 247.207,319.500 247.133 C 319.827 246.988,322.129 242.421,323.800 238.600 C 324.378 237.280,325.092 235.660,325.386 235.000 C 327.768 229.668,329.839 223.654,332.410 214.600 C 333.665 210.182,335.357 201.304,335.994 195.800 C 336.223 193.820,336.586 190.760,336.801 189.000 C 337.017 187.240,337.312 181.190,337.459 175.555 L 337.725 165.309 336.562 165.073 C 335.923 164.944,333.330 164.465,330.800 164.009 C 328.270 163.554,324.850 162.918,323.200 162.598 C 321.550 162.277,318.220 161.670,315.800 161.250 C 313.380 160.829,311.400 160.450,311.400 160.406 C 311.400 160.331,305.099 159.263,298.800 158.272 C 297.150 158.012,295.620 157.688,295.400 157.550 C 295.180 157.413,292.877 157.068,290.282 156.783 C 287.688 156.499,285.472 156.116,285.359 155.933 C 285.245 155.750,284.578 155.599,283.876 155.598 C 283.174 155.596,280.800 155.311,278.600 154.965 C 258.013 151.719,229.393 149.116,206.600 148.418 C 193.421 148.014,191.735 148.015,175.400 148.435 " stroke="none" fill="#241c1c" fill-rule="evenodd"></path><path id="path1" d="M183.000 238.817 C 178.189 239.111,171.058 239.847,167.600 240.407 C 162.612 241.214,153.994 243.004,151.200 243.814 C 149.990 244.164,147.740 244.816,146.200 245.263 C 144.660 245.710,143.040 246.226,142.600 246.410 C 142.160 246.594,141.080 246.965,140.200 247.234 C 138.829 247.654,134.897 249.170,130.634 250.921 C 127.354 252.269,118.939 256.553,116.035 258.354 C 114.221 259.479,112.663 260.400,112.573 260.400 C 112.350 260.400,105.708 265.093,104.123 266.370 C 103.420 266.937,102.256 267.850,101.536 268.400 C 99.347 270.073,89.764 279.545,89.206 280.590 C 88.706 281.524,88.828 281.708,91.924 284.684 C 97.167 289.725,107.030 297.924,110.106 299.800 C 110.467 300.020,112.346 301.297,114.281 302.637 C 120.623 307.029,130.209 312.264,136.200 314.608 C 137.740 315.211,139.755 316.040,140.678 316.452 C 141.601 316.863,142.564 317.200,142.818 317.200 C 143.071 317.200,143.846 317.449,144.540 317.753 C 146.139 318.455,150.574 319.848,152.387 320.219 C 153.150 320.374,154.050 320.652,154.387 320.835 C 154.724 321.018,155.900 321.370,157.000 321.617 C 158.100 321.864,160.530 322.426,162.400 322.865 C 167.249 324.003,173.983 325.156,178.400 325.605 C 180.490 325.817,183.649 326.173,185.421 326.396 C 189.537 326.912,195.663 326.912,199.779 326.396 C 201.551 326.173,204.710 325.816,206.800 325.601 C 212.506 325.014,224.477 322.932,227.328 322.029 C 230.869 320.908,234.357 319.953,235.700 319.738 C 236.525 319.606,237.200 319.361,237.200 319.193 C 237.200 319.026,237.875 318.763,238.700 318.609 C 239.525 318.455,240.380 318.189,240.600 318.019 C 240.820 317.849,241.534 317.582,242.186 317.426 C 242.838 317.270,244.134 316.795,245.064 316.371 C 245.995 315.947,246.853 315.600,246.970 315.600 C 247.088 315.600,248.722 314.880,250.600 314.000 C 252.478 313.120,254.092 312.400,254.185 312.400 C 254.701 312.400,265.220 305.952,269.340 303.111 C 271.090 301.903,277.936 296.560,279.422 295.240 C 280.314 294.448,282.114 292.905,283.422 291.812 C 284.730 290.718,288.178 287.494,291.084 284.646 L 296.368 279.470 292.284 275.421 C 286.970 270.154,276.508 261.600,275.379 261.600 C 275.251 261.600,274.574 261.168,273.873 260.640 C 273.173 260.112,271.880 259.275,271.000 258.779 C 270.120 258.284,268.320 257.272,267.000 256.531 C 263.164 254.378,255.347 250.707,251.400 249.206 C 250.080 248.704,248.640 248.145,248.200 247.964 C 246.879 247.422,241.600 245.732,238.400 244.827 C 236.750 244.360,234.859 243.808,234.199 243.599 C 232.695 243.124,227.935 242.109,224.000 241.424 C 222.350 241.136,220.730 240.789,220.400 240.653 C 219.583 240.314,208.933 239.193,202.800 238.800 C 196.994 238.428,189.261 238.435,183.000 238.817 " stroke="none" fill="#f30c53" fill-rule="evenodd"></path><path id="path2" d="M191.400 2.800 C 191.264 3.020,189.588 3.202,187.676 3.203 C 185.764 3.205,182.220 3.379,179.800 3.590 C 177.380 3.801,174.725 4.016,173.900 4.069 C 173.075 4.121,172.400 4.278,172.400 4.417 C 172.400 4.556,170.285 4.902,167.700 5.185 C 165.115 5.468,162.820 5.835,162.600 6.000 C 162.380 6.166,161.120 6.431,159.800 6.589 C 158.480 6.748,157.220 7.021,157.000 7.198 C 156.780 7.374,155.205 7.741,153.500 8.014 C 151.795 8.287,150.400 8.652,150.400 8.826 C 150.400 9.000,149.410 9.266,148.200 9.417 C 146.990 9.568,146.000 9.832,146.000 10.003 C 146.000 10.174,144.900 10.508,143.556 10.745 C 142.211 10.982,140.906 11.343,140.656 11.548 C 140.405 11.752,139.165 12.159,137.900 12.451 C 136.635 12.743,135.600 13.121,135.600 13.291 C 135.600 13.461,135.285 13.606,134.900 13.614 C 134.515 13.621,133.480 13.975,132.600 14.400 C 131.720 14.825,130.640 15.185,130.200 15.199 C 129.760 15.213,128.500 15.668,127.400 16.209 C 126.300 16.750,125.085 17.194,124.700 17.196 C 124.315 17.198,124.000 17.372,124.000 17.582 C 124.000 17.792,123.370 18.082,122.600 18.226 C 121.830 18.371,121.200 18.649,121.200 18.845 C 121.200 19.040,120.957 19.200,120.660 19.200 C 120.362 19.200,119.327 19.620,118.360 20.133 C 117.392 20.647,116.105 21.190,115.500 21.341 C 114.895 21.492,114.400 21.792,114.400 22.008 C 114.400 22.223,114.064 22.400,113.654 22.400 C 113.244 22.400,112.450 22.760,111.891 23.200 C 111.331 23.640,110.600 24.000,110.265 24.000 C 109.931 24.000,109.419 24.235,109.129 24.523 C 108.838 24.810,107.520 25.575,106.200 26.223 C 104.880 26.870,103.710 27.494,103.600 27.608 C 103.490 27.723,102.950 28.046,102.400 28.328 C 99.968 29.572,99.200 30.066,99.200 30.390 C 99.200 30.581,98.661 30.855,98.002 30.999 C 97.344 31.144,96.669 31.484,96.502 31.755 C 96.336 32.025,95.615 32.483,94.900 32.772 C 94.185 33.061,93.600 33.455,93.600 33.649 C 93.600 33.842,93.339 34.000,93.020 34.000 C 92.701 34.000,92.296 34.225,92.120 34.501 C 91.944 34.776,91.260 35.271,90.600 35.600 C 89.940 35.929,89.310 36.290,89.200 36.402 C 88.547 37.064,85.992 38.800,85.669 38.800 C 85.458 38.800,85.182 39.070,85.055 39.400 C 84.929 39.730,84.610 40.000,84.346 40.000 C 84.083 40.000,83.582 40.269,83.234 40.598 C 82.112 41.656,80.092 43.200,79.829 43.200 C 79.688 43.200,79.045 43.740,78.400 44.400 C 77.755 45.060,77.081 45.600,76.902 45.600 C 76.724 45.600,76.302 45.915,75.964 46.300 C 75.626 46.685,74.758 47.446,74.035 47.990 C 71.836 49.647,64.775 56.116,60.444 60.442 C 56.251 64.631,51.600 69.597,51.587 69.899 C 51.580 70.064,50.860 70.915,49.987 71.789 C 49.114 72.663,48.400 73.524,48.400 73.702 C 48.400 73.879,47.770 74.603,47.000 75.310 C 46.230 76.016,45.600 76.731,45.600 76.897 C 45.600 77.064,45.317 77.515,44.971 77.900 C 43.636 79.385,42.401 81.012,42.400 81.286 C 42.400 81.444,41.863 82.164,41.207 82.886 C 39.196 85.101,38.800 85.590,38.800 85.862 C 38.800 86.006,38.350 86.714,37.800 87.436 C 37.250 88.157,36.800 88.856,36.800 88.990 C 36.800 89.219,35.236 91.568,34.796 92.000 C 34.267 92.519,32.400 95.630,32.400 95.991 C 32.400 96.216,32.232 96.400,32.026 96.400 C 31.820 96.400,31.424 97.030,31.146 97.800 C 30.867 98.570,30.534 99.200,30.406 99.200 C 30.277 99.200,29.638 100.235,28.986 101.500 C 28.334 102.765,27.665 103.860,27.500 103.933 C 27.335 104.007,27.200 104.259,27.200 104.493 C 27.200 104.728,26.496 106.141,25.635 107.634 C 24.774 109.127,23.940 110.765,23.781 111.274 C 23.622 111.783,23.369 112.290,23.219 112.400 C 22.780 112.720,19.200 120.571,19.200 121.212 C 19.200 121.425,19.040 121.600,18.845 121.600 C 18.649 121.600,18.371 122.230,18.226 123.000 C 18.082 123.770,17.805 124.400,17.611 124.400 C 17.416 124.400,17.036 125.390,16.765 126.600 C 16.494 127.810,16.134 128.800,15.965 128.800 C 15.796 128.800,15.436 129.790,15.165 131.000 C 14.894 132.210,14.536 133.200,14.368 133.200 C 14.201 133.200,13.942 133.752,13.794 134.427 C 13.646 135.102,13.273 136.137,12.965 136.727 C 12.657 137.317,12.291 138.655,12.151 139.700 C 12.011 140.745,11.756 141.600,11.585 141.600 C 11.413 141.600,11.047 142.860,10.772 144.400 C 10.497 145.940,10.134 147.200,9.965 147.200 C 9.796 147.200,9.534 148.190,9.383 149.400 C 9.232 150.610,8.967 151.600,8.795 151.600 C 8.623 151.600,8.253 153.175,7.971 155.100 C 7.690 157.025,7.343 158.690,7.201 158.800 C 6.757 159.144,4.864 170.642,4.826 173.220 C 4.812 174.221,4.632 175.211,4.428 175.420 C 2.949 176.928,2.973 225.082,4.451 224.169 C 4.643 224.050,4.804 224.818,4.808 225.876 C 4.812 226.934,5.010 229.060,5.248 230.600 C 5.485 232.140,5.686 233.670,5.694 234.000 C 5.702 234.330,5.843 234.780,6.006 235.000 C 6.169 235.220,6.429 236.615,6.583 238.100 C 6.737 239.585,6.994 240.800,7.154 240.800 C 7.314 240.800,7.685 242.420,7.978 244.400 C 8.271 246.380,8.646 248.000,8.810 248.000 C 8.974 248.000,9.232 248.990,9.383 250.200 C 9.534 251.410,9.799 252.400,9.972 252.400 C 10.145 252.400,10.518 253.750,10.800 255.400 C 11.082 257.050,11.439 258.400,11.593 258.400 C 11.747 258.400,12.101 259.435,12.381 260.700 C 12.660 261.965,13.033 263.180,13.209 263.400 C 13.385 263.620,13.655 264.475,13.809 265.300 C 13.963 266.125,14.235 266.800,14.413 266.800 C 14.591 266.800,14.860 267.385,15.010 268.100 C 15.286 269.405,15.446 269.819,17.361 274.148 C 17.933 275.440,18.400 276.745,18.400 277.048 C 18.400 277.352,18.563 277.600,18.763 277.600 C 18.963 277.600,19.357 278.500,19.639 279.600 C 19.921 280.700,20.268 281.600,20.412 281.600 C 20.555 281.600,20.910 282.320,21.200 283.200 C 21.490 284.080,21.865 284.800,22.032 284.800 C 22.200 284.800,22.455 285.340,22.600 286.000 C 22.745 286.660,23.000 287.200,23.168 287.200 C 23.335 287.200,23.710 287.920,24.000 288.800 C 24.290 289.680,24.665 290.400,24.832 290.400 C 25.000 290.400,25.255 290.940,25.400 291.600 C 25.545 292.260,25.818 292.800,26.006 292.800 C 26.194 292.800,26.576 293.430,26.854 294.200 C 27.133 294.970,27.491 295.600,27.649 295.600 C 27.808 295.600,28.146 296.230,28.400 297.000 C 28.654 297.770,29.028 298.400,29.231 298.400 C 29.434 298.400,29.600 298.657,29.600 298.971 C 29.600 299.286,29.833 299.781,30.117 300.071 C 30.401 300.362,30.873 301.185,31.165 301.900 C 31.458 302.615,31.855 303.200,32.049 303.200 C 32.242 303.200,32.400 303.384,32.400 303.609 C 32.400 304.214,34.648 307.629,36.100 309.229 C 36.485 309.653,36.800 310.143,36.800 310.319 C 36.800 310.494,37.071 310.989,37.401 311.419 C 38.889 313.352,40.022 315.056,40.248 315.700 C 40.383 316.085,40.634 316.400,40.805 316.400 C 40.976 316.400,41.669 317.255,42.344 318.300 C 43.019 319.345,44.028 320.687,44.586 321.283 C 45.144 321.878,45.600 322.559,45.600 322.795 C 45.600 323.032,45.847 323.320,46.149 323.436 C 46.451 323.552,47.265 324.436,47.959 325.402 C 48.652 326.368,49.710 327.698,50.310 328.359 C 50.909 329.019,52.390 330.655,53.600 331.994 C 56.643 335.363,65.032 343.744,68.018 346.400 C 69.378 347.610,71.108 349.165,71.862 349.856 C 72.616 350.547,73.706 351.447,74.286 351.856 C 74.865 352.265,75.734 353.005,76.215 353.500 C 76.697 353.995,77.214 354.400,77.363 354.400 C 77.513 354.400,78.122 354.860,78.717 355.423 C 79.313 355.985,80.295 356.744,80.900 357.109 C 81.505 357.474,82.000 357.914,82.000 358.086 C 82.000 358.259,82.276 358.400,82.613 358.400 C 82.949 358.400,83.329 358.670,83.455 359.000 C 83.582 359.330,83.891 359.600,84.143 359.600 C 84.538 359.601,85.077 359.985,87.425 361.938 C 88.170 362.558,89.789 363.373,90.100 363.285 C 90.265 363.238,90.400 363.384,90.400 363.610 C 90.400 363.835,90.850 364.191,91.400 364.400 C 91.950 364.609,92.400 364.965,92.400 365.190 C 92.400 365.416,92.608 365.600,92.862 365.600 C 93.116 365.600,93.881 366.007,94.562 366.504 C 95.243 367.001,96.610 367.842,97.600 368.374 C 98.590 368.905,99.490 369.447,99.600 369.578 C 99.710 369.709,100.250 370.046,100.800 370.327 C 105.705 372.834,107.566 373.901,107.371 374.095 C 107.246 374.221,107.696 374.445,108.371 374.594 C 109.047 374.742,109.600 375.000,109.600 375.168 C 109.600 375.335,110.320 375.710,111.200 376.000 C 112.080 376.290,112.800 376.665,112.800 376.832 C 112.800 377.000,113.340 377.255,114.000 377.400 C 114.660 377.545,115.200 377.827,115.200 378.026 C 115.200 378.225,116.010 378.592,117.000 378.842 C 117.990 379.091,118.800 379.434,118.800 379.604 C 118.800 379.774,119.295 380.036,119.900 380.186 C 120.505 380.336,122.350 381.089,124.000 381.859 C 125.649 382.629,127.494 383.359,128.100 383.480 C 128.705 383.601,129.200 383.845,129.200 384.021 C 129.200 384.198,130.198 384.566,131.418 384.839 C 132.638 385.112,133.729 385.485,133.842 385.668 C 133.955 385.850,134.316 386.000,134.646 386.000 C 134.975 386.000,135.999 386.340,136.922 386.756 C 137.845 387.171,139.365 387.637,140.300 387.791 C 141.235 387.944,142.000 388.206,142.000 388.371 C 142.000 388.537,143.259 388.897,144.799 389.172 C 146.338 389.447,147.688 389.819,147.799 389.999 C 147.910 390.178,148.901 390.449,150.000 390.600 C 151.100 390.751,152.000 391.009,152.000 391.173 C 152.000 391.337,153.572 391.705,155.494 391.991 C 157.416 392.277,159.261 392.661,159.594 392.845 C 160.618 393.410,171.625 395.133,174.467 395.173 C 175.493 395.188,176.393 395.358,176.467 395.552 C 177.028 397.032,220.898 397.084,224.200 395.608 C 224.640 395.411,227.160 395.042,229.800 394.788 C 232.440 394.534,234.780 394.180,235.000 394.002 C 235.220 393.824,236.615 393.550,238.100 393.393 C 239.585 393.235,240.800 392.983,240.800 392.831 C 240.800 392.679,242.420 392.315,244.400 392.022 C 246.380 391.729,248.000 391.354,248.000 391.190 C 248.000 391.026,248.990 390.768,250.200 390.617 C 251.410 390.466,252.400 390.211,252.400 390.051 C 252.400 389.890,253.750 389.519,255.400 389.226 C 257.050 388.933,258.400 388.562,258.400 388.401 C 258.400 388.241,259.485 387.879,260.812 387.598 C 262.138 387.316,263.319 386.931,263.435 386.743 C 263.552 386.554,263.952 386.399,264.324 386.398 C 264.696 386.396,265.472 386.149,266.050 385.847 C 266.627 385.546,268.022 385.063,269.150 384.774 C 270.277 384.485,271.200 384.103,271.200 383.924 C 271.200 383.746,271.515 383.598,271.900 383.596 C 272.285 383.594,273.500 383.150,274.600 382.609 C 275.700 382.068,276.825 381.619,277.100 381.613 C 277.375 381.606,277.600 381.420,277.600 381.200 C 277.600 380.980,277.922 380.800,278.315 380.800 C 278.709 380.800,279.729 380.444,280.583 380.009 C 281.436 379.574,282.734 379.020,283.467 378.778 C 284.200 378.536,284.800 378.172,284.800 377.969 C 284.800 377.766,285.063 377.600,285.384 377.600 C 286.045 377.600,292.326 374.449,293.092 373.733 C 293.367 373.476,294.134 373.146,294.796 373.001 C 295.458 372.855,296.000 372.593,296.000 372.417 C 296.000 372.241,296.585 371.860,297.300 371.571 C 298.015 371.282,298.690 370.919,298.800 370.764 C 298.910 370.609,299.810 370.045,300.800 369.511 C 303.835 367.875,306.504 366.177,307.420 365.300 C 307.708 365.025,308.074 364.800,308.234 364.800 C 308.394 364.800,309.081 364.382,309.762 363.871 C 310.443 363.359,311.315 362.825,311.700 362.683 C 312.085 362.541,312.400 362.239,312.400 362.013 C 312.400 361.786,312.633 361.600,312.919 361.600 C 313.445 361.600,314.683 360.769,316.047 359.500 C 316.461 359.115,316.971 358.800,317.180 358.800 C 317.389 358.800,317.704 358.571,317.880 358.290 C 318.186 357.803,319.673 356.688,321.245 355.767 C 321.651 355.529,322.429 354.854,322.973 354.267 C 323.517 353.680,324.140 353.200,324.358 353.200 C 324.576 353.200,324.990 352.871,325.277 352.469 C 325.565 352.067,326.102 351.572,326.471 351.369 C 328.137 350.453,347.200 332.119,347.200 331.434 C 347.200 331.290,347.698 330.684,348.307 330.087 C 348.916 329.489,349.950 328.294,350.606 327.432 C 351.649 326.060,352.425 325.168,355.015 322.366 C 355.337 322.018,355.603 321.568,355.607 321.366 C 355.611 321.165,356.061 320.576,356.607 320.058 C 357.153 319.540,357.600 318.962,357.600 318.774 C 357.600 318.586,358.063 317.930,358.629 317.316 C 360.071 315.752,363.200 311.295,363.200 310.806 C 363.200 310.583,363.368 310.400,363.573 310.400 C 363.778 310.400,364.060 310.041,364.199 309.602 C 364.338 309.164,364.666 308.579,364.927 308.302 C 365.721 307.461,367.600 304.444,367.600 304.009 C 367.600 303.784,367.758 303.600,367.951 303.600 C 368.145 303.600,368.542 303.015,368.835 302.300 C 369.127 301.585,369.599 300.762,369.883 300.471 C 370.167 300.181,370.400 299.686,370.400 299.371 C 370.400 299.057,370.568 298.800,370.774 298.800 C 370.980 298.800,371.376 298.170,371.654 297.400 C 371.933 296.630,372.285 296.000,372.437 296.000 C 372.589 296.000,372.823 295.563,372.957 295.028 C 373.091 294.493,373.426 293.818,373.702 293.528 C 374.361 292.833,376.400 288.726,376.400 288.094 C 376.400 287.822,376.560 287.600,376.757 287.600 C 376.953 287.600,377.226 287.150,377.364 286.600 C 377.502 286.050,377.792 285.600,378.008 285.600 C 378.223 285.600,378.404 285.375,378.409 285.100 C 378.414 284.825,378.803 283.790,379.275 282.800 C 380.238 280.778,380.157 280.982,380.576 279.500 C 380.747 278.895,381.039 278.400,381.225 278.400 C 381.411 278.400,381.682 277.770,381.826 277.000 C 381.971 276.230,382.232 275.600,382.408 275.600 C 382.583 275.600,382.957 274.700,383.239 273.600 C 383.521 272.500,383.868 271.600,384.012 271.600 C 384.155 271.600,384.510 270.610,384.800 269.400 C 385.090 268.190,385.463 267.200,385.629 267.200 C 385.794 267.200,386.051 266.480,386.200 265.600 C 386.349 264.720,386.610 264.000,386.781 264.000 C 386.951 264.000,387.320 262.920,387.600 261.600 C 387.880 260.280,388.236 259.200,388.391 259.200 C 388.545 259.200,388.897 257.940,389.172 256.400 C 389.447 254.860,389.816 253.600,389.990 253.600 C 390.165 253.600,390.432 252.610,390.583 251.400 C 390.734 250.190,390.996 249.200,391.164 249.200 C 391.333 249.200,391.709 247.670,392.000 245.800 C 392.291 243.930,392.659 242.400,392.818 242.400 C 392.977 242.400,393.236 241.185,393.395 239.700 C 393.554 238.215,393.822 236.910,393.992 236.800 C 394.162 236.690,394.537 234.350,394.826 231.600 C 395.114 228.850,395.472 226.510,395.621 226.400 C 395.973 226.140,396.807 214.806,396.803 210.324 C 396.801 208.412,396.980 206.736,397.200 206.600 C 397.441 206.451,397.600 203.663,397.600 199.576 C 397.600 195.325,397.451 192.800,397.200 192.800 C 396.965 192.800,396.800 191.411,396.800 189.432 C 396.800 184.540,396.038 173.933,395.619 173.000 C 395.422 172.560,395.043 170.130,394.777 167.600 C 394.511 165.070,394.160 162.820,393.996 162.600 C 393.833 162.380,393.569 161.120,393.411 159.800 C 393.252 158.480,392.979 157.220,392.802 157.000 C 392.626 156.780,392.259 155.205,391.986 153.500 C 391.713 151.795,391.356 150.400,391.191 150.400 C 391.027 150.400,390.768 149.410,390.617 148.200 C 390.466 146.990,390.195 146.000,390.014 146.000 C 389.833 146.000,389.492 144.900,389.255 143.556 C 389.018 142.211,388.659 140.906,388.457 140.656 C 388.254 140.405,387.860 139.165,387.581 137.900 C 387.301 136.635,386.932 135.600,386.761 135.600 C 386.589 135.600,386.328 134.790,386.179 133.800 C 386.031 132.810,385.784 132.000,385.630 132.000 C 385.477 132.000,385.110 131.060,384.816 129.912 C 384.522 128.763,384.038 127.581,383.740 127.283 C 383.443 126.986,383.200 126.319,383.200 125.800 C 383.200 125.281,382.952 124.609,382.649 124.306 C 382.346 124.003,381.971 123.180,381.817 122.477 C 381.663 121.775,381.394 121.200,381.220 121.200 C 381.046 121.200,380.677 120.390,380.400 119.400 C 380.123 118.410,379.779 117.600,379.635 117.600 C 379.492 117.600,379.135 116.790,378.843 115.800 C 378.551 114.810,378.166 114.000,377.988 114.000 C 377.809 114.000,377.545 113.460,377.400 112.800 C 377.255 112.140,376.978 111.600,376.784 111.600 C 376.591 111.600,376.216 110.880,375.953 110.000 C 375.689 109.120,375.341 108.400,375.180 108.400 C 375.019 108.400,374.774 107.950,374.636 107.400 C 374.498 106.850,374.222 106.400,374.023 106.400 C 373.825 106.400,373.454 105.770,373.200 105.000 C 372.946 104.230,372.586 103.600,372.401 103.600 C 372.215 103.600,371.942 103.048,371.794 102.373 C 371.646 101.698,371.272 101.049,370.962 100.930 C 370.653 100.812,370.400 100.551,370.400 100.351 C 370.400 99.817,367.980 95.685,365.700 92.324 C 364.985 91.270,364.400 90.221,364.400 89.992 C 364.400 89.762,364.130 89.471,363.800 89.345 C 363.470 89.218,363.200 88.935,363.200 88.715 C 363.200 88.495,362.795 87.820,362.300 87.213 C 361.805 86.607,361.130 85.697,360.800 85.190 C 360.470 84.683,359.903 83.955,359.539 83.574 C 359.176 83.192,358.764 82.518,358.624 82.076 C 358.484 81.635,358.106 81.173,357.785 81.050 C 357.463 80.926,357.200 80.613,357.200 80.355 C 357.200 80.096,356.845 79.505,356.411 79.042 C 354.387 76.883,353.200 75.524,353.200 75.364 C 353.200 75.145,349.887 71.063,348.233 69.244 C 344.811 65.479,339.025 59.477,337.738 58.357 C 337.332 58.004,336.719 57.374,336.376 56.957 C 336.033 56.541,334.863 55.425,333.776 54.478 C 332.689 53.531,330.900 51.965,329.800 50.999 C 328.700 50.032,327.175 48.692,326.411 48.020 C 325.647 47.349,324.883 46.800,324.714 46.800 C 324.545 46.800,323.891 46.260,323.260 45.600 C 322.629 44.940,321.948 44.400,321.746 44.400 C 321.543 44.400,321.094 44.085,320.746 43.700 C 320.399 43.315,319.770 42.730,319.349 42.400 C 316.965 40.530,315.610 39.600,315.269 39.600 C 315.058 39.600,314.782 39.330,314.655 39.000 C 314.529 38.670,314.232 38.400,313.996 38.400 C 313.760 38.400,313.180 38.040,312.708 37.600 C 312.236 37.160,311.613 36.800,311.325 36.800 C 311.036 36.800,310.800 36.611,310.800 36.379 C 310.800 36.148,310.260 35.770,309.600 35.540 C 308.876 35.288,308.505 34.939,308.665 34.661 C 308.810 34.407,308.785 34.329,308.611 34.487 C 308.352 34.720,305.149 32.811,304.400 31.977 C 304.290 31.855,303.615 31.518,302.900 31.229 C 302.185 30.940,301.600 30.559,301.600 30.383 C 301.600 30.207,301.075 29.948,300.433 29.807 C 299.792 29.666,299.174 29.309,299.060 29.013 C 298.947 28.717,298.302 28.354,297.627 28.206 C 296.952 28.058,296.400 27.793,296.400 27.617 C 296.400 27.441,295.815 27.058,295.100 26.765 C 294.385 26.473,293.562 26.001,293.271 25.717 C 292.981 25.433,292.486 25.200,292.171 25.200 C 291.857 25.200,291.600 25.048,291.600 24.863 C 291.600 24.678,290.880 24.311,290.000 24.047 C 289.120 23.784,288.400 23.409,288.400 23.216 C 288.400 23.022,287.860 22.745,287.200 22.600 C 286.540 22.455,286.000 22.171,286.000 21.968 C 286.000 21.766,285.865 21.631,285.700 21.670 C 285.267 21.771,283.053 20.689,282.706 20.208 C 282.544 19.984,282.409 19.957,282.406 20.149 C 282.403 20.341,282.175 20.317,281.900 20.095 C 281.625 19.874,280.815 19.567,280.100 19.414 C 279.385 19.262,278.800 18.979,278.800 18.786 C 278.800 18.594,278.170 18.318,277.400 18.174 C 276.630 18.029,276.000 17.750,276.000 17.554 C 276.000 17.358,275.190 16.980,274.200 16.716 C 273.210 16.451,272.400 16.120,272.400 15.981 C 272.400 15.842,271.410 15.490,270.200 15.200 C 268.990 14.910,268.000 14.532,268.000 14.361 C 268.000 14.189,267.190 13.928,266.200 13.779 C 265.210 13.631,264.400 13.378,264.400 13.218 C 264.400 13.058,263.365 12.697,262.100 12.415 C 260.835 12.134,259.705 11.754,259.588 11.571 C 259.471 11.387,258.166 11.008,256.688 10.727 C 255.210 10.447,254.000 10.079,254.000 9.909 C 254.000 9.739,253.663 9.600,253.252 9.600 C 252.841 9.600,251.429 9.256,250.114 8.837 C 248.800 8.417,246.707 7.946,245.462 7.790 C 244.218 7.635,243.200 7.370,243.200 7.201 C 243.200 7.031,241.985 6.765,240.500 6.607 C 239.015 6.450,237.611 6.167,237.381 5.979 C 237.150 5.790,234.900 5.412,232.381 5.138 C 229.861 4.865,227.710 4.521,227.600 4.375 C 227.355 4.049,216.094 3.193,212.100 3.197 C 210.431 3.199,209.200 3.030,209.200 2.800 C 209.200 2.545,206.008 2.400,200.424 2.400 C 195.004 2.400,191.553 2.553,191.400 2.800 M88.498 73.904 C 88.774 74.127,89.810 74.439,90.800 74.596 C 91.790 74.754,93.140 75.121,93.800 75.412 C 94.460 75.702,95.630 76.065,96.400 76.216 C 97.170 76.368,97.980 76.626,98.200 76.788 C 98.420 76.951,99.498 77.304,100.595 77.572 C 101.692 77.840,102.772 78.198,102.995 78.368 C 103.218 78.537,104.300 78.912,105.400 79.200 C 106.500 79.488,107.580 79.860,107.800 80.026 C 108.020 80.192,108.875 80.455,109.700 80.609 C 110.525 80.763,111.200 81.020,111.200 81.181 C 111.200 81.341,112.187 81.694,113.393 81.964 C 114.599 82.233,115.690 82.622,115.817 82.827 C 115.944 83.032,116.316 83.200,116.646 83.200 C 116.975 83.200,117.999 83.544,118.922 83.964 C 119.845 84.384,121.275 84.854,122.100 85.008 C 122.925 85.163,123.600 85.419,123.600 85.577 C 123.600 85.736,124.365 86.060,125.300 86.298 C 127.060 86.746,130.005 87.753,131.400 88.383 C 131.840 88.582,132.920 88.952,133.800 89.207 C 134.680 89.461,135.967 89.923,136.660 90.234 C 137.354 90.546,138.096 90.800,138.311 90.800 C 138.719 90.800,142.330 92.452,143.932 93.371 C 150.507 97.144,148.448 110.939,141.030 112.820 C 140.133 113.047,139.040 113.403,138.600 113.610 C 137.401 114.173,130.050 116.000,128.980 116.000 C 128.467 116.000,127.949 116.159,127.829 116.353 C 127.709 116.547,126.123 116.914,124.305 117.167 C 122.487 117.421,120.640 117.790,120.200 117.989 C 119.760 118.187,118.410 118.526,117.200 118.742 C 112.338 119.610,108.157 120.497,107.400 120.823 C 106.960 121.012,105.250 121.435,103.600 121.764 C 101.950 122.092,99.430 122.636,98.000 122.971 C 96.570 123.307,93.870 123.902,92.000 124.292 C 90.130 124.683,88.420 125.111,88.200 125.243 C 87.980 125.375,86.360 125.716,84.600 126.000 C 82.840 126.285,81.220 126.651,81.000 126.813 C 80.780 126.976,79.790 127.240,78.800 127.400 C 77.810 127.560,76.776 127.872,76.501 128.093 C 75.253 129.101,67.506 128.964,65.189 127.893 C 54.991 123.179,57.018 108.619,68.149 106.623 C 69.001 106.470,69.991 106.184,70.349 105.986 C 70.707 105.789,72.350 105.339,74.000 104.988 C 75.650 104.637,78.080 104.096,79.400 103.785 C 80.720 103.474,83.330 102.927,85.200 102.570 C 87.070 102.212,88.876 101.780,89.213 101.611 C 89.551 101.441,91.163 101.076,92.797 100.800 L 95.768 100.299 93.184 99.362 C 91.763 98.846,90.060 98.308,89.400 98.166 C 88.740 98.024,88.020 97.769,87.800 97.600 C 87.580 97.431,86.770 97.161,86.000 97.001 C 85.230 96.841,83.845 96.370,82.922 95.955 C 81.999 95.540,81.054 95.200,80.822 95.200 C 80.590 95.200,80.400 95.040,80.400 94.843 C 80.400 94.647,79.937 94.370,79.370 94.228 C 78.804 94.086,77.288 92.904,76.002 91.602 C 70.617 86.150,72.162 77.809,79.249 74.078 C 81.121 73.092,87.348 72.975,88.498 73.904 M316.322 78.441 C 318.338 79.343,321.200 81.831,321.200 82.681 C 321.200 82.967,321.366 83.200,321.568 83.200 C 321.771 83.200,322.056 83.785,322.201 84.500 C 322.347 85.215,322.658 86.359,322.893 87.043 C 323.377 88.454,322.317 93.239,321.341 94.049 C 321.043 94.296,320.800 94.734,320.800 95.022 C 320.800 96.213,317.316 98.335,312.600 100.018 C 309.960 100.960,307.629 101.881,307.420 102.065 C 307.211 102.249,306.788 102.400,306.480 102.400 C 306.173 102.400,305.354 102.666,304.660 102.992 C 303.967 103.318,302.684 103.829,301.808 104.129 L 300.217 104.675 303.008 105.167 C 304.544 105.437,306.160 105.804,306.600 105.983 C 307.040 106.161,308.930 106.605,310.800 106.969 C 312.670 107.333,315.190 107.826,316.400 108.064 C 317.610 108.302,318.780 108.636,319.000 108.807 C 319.220 108.978,320.795 109.341,322.500 109.614 C 324.205 109.887,325.600 110.241,325.600 110.401 C 325.600 110.560,326.366 110.796,327.301 110.924 C 338.394 112.445,340.667 127.330,330.575 132.369 C 328.644 133.334,320.947 133.449,319.507 132.534 C 319.002 132.213,314.585 131.160,310.400 130.363 C 309.190 130.133,307.930 129.835,307.600 129.703 C 307.017 129.468,302.249 128.388,298.200 127.574 C 297.100 127.353,295.840 127.012,295.400 126.815 C 294.960 126.619,293.340 126.251,291.800 125.998 C 290.260 125.744,288.730 125.430,288.400 125.299 C 288.070 125.168,286.270 124.728,284.400 124.322 C 282.530 123.915,279.920 123.327,278.600 123.016 C 277.280 122.705,274.850 122.160,273.200 121.804 C 271.550 121.449,269.840 121.006,269.400 120.819 C 268.688 120.516,266.315 120.007,259.800 118.756 C 258.700 118.545,257.440 118.211,257.000 118.014 C 256.560 117.817,255.525 117.449,254.700 117.197 C 253.875 116.944,253.200 116.572,253.200 116.369 C 253.200 116.166,252.967 116.000,252.681 116.000 C 252.084 116.000,249.704 113.566,248.575 111.800 C 247.636 110.331,247.411 102.397,248.300 102.100 C 248.575 102.008,248.800 101.678,248.800 101.367 C 248.800 100.612,251.839 97.600,252.600 97.600 C 252.930 97.600,253.200 97.449,253.200 97.264 C 253.200 97.079,254.505 96.424,256.100 95.809 C 257.695 95.195,259.567 94.446,260.260 94.146 C 260.954 93.846,261.646 93.600,261.800 93.600 C 261.954 93.600,262.646 93.346,263.340 93.035 C 264.033 92.725,266.130 91.983,268.000 91.387 C 269.870 90.792,271.940 90.075,272.600 89.794 C 273.260 89.514,274.424 89.153,275.187 88.991 C 275.950 88.830,276.850 88.557,277.187 88.384 C 277.524 88.211,279.330 87.588,281.200 87.000 C 283.070 86.411,285.140 85.694,285.800 85.407 C 286.460 85.120,287.630 84.753,288.400 84.592 C 289.170 84.431,289.890 84.180,290.000 84.034 C 290.110 83.888,290.830 83.561,291.600 83.307 C 292.370 83.054,293.900 82.553,295.000 82.194 C 296.100 81.834,297.270 81.403,297.600 81.234 C 297.930 81.065,299.820 80.433,301.800 79.828 C 303.780 79.223,305.760 78.573,306.200 78.385 C 308.690 77.316,313.874 77.345,316.322 78.441 M216.800 148.340 C 222.410 148.608,228.890 148.987,231.200 149.182 C 233.510 149.377,238.910 149.816,243.200 150.157 C 247.490 150.499,251.900 150.954,253.000 151.169 C 254.100 151.385,256.800 151.755,259.000 151.992 C 267.110 152.867,279.402 154.572,289.000 156.154 C 290.980 156.480,294.580 157.044,297.000 157.406 C 299.420 157.769,301.670 158.173,302.000 158.304 C 302.537 158.518,304.872 158.920,314.200 160.407 C 315.740 160.652,317.360 161.012,317.800 161.206 C 318.240 161.401,320.310 161.768,322.400 162.022 C 324.490 162.276,326.380 162.623,326.600 162.794 C 326.820 162.964,328.260 163.232,329.800 163.391 C 331.340 163.549,332.780 163.819,333.000 163.990 C 333.220 164.161,334.442 164.427,335.715 164.581 L 338.031 164.861 337.879 173.131 C 337.720 181.835,337.064 192.427,336.412 196.800 C 336.199 198.230,335.830 200.750,335.592 202.400 C 335.355 204.050,335.000 205.760,334.803 206.200 C 334.607 206.640,334.233 208.344,333.972 209.987 C 333.712 211.629,333.359 213.249,333.189 213.587 C 333.019 213.924,332.372 216.090,331.753 218.400 C 331.133 220.710,330.396 223.050,330.115 223.600 C 329.835 224.150,329.603 224.870,329.600 225.200 C 329.597 225.530,329.354 226.262,329.059 226.827 C 328.765 227.391,328.392 228.381,328.231 229.027 C 328.070 229.672,327.695 230.740,327.398 231.400 C 325.762 235.035,325.232 236.334,324.986 237.314 C 324.836 237.911,324.553 238.400,324.357 238.400 C 324.160 238.400,324.000 238.598,324.000 238.840 C 324.000 239.556,321.862 244.000,321.517 244.000 C 321.343 244.000,321.200 244.222,321.200 244.494 C 321.200 245.010,319.183 249.252,318.772 249.600 C 318.642 249.710,318.281 250.385,317.970 251.100 C 317.659 251.815,317.269 252.400,317.102 252.400 C 316.936 252.400,316.800 252.579,316.800 252.797 C 316.800 253.370,311.929 260.939,311.316 261.320 C 311.032 261.496,310.800 261.827,310.800 262.057 C 310.800 262.605,307.012 267.589,301.898 273.768 C 298.135 278.314,282.490 293.356,278.000 296.744 C 277.230 297.325,275.610 298.575,274.400 299.523 C 273.190 300.470,271.840 301.512,271.400 301.838 C 267.552 304.684,266.820 305.200,266.625 305.200 C 266.502 305.200,265.546 305.806,264.501 306.546 C 261.916 308.376,255.231 312.234,254.000 312.606 C 253.450 312.772,252.910 313.019,252.800 313.154 C 252.470 313.560,249.081 315.124,247.900 315.416 C 247.295 315.565,246.800 315.847,246.800 316.043 C 246.800 316.240,246.520 316.400,246.178 316.400 C 245.836 316.400,244.801 316.740,243.878 317.155 C 242.955 317.570,241.570 318.041,240.800 318.201 C 240.030 318.361,239.220 318.628,239.000 318.794 C 238.780 318.960,237.610 319.325,236.400 319.606 C 235.190 319.886,234.110 320.241,234.000 320.393 C 233.890 320.545,232.900 320.875,231.800 321.127 C 225.812 322.494,223.339 323.095,222.800 323.312 C 221.514 323.829,209.015 325.749,202.800 326.383 C 198.436 326.829,186.794 326.831,182.400 326.387 C 175.722 325.712,164.056 323.830,162.600 323.192 C 162.160 322.999,160.720 322.643,159.400 322.400 C 158.080 322.157,156.640 321.803,156.200 321.613 C 155.760 321.424,154.680 321.086,153.800 320.862 C 149.828 319.854,147.338 319.142,146.600 318.803 C 146.160 318.601,144.360 317.958,142.600 317.373 C 140.840 316.789,139.229 316.151,139.020 315.955 C 138.811 315.760,138.411 315.600,138.132 315.600 C 137.852 315.600,136.640 315.150,135.437 314.600 C 134.235 314.050,133.060 313.600,132.826 313.600 C 132.592 313.600,132.400 313.420,132.400 313.200 C 132.400 312.980,132.160 312.800,131.866 312.800 C 131.271 312.800,121.390 307.796,120.800 307.196 C 120.305 306.692,117.179 304.800,116.842 304.800 C 116.636 304.800,116.407 304.660,116.333 304.489 C 116.260 304.318,114.940 303.349,113.400 302.336 C 101.211 294.313,85.176 279.613,76.930 268.901 C 76.633 268.516,75.583 267.120,74.597 265.800 C 73.611 264.480,72.668 263.220,72.501 263.000 C 68.444 257.644,58.400 239.479,58.400 237.498 C 58.400 237.114,58.240 236.800,58.043 236.800 C 57.847 236.800,57.563 236.305,57.413 235.700 C 57.262 235.095,56.890 234.060,56.587 233.400 C 55.842 231.778,54.835 228.945,54.313 227.000 C 54.076 226.120,53.753 225.220,53.594 225.000 C 53.435 224.780,53.078 223.610,52.800 222.400 C 52.522 221.190,52.156 220.020,51.985 219.800 C 51.814 219.580,51.545 218.500,51.387 217.400 C 51.229 216.300,50.960 215.220,50.791 215.000 C 50.621 214.780,50.269 213.160,50.008 211.400 C 49.747 209.640,49.379 207.840,49.191 207.400 C 48.864 206.636,48.497 204.016,47.537 195.600 C 47.299 193.510,47.080 185.179,47.052 177.086 C 46.995 161.018,46.908 161.619,49.305 161.606 C 49.913 161.603,50.723 161.425,51.105 161.210 C 51.487 160.996,52.880 160.638,54.200 160.415 C 55.520 160.192,58.310 159.721,60.400 159.368 C 62.490 159.015,64.560 158.569,65.000 158.378 C 65.440 158.186,67.600 157.747,69.800 157.402 C 76.616 156.334,80.567 155.656,81.400 155.411 C 83.208 154.880,100.907 152.657,108.600 151.995 C 111.240 151.768,114.390 151.415,115.600 151.211 C 116.810 151.007,121.760 150.646,126.600 150.409 C 131.440 150.172,136.480 149.809,137.800 149.603 C 139.120 149.398,147.220 149.033,155.800 148.793 C 164.380 148.552,172.930 148.210,174.800 148.032 C 179.587 147.575,204.648 147.759,216.800 148.340 " stroke="none" fill="#fbdb6b" fill-rule="evenodd"></path><path id="path3" d="M81.115 73.528 C 80.738 73.678,81.856 73.800,83.600 73.800 C 85.344 73.800,86.462 73.678,86.085 73.528 C 85.708 73.379,84.590 73.256,83.600 73.256 C 82.610 73.256,81.492 73.379,81.115 73.528 M89.800 74.739 C 91.037 75.268,93.110 75.677,92.400 75.251 C 92.070 75.054,91.170 74.780,90.400 74.644 C 89.456 74.477,89.260 74.508,89.800 74.739 M94.234 75.972 C 94.620 76.334,97.544 77.041,97.200 76.689 C 97.090 76.576,96.295 76.291,95.434 76.056 C 94.573 75.821,94.033 75.783,94.234 75.972 M99.406 77.610 C 99.506 77.772,100.035 77.990,100.582 78.094 C 101.129 78.199,101.494 78.152,101.394 77.990 C 101.294 77.828,100.765 77.610,100.218 77.506 C 99.671 77.401,99.306 77.448,99.406 77.610 M308.262 77.900 C 308.160 78.065,309.572 78.200,311.400 78.200 C 313.228 78.200,314.640 78.065,314.538 77.900 C 314.436 77.735,313.024 77.600,311.400 77.600 C 309.776 77.600,308.364 77.735,308.262 77.900 M316.000 78.579 C 316.000 78.689,316.540 79.059,317.200 79.400 C 317.860 79.741,318.400 79.931,318.400 79.821 C 318.400 79.711,317.860 79.341,317.200 79.000 C 316.540 78.659,316.000 78.469,316.000 78.579 M303.700 79.212 C 303.205 79.411,302.800 79.656,302.800 79.755 C 302.800 79.949,305.689 79.222,305.967 78.958 C 306.279 78.662,304.603 78.850,303.700 79.212 M73.190 81.637 C 72.695 83.476,72.953 87.009,73.654 88.003 C 74.007 88.503,74.039 88.487,73.852 87.905 C 73.302 86.193,73.154 83.229,73.548 81.803 C 73.785 80.946,73.905 80.172,73.815 80.082 C 73.726 79.993,73.444 80.692,73.190 81.637 M299.800 80.615 C 298.212 81.165,298.210 81.167,299.600 80.942 C 300.370 80.818,301.171 80.555,301.380 80.358 C 301.847 79.918,301.787 79.928,299.800 80.615 M108.400 80.800 C 109.768 81.238,110.819 81.238,109.800 80.800 C 109.360 80.611,108.640 80.462,108.200 80.468 C 107.557 80.477,107.596 80.543,108.400 80.800 M112.206 82.010 C 112.306 82.172,112.835 82.390,113.382 82.494 C 113.929 82.599,114.294 82.552,114.194 82.390 C 114.094 82.228,113.565 82.010,113.018 81.906 C 112.471 81.801,112.106 81.848,112.206 82.010 M295.800 81.885 C 294.575 82.180,294.198 82.728,295.376 82.503 C 295.946 82.394,296.510 82.146,296.630 81.952 C 296.749 81.759,296.792 81.621,296.724 81.646 C 296.656 81.672,296.240 81.779,295.800 81.885 M292.000 83.434 C 290.690 83.970,290.677 83.992,291.800 83.775 C 292.460 83.648,293.171 83.376,293.380 83.172 C 293.859 82.703,293.721 82.729,292.000 83.434 M116.000 83.284 C 116.110 83.393,116.826 83.693,117.591 83.951 C 118.356 84.210,118.806 84.250,118.591 84.039 C 118.376 83.829,117.660 83.529,117.000 83.372 C 116.340 83.216,115.890 83.176,116.000 83.284 M288.200 84.685 C 287.760 84.791,287.220 85.060,287.000 85.284 C 286.500 85.791,288.419 85.279,288.980 84.755 C 289.189 84.560,289.279 84.421,289.180 84.446 C 289.081 84.472,288.640 84.579,288.200 84.685 M321.996 85.783 C 322.180 86.597,322.438 87.371,322.569 87.503 C 322.926 87.860,322.345 85.057,321.978 84.651 C 321.804 84.459,321.812 84.968,321.996 85.783 M124.046 86.180 C 124.181 86.314,124.889 86.596,125.619 86.805 C 126.349 87.015,126.778 87.032,126.573 86.845 C 126.148 86.456,123.671 85.804,124.046 86.180 M283.300 86.412 C 281.915 86.969,282.234 87.214,283.700 86.720 C 284.415 86.479,285.075 86.218,285.167 86.141 C 285.492 85.866,284.186 86.056,283.300 86.412 M279.700 87.648 C 278.985 87.854,278.400 88.111,278.400 88.219 C 278.400 88.509,280.538 87.953,280.980 87.548 C 281.416 87.149,281.430 87.148,279.700 87.648 M132.400 89.133 C 132.730 89.336,133.450 89.624,134.000 89.771 C 134.695 89.957,134.817 89.925,134.400 89.667 C 134.070 89.464,133.350 89.176,132.800 89.029 C 132.105 88.843,131.983 88.875,132.400 89.133 M274.600 89.414 C 273.600 89.896,273.566 89.951,274.400 89.748 C 275.533 89.471,276.807 88.821,276.200 88.830 C 275.980 88.833,275.260 89.096,274.600 89.414 M75.983 91.300 C 77.641 93.066,78.000 93.384,78.000 93.083 C 78.000 93.019,77.145 92.164,76.100 91.183 L 74.200 89.400 75.983 91.300 M136.800 90.800 C 137.130 91.013,137.670 91.188,138.000 91.188 C 138.533 91.188,138.533 91.145,138.000 90.800 C 137.670 90.587,137.130 90.412,136.800 90.412 C 136.267 90.412,136.267 90.455,136.800 90.800 M266.200 92.214 C 265.200 92.696,265.166 92.751,266.000 92.548 C 267.133 92.271,268.407 91.621,267.800 91.630 C 267.580 91.633,266.860 91.896,266.200 92.214 M143.200 93.311 C 143.200 93.387,143.785 93.878,144.500 94.401 C 145.304 94.990,145.584 95.087,145.233 94.655 C 144.700 93.999,143.200 93.007,143.200 93.311 M261.800 93.814 C 260.795 94.298,260.763 94.353,261.600 94.151 C 262.150 94.019,262.771 93.750,262.980 93.555 C 263.498 93.071,263.214 93.133,261.800 93.814 M319.583 95.700 C 318.840 96.635,318.548 97.146,318.935 96.836 C 319.663 96.251,321.377 94.000,321.094 94.000 C 321.006 94.000,320.326 94.765,319.583 95.700 M258.529 94.930 C 257.829 95.189,257.123 95.537,256.958 95.704 C 256.554 96.115,259.300 95.182,259.780 94.745 C 260.246 94.321,260.131 94.338,258.529 94.930 M81.200 94.934 C 81.200 95.037,81.781 95.324,82.491 95.572 C 83.201 95.819,83.606 95.857,83.391 95.656 C 82.935 95.229,81.200 94.658,81.200 94.934 M84.800 96.333 C 85.130 96.536,85.850 96.824,86.400 96.971 C 87.095 97.157,87.217 97.125,86.800 96.867 C 86.470 96.664,85.750 96.376,85.200 96.229 C 84.505 96.043,84.383 96.075,84.800 96.333 M316.400 98.054 C 315.361 98.624,315.258 98.756,316.000 98.568 C 316.550 98.428,317.264 98.063,317.586 97.757 C 318.325 97.054,318.140 97.100,316.400 98.054 M89.246 97.780 C 89.381 97.914,90.089 98.196,90.819 98.405 C 91.549 98.615,91.978 98.632,91.773 98.445 C 91.348 98.056,88.871 97.404,89.246 97.780 M250.408 99.392 C 249.441 100.377,248.729 101.232,248.825 101.292 C 248.921 101.351,249.858 100.545,250.906 99.500 C 251.955 98.455,252.668 97.600,252.490 97.600 C 252.312 97.600,251.375 98.406,250.408 99.392 M147.400 102.200 C 147.400 104.274,147.522 105.662,147.672 105.285 C 147.821 104.908,147.944 103.520,147.944 102.200 C 147.944 100.880,147.821 99.492,147.672 99.115 C 147.522 98.738,147.400 100.126,147.400 102.200 M93.409 99.161 C 93.624 99.371,94.340 99.671,95.000 99.828 C 96.548 100.195,96.200 99.854,94.409 99.249 C 93.644 98.990,93.194 98.950,93.409 99.161 M312.929 99.330 C 312.229 99.589,311.523 99.937,311.358 100.104 C 310.954 100.515,313.700 99.582,314.180 99.145 C 314.646 98.721,314.531 98.738,312.929 99.330 M93.024 100.850 C 92.157 101.053,91.347 101.321,91.224 101.445 C 90.901 101.771,94.086 101.162,94.800 100.761 C 95.539 100.346,95.072 100.370,93.024 100.850 M308.900 100.812 C 308.405 101.011,308.000 101.245,308.000 101.332 C 308.000 101.628,310.011 101.105,310.230 100.752 C 310.497 100.319,310.080 100.338,308.900 100.812 M86.200 102.291 C 85.540 102.385,84.851 102.606,84.669 102.782 C 84.487 102.958,85.297 102.928,86.469 102.716 C 89.741 102.123,89.546 101.814,86.200 102.291 M304.800 102.400 C 303.976 102.664,303.941 102.726,304.600 102.754 C 305.040 102.773,305.670 102.613,306.000 102.400 C 306.701 101.947,306.214 101.947,304.800 102.400 M247.852 103.700 C 247.534 104.888,247.584 108.817,247.928 109.685 C 248.078 110.062,248.200 108.667,248.200 106.585 C 248.200 102.424,248.198 102.409,247.852 103.700 M301.400 103.814 C 300.395 104.298,300.363 104.353,301.200 104.151 C 301.750 104.019,302.371 103.750,302.580 103.555 C 303.098 103.071,302.814 103.133,301.400 103.814 M78.800 104.000 L 77.800 104.320 78.800 104.320 C 79.350 104.320,80.250 104.176,80.800 104.000 L 81.800 103.680 80.800 103.680 C 80.250 103.680,79.350 103.824,78.800 104.000 M73.680 105.195 C 72.954 105.367,72.247 105.620,72.109 105.758 C 71.771 106.096,74.444 105.576,75.200 105.157 C 75.916 104.760,75.468 104.771,73.680 105.195 M301.200 105.152 C 301.530 105.338,302.430 105.602,303.200 105.738 C 304.043 105.888,304.361 105.852,304.000 105.648 C 303.670 105.462,302.770 105.198,302.000 105.062 C 301.157 104.912,300.839 104.948,301.200 105.152 M67.800 106.685 C 67.360 106.791,66.835 107.034,66.634 107.225 C 66.328 107.515,68.420 107.108,69.800 106.608 C 70.385 106.396,68.738 106.460,67.800 106.685 M308.600 106.808 C 311.666 107.552,312.240 107.635,311.600 107.244 C 311.270 107.041,310.100 106.773,309.000 106.648 C 307.059 106.427,307.047 106.432,308.600 106.808 M313.869 108.002 C 314.232 108.336,318.324 109.000,318.000 108.673 C 317.890 108.562,316.841 108.297,315.669 108.084 C 314.497 107.872,313.687 107.835,313.869 108.002 M320.651 109.578 C 321.057 109.945,323.860 110.526,323.503 110.169 C 323.371 110.038,322.597 109.780,321.783 109.596 C 320.968 109.412,320.459 109.404,320.651 109.578 M325.410 110.743 C 325.551 110.884,326.564 111.202,327.662 111.449 C 328.760 111.696,329.510 111.760,329.329 111.591 C 328.931 111.220,325.046 110.379,325.410 110.743 M135.256 114.059 C 134.517 114.272,133.987 114.520,134.079 114.612 C 134.281 114.814,137.200 114.037,137.200 113.781 C 137.200 113.546,136.882 113.591,135.256 114.059 M130.000 115.430 L 127.800 115.970 129.800 115.747 C 130.900 115.624,132.070 115.367,132.400 115.174 C 133.182 114.718,132.680 114.772,130.000 115.430 M58.934 118.000 C 58.934 119.650,59.005 120.325,59.091 119.500 C 59.178 118.675,59.178 117.325,59.091 116.500 C 59.005 115.675,58.934 116.350,58.934 118.000 M123.496 116.784 C 122.668 116.944,121.881 117.186,121.746 117.321 C 121.403 117.664,124.469 117.164,125.200 116.758 C 125.891 116.374,125.587 116.378,123.496 116.784 M254.000 116.631 C 254.000 116.901,256.078 117.656,256.276 117.457 C 256.367 117.367,255.892 117.101,255.220 116.867 C 254.549 116.633,254.000 116.527,254.000 116.631 M115.800 118.291 C 115.140 118.385,114.451 118.606,114.269 118.782 C 113.975 119.067,117.586 118.592,118.600 118.213 C 119.115 118.020,117.355 118.069,115.800 118.291 M259.000 118.339 C 260.113 118.814,263.153 119.252,262.400 118.828 C 262.070 118.642,260.990 118.379,260.000 118.243 C 258.857 118.087,258.492 118.122,259.000 118.339 M109.800 119.816 L 107.800 120.356 109.600 120.133 C 110.590 120.010,111.670 119.756,112.000 119.567 C 112.814 119.102,112.182 119.174,109.800 119.816 M264.800 119.562 C 265.130 119.753,266.210 120.016,267.200 120.147 C 268.380 120.302,268.656 120.271,268.000 120.057 C 266.345 119.518,264.134 119.176,264.800 119.562 M336.396 122.682 C 336.288 124.487,336.343 125.820,336.519 125.643 C 336.694 125.467,336.782 123.990,336.715 122.361 L 336.593 119.400 336.396 122.682 M103.280 121.195 C 102.554 121.367,101.847 121.620,101.709 121.758 C 101.412 122.055,103.854 121.615,105.000 121.165 C 106.020 120.764,105.024 120.782,103.280 121.195 M271.600 121.152 C 271.930 121.338,272.830 121.602,273.600 121.738 C 274.443 121.888,274.761 121.852,274.400 121.648 C 274.070 121.462,273.170 121.198,272.400 121.062 C 271.557 120.912,271.239 120.948,271.600 121.152 M96.400 122.800 L 95.400 123.120 96.400 123.120 C 96.950 123.120,97.850 122.976,98.400 122.800 L 99.400 122.480 98.400 122.480 C 97.850 122.480,96.950 122.624,96.400 122.800 M278.000 122.800 C 278.550 122.976,279.450 123.117,280.000 123.113 C 280.898 123.106,280.878 123.074,279.800 122.800 C 278.108 122.369,276.656 122.369,278.000 122.800 M90.400 124.230 L 88.200 124.770 90.200 124.552 C 91.300 124.432,92.371 124.169,92.580 123.967 C 92.789 123.765,92.879 123.620,92.780 123.645 C 92.681 123.670,91.610 123.933,90.400 124.230 M283.852 123.999 C 284.043 124.183,285.100 124.432,286.200 124.551 C 288.220 124.769,287.885 124.608,285.052 123.997 C 284.200 123.813,283.660 123.814,283.852 123.999 M84.080 125.595 C 83.354 125.767,82.647 126.020,82.509 126.158 C 82.171 126.496,84.844 125.976,85.600 125.557 C 86.316 125.160,85.868 125.171,84.080 125.595 M290.800 125.552 C 291.130 125.738,292.030 126.002,292.800 126.138 C 293.643 126.288,293.961 126.252,293.600 126.048 C 293.270 125.862,292.370 125.598,291.600 125.462 C 290.757 125.312,290.439 125.348,290.800 125.552 M63.513 126.895 C 63.979 127.456,65.600 128.138,65.600 127.773 C 65.600 127.689,65.015 127.318,64.300 126.948 C 63.201 126.380,63.079 126.372,63.513 126.895 M78.600 127.016 L 76.600 127.556 78.400 127.337 C 79.390 127.216,80.371 126.956,80.580 126.759 C 80.789 126.561,80.879 126.417,80.780 126.438 C 80.681 126.460,79.700 126.720,78.600 127.016 M296.400 126.913 C 296.510 127.032,297.559 127.303,298.731 127.516 C 299.903 127.728,300.713 127.759,300.531 127.584 C 300.164 127.232,296.081 126.569,296.400 126.913 M70.600 128.400 L 67.400 128.653 70.400 128.721 C 72.050 128.757,73.670 128.613,74.000 128.400 C 74.330 128.187,74.420 128.043,74.200 128.079 C 73.980 128.116,72.360 128.261,70.600 128.400 M303.100 128.427 C 303.576 128.851,306.063 129.226,305.824 128.838 C 305.705 128.646,304.976 128.415,304.204 128.325 C 303.432 128.234,302.936 128.281,303.100 128.427 M310.251 129.978 C 310.657 130.345,313.460 130.926,313.103 130.569 C 312.971 130.438,312.197 130.180,311.383 129.996 C 310.568 129.812,310.059 129.804,310.251 129.978 M315.052 131.199 C 315.243 131.383,316.300 131.632,317.400 131.751 C 319.420 131.969,319.085 131.808,316.252 131.197 C 315.400 131.013,314.860 131.014,315.052 131.199 M322.938 132.894 C 323.192 133.056,324.570 133.188,326.000 133.188 C 327.430 133.188,328.808 133.056,329.062 132.894 C 329.316 132.732,327.938 132.600,326.000 132.600 C 324.062 132.600,322.684 132.732,322.938 132.894 M179.700 148.296 C 180.965 148.375,183.035 148.375,184.300 148.296 C 185.565 148.216,184.530 148.151,182.000 148.151 C 179.470 148.151,178.435 148.216,179.700 148.296 M200.300 148.295 C 201.455 148.376,203.345 148.376,204.500 148.295 C 205.655 148.214,204.710 148.148,202.400 148.148 C 200.090 148.148,199.145 148.214,200.300 148.295 M163.507 148.690 C 164.226 148.779,165.306 148.777,165.907 148.686 C 166.508 148.595,165.920 148.522,164.600 148.524 C 163.280 148.526,162.788 148.601,163.507 148.690 M216.700 148.682 C 217.195 148.778,218.005 148.778,218.500 148.682 C 218.995 148.587,218.590 148.509,217.600 148.509 C 216.610 148.509,216.205 148.587,216.700 148.682 M148.400 149.195 C 147.190 149.341,149.530 149.376,153.600 149.274 C 157.670 149.173,161.075 149.024,161.167 148.945 C 161.446 148.702,150.751 148.912,148.400 149.195 M220.033 148.947 C 220.125 149.027,222.450 149.179,225.200 149.284 C 228.155 149.396,229.546 149.346,228.600 149.160 C 227.010 148.848,219.715 148.666,220.033 148.947 M139.300 149.876 C 139.685 149.976,140.315 149.976,140.700 149.876 C 141.085 149.775,140.770 149.693,140.000 149.693 C 139.230 149.693,138.915 149.775,139.300 149.876 M127.600 150.400 L 124.200 150.651 127.000 150.683 C 128.540 150.701,131.420 150.583,133.400 150.421 L 137.000 150.127 134.000 150.138 C 132.350 150.144,129.470 150.262,127.600 150.400 M239.600 150.414 C 241.030 150.575,243.190 150.699,244.400 150.690 C 246.551 150.674,246.538 150.668,243.800 150.387 C 242.260 150.229,240.100 150.104,239.000 150.111 C 237.118 150.121,237.154 150.139,239.600 150.414 M122.100 151.076 C 122.485 151.176,123.115 151.176,123.500 151.076 C 123.885 150.975,123.570 150.893,122.800 150.893 C 122.030 150.893,121.715 150.975,122.100 151.076 M109.000 152.009 C 107.881 152.166,108.849 152.204,111.200 152.097 C 113.510 151.991,115.475 151.836,115.567 151.753 C 115.824 151.517,111.242 151.697,109.000 152.009 M255.400 152.015 C 256.720 152.179,258.520 152.307,259.400 152.300 C 260.774 152.289,260.689 152.244,258.800 151.983 C 257.590 151.816,255.790 151.688,254.800 151.698 C 253.156 151.716,253.208 151.743,255.400 152.015 M97.272 153.216 C 95.661 153.385,94.245 153.622,94.125 153.742 C 93.781 154.086,99.729 153.533,100.400 153.159 C 100.730 152.975,100.820 152.843,100.600 152.866 C 100.380 152.890,98.882 153.047,97.272 153.216 M266.022 153.187 C 266.340 153.355,267.770 153.591,269.200 153.712 C 270.881 153.854,271.376 153.817,270.600 153.605 C 268.910 153.146,265.324 152.818,266.022 153.187 M85.917 154.770 C 84.881 154.915,83.921 155.145,83.784 155.283 C 83.520 155.547,85.912 155.303,88.600 154.792 C 90.676 154.397,88.701 154.381,85.917 154.770 M277.400 154.771 C 280.097 155.319,282.638 155.568,282.000 155.222 C 281.670 155.043,280.140 154.795,278.600 154.671 C 276.631 154.512,276.275 154.542,277.400 154.771 M77.600 156.228 L 74.600 156.753 77.400 156.537 C 78.940 156.418,80.470 156.164,80.800 155.972 C 81.523 155.553,81.406 155.562,77.600 156.228 M285.487 156.026 C 285.659 156.187,287.150 156.418,288.800 156.539 C 292.254 156.791,291.829 156.576,287.887 156.077 C 286.394 155.888,285.314 155.865,285.487 156.026 M69.707 157.576 C 68.777 157.728,67.907 157.960,67.774 158.092 C 67.392 158.474,70.958 157.938,71.380 157.549 C 71.589 157.357,71.679 157.223,71.580 157.250 C 71.481 157.278,70.638 157.424,69.707 157.576 M295.510 157.649 C 295.670 157.797,296.560 157.986,297.490 158.069 C 298.419 158.151,299.049 158.098,298.890 157.951 C 298.730 157.803,297.840 157.614,296.910 157.531 C 295.981 157.449,295.351 157.502,295.510 157.649 M61.200 159.093 C 60.430 159.183,59.655 159.399,59.477 159.572 C 59.180 159.860,63.281 159.382,64.200 159.021 C 64.685 158.830,63.116 158.867,61.200 159.093 M304.200 159.165 C 307.152 159.771,309.019 159.976,308.400 159.627 C 308.070 159.441,306.630 159.187,305.200 159.063 C 303.287 158.897,303.023 158.924,304.200 159.165 M311.477 160.416 C 311.655 160.583,312.970 160.818,314.400 160.939 C 317.334 161.186,316.938 160.982,313.477 160.463 C 312.199 160.271,311.299 160.250,311.477 160.416 M53.000 160.800 C 51.337 161.223,52.974 161.242,55.000 160.823 C 56.345 160.545,56.409 160.492,55.400 160.493 C 54.740 160.494,53.660 160.632,53.000 160.800 M47.871 162.100 C 47.246 162.558,47.198 163.850,47.299 177.600 L 47.410 192.600 47.505 177.561 L 47.600 162.522 48.500 162.088 C 48.995 161.849,49.209 161.642,48.976 161.627 C 48.744 161.612,48.246 161.825,47.871 162.100 M320.000 161.948 C 320.330 162.138,321.410 162.396,322.400 162.521 C 323.390 162.646,323.930 162.604,323.600 162.427 C 322.761 161.980,319.243 161.511,320.000 161.948 M326.400 163.136 C 326.730 163.342,327.990 163.634,329.200 163.784 C 330.410 163.935,331.760 164.143,332.200 164.248 C 332.825 164.397,332.868 164.356,332.400 164.064 C 332.070 163.858,330.810 163.566,329.600 163.416 C 328.390 163.265,327.040 163.057,326.600 162.952 C 325.975 162.803,325.932 162.844,326.400 163.136 M335.200 164.794 C 335.530 165.011,336.235 165.191,336.767 165.194 C 338.051 165.202,337.725 164.975,336.000 164.658 C 335.015 164.477,334.778 164.518,335.200 164.794 M337.314 180.200 C 337.317 181.300,337.395 181.703,337.487 181.095 C 337.579 180.486,337.577 179.586,337.482 179.095 C 337.387 178.603,337.311 179.100,337.314 180.200 M336.618 190.300 C 336.481 192.005,336.288 194.030,336.191 194.800 C 336.062 195.811,336.107 195.978,336.352 195.400 C 336.733 194.498,337.367 187.200,337.064 187.200 C 336.956 187.200,336.756 188.595,336.618 190.300 M48.293 200.800 C 48.409 202.230,48.651 203.670,48.829 204.000 C 49.221 204.722,48.811 200.140,48.382 199.000 C 48.217 198.560,48.177 199.370,48.293 200.800 M335.022 202.300 C 334.874 203.565,334.665 204.960,334.557 205.400 C 334.401 206.041,334.439 206.079,334.751 205.589 C 335.175 204.924,335.833 200.000,335.498 200.000 C 335.385 200.000,335.171 201.035,335.022 202.300 M333.857 208.300 C 333.748 208.685,333.555 209.630,333.428 210.400 C 333.138 212.149,333.760 210.821,334.130 208.900 C 334.393 207.534,334.195 207.099,333.857 208.300 M49.928 211.032 C 50.016 211.788,50.211 212.483,50.361 212.576 C 50.510 212.668,50.561 212.125,50.472 211.368 C 50.384 210.612,50.189 209.917,50.039 209.824 C 49.890 209.732,49.839 210.275,49.928 211.032 M332.113 215.441 C 331.867 216.518,331.729 217.462,331.806 217.540 C 332.029 217.762,332.863 214.390,332.704 213.912 C 332.626 213.677,332.360 214.365,332.113 215.441 M51.073 215.600 C 51.521 218.028,52.007 219.180,51.747 217.200 C 51.616 216.210,51.353 215.130,51.162 214.800 C 50.946 214.429,50.912 214.733,51.073 215.600 M330.840 219.840 C 330.610 220.673,330.494 221.427,330.582 221.515 C 330.670 221.603,330.930 220.993,331.160 220.160 C 331.390 219.327,331.506 218.573,331.418 218.485 C 331.330 218.397,331.070 219.007,330.840 219.840 M52.795 221.981 C 53.004 222.711,53.286 223.419,53.420 223.554 C 53.796 223.929,53.144 221.452,52.755 221.027 C 52.568 220.822,52.585 221.251,52.795 221.981 M329.244 224.844 C 328.998 225.551,328.866 226.200,328.952 226.285 C 329.038 226.371,329.309 225.862,329.556 225.156 C 329.802 224.449,329.934 223.800,329.848 223.715 C 329.762 223.629,329.491 224.138,329.244 224.844 M54.133 226.320 C 54.397 227.215,54.737 228.070,54.888 228.221 C 55.282 228.616,54.392 225.470,53.989 225.046 C 53.804 224.852,53.869 225.425,54.133 226.320 M327.667 229.180 C 327.433 229.851,327.327 230.400,327.431 230.400 C 327.701 230.400,328.456 228.322,328.257 228.124 C 328.167 228.033,327.901 228.508,327.667 229.180 M57.267 234.820 C 57.501 235.492,57.767 235.967,57.857 235.876 C 58.056 235.678,57.301 233.600,57.031 233.600 C 56.927 233.600,57.033 234.149,57.267 234.820 M323.578 239.058 C 323.357 239.639,323.064 240.297,322.926 240.519 C 322.789 240.742,322.866 240.806,323.099 240.663 C 323.539 240.390,324.500 238.000,324.169 238.000 C 324.065 238.000,323.799 238.476,323.578 239.058 M63.000 247.200 C 63.341 247.860,63.711 248.400,63.821 248.400 C 63.931 248.400,63.741 247.860,63.400 247.200 C 63.059 246.540,62.689 246.000,62.579 246.000 C 62.469 246.000,62.659 246.540,63.000 247.200 M317.800 250.400 C 317.459 251.060,317.269 251.600,317.379 251.600 C 317.489 251.600,317.859 251.060,318.200 250.400 C 318.541 249.740,318.731 249.200,318.621 249.200 C 318.511 249.200,318.141 249.740,317.800 250.400 M66.215 253.100 C 67.612 255.272,68.000 255.772,67.991 255.389 C 67.986 255.175,67.630 254.550,67.200 254.000 C 66.770 253.450,66.414 252.775,66.409 252.500 C 66.404 252.225,66.199 252.000,65.954 252.000 C 65.689 252.000,65.796 252.447,66.215 253.100 M314.911 255.300 C 314.129 256.311,313.863 256.932,314.336 256.640 C 314.810 256.347,315.757 254.800,315.463 254.800 C 315.372 254.800,315.124 255.025,314.911 255.300 M311.350 260.700 C 310.167 262.325,309.802 263.152,310.777 262.000 C 311.678 260.934,312.519 259.600,312.289 259.600 C 312.213 259.600,311.790 260.095,311.350 260.700 M72.436 262.500 C 73.151 263.545,73.801 264.400,73.882 264.400 C 74.153 264.400,73.246 263.008,72.188 261.800 C 71.392 260.892,71.452 261.062,72.436 262.500 M308.375 264.900 C 306.932 266.731,306.503 267.640,307.761 266.200 C 308.778 265.038,309.747 263.600,309.514 263.600 C 309.451 263.600,308.939 264.185,308.375 264.900 M74.714 265.804 C 74.941 266.247,75.548 266.966,76.063 267.402 C 76.967 268.166,76.965 268.152,76.006 266.997 C 74.413 265.079,74.279 264.955,74.714 265.804 M305.236 268.836 C 304.738 269.511,304.403 270.137,304.493 270.227 C 304.583 270.317,305.065 269.838,305.564 269.164 C 306.062 268.489,306.397 267.863,306.307 267.773 C 306.217 267.683,305.735 268.162,305.236 268.836 M300.270 274.908 C 297.095 278.588,297.027 278.698,299.593 276.000 C 302.168 273.293,304.260 270.787,303.927 270.808 C 303.857 270.812,302.211 272.657,300.270 274.908 M82.800 275.710 C 82.800 275.771,84.195 277.166,85.900 278.810 L 89.000 281.800 86.010 278.700 C 83.233 275.821,82.800 275.417,82.800 275.710 " stroke="none" fill="#a28f4d" fill-rule="evenodd"></path><path id="path4" d="M322.893 88.400 C 322.893 89.170,322.975 89.485,323.076 89.100 C 323.176 88.715,323.176 88.085,323.076 87.700 C 322.975 87.315,322.893 87.630,322.893 88.400 M272.900 89.612 C 271.561 90.151,271.811 90.424,273.200 89.940 C 273.860 89.710,274.400 89.449,274.400 89.361 C 274.400 89.124,273.913 89.205,272.900 89.612 M319.634 96.153 L 318.669 97.400 319.813 96.312 C 320.443 95.714,320.877 95.153,320.779 95.065 C 320.680 94.977,320.165 95.467,319.634 96.153 M82.800 95.831 C 82.800 96.101,84.878 96.856,85.076 96.657 C 85.167 96.567,84.692 96.301,84.020 96.067 C 83.349 95.833,82.800 95.727,82.800 95.831 M83.400 102.800 L 82.200 103.105 83.276 103.153 C 83.868 103.179,84.464 103.020,84.600 102.800 C 84.736 102.580,84.792 102.421,84.724 102.447 C 84.656 102.473,84.060 102.632,83.400 102.800 M323.200 109.994 C 323.530 110.211,324.235 110.391,324.767 110.394 C 326.051 110.402,325.725 110.175,324.000 109.858 C 323.015 109.677,322.778 109.718,323.200 109.994 M59.179 113.855 C 58.958 114.436,58.852 114.985,58.943 115.076 C 59.033 115.167,59.299 114.692,59.533 114.020 C 60.053 112.528,59.739 112.382,59.179 113.855 M126.480 116.395 C 125.754 116.567,125.047 116.820,124.909 116.958 C 124.524 117.343,127.348 116.742,127.780 116.347 C 127.989 116.156,128.079 116.018,127.980 116.041 C 127.881 116.063,127.206 116.223,126.480 116.395 M335.995 117.981 C 336.204 118.711,336.486 119.419,336.620 119.554 C 336.996 119.929,336.344 117.452,335.955 117.027 C 335.768 116.822,335.785 117.251,335.995 117.981 M112.000 119.618 C 111.562 119.915,111.724 119.952,112.600 119.756 C 114.071 119.427,114.390 119.198,113.367 119.206 C 112.945 119.209,112.330 119.395,112.000 119.618 M262.833 119.344 C 262.925 119.423,263.540 119.608,264.200 119.756 C 265.076 119.952,265.238 119.915,264.800 119.618 C 264.260 119.253,262.432 118.998,262.833 119.344 M92.645 123.928 C 92.533 124.108,92.973 124.177,93.621 124.082 C 94.270 123.987,94.800 123.840,94.800 123.755 C 94.800 123.450,92.843 123.607,92.645 123.928 M281.600 123.755 C 281.600 123.840,282.130 123.987,282.779 124.082 C 283.427 124.177,283.867 124.108,283.755 123.928 C 283.557 123.607,281.600 123.450,281.600 123.755 M87.000 125.200 L 85.800 125.505 86.876 125.553 C 87.468 125.579,88.064 125.420,88.200 125.200 C 88.336 124.980,88.392 124.821,88.324 124.847 C 88.256 124.873,87.660 125.032,87.000 125.200 M288.341 125.301 C 288.543 125.503,289.133 125.601,289.654 125.519 C 290.455 125.393,290.398 125.337,289.287 125.152 C 288.493 125.021,288.119 125.079,288.341 125.301 M75.400 128.000 L 74.200 128.305 75.276 128.353 C 75.868 128.379,76.464 128.220,76.600 128.000 C 76.736 127.780,76.792 127.621,76.724 127.647 C 76.656 127.673,76.060 127.832,75.400 128.000 M300.800 128.155 C 300.800 128.240,301.330 128.387,301.979 128.482 C 302.627 128.577,303.067 128.508,302.955 128.328 C 302.757 128.007,300.800 127.850,300.800 128.155 M307.424 129.639 C 307.517 129.789,308.212 129.984,308.968 130.072 C 309.725 130.161,310.268 130.110,310.176 129.961 C 310.083 129.811,309.388 129.616,308.632 129.528 C 307.875 129.439,307.332 129.490,307.424 129.639 M319.480 132.410 C 319.858 132.751,323.372 133.239,323.037 132.904 C 322.911 132.777,321.987 132.550,320.984 132.398 C 319.981 132.245,319.305 132.251,319.480 132.410 M179.200 147.857 C 182.121 148.112,209.706 148.188,207.800 147.935 C 206.700 147.789,199.500 147.685,191.800 147.702 C 184.100 147.720,178.430 147.790,179.200 147.857 M175.100 148.282 C 175.595 148.378,176.405 148.378,176.900 148.282 C 177.395 148.187,176.990 148.109,176.000 148.109 C 175.010 148.109,174.605 148.187,175.100 148.282 M159.900 148.682 C 160.395 148.778,161.205 148.778,161.700 148.682 C 162.195 148.587,161.790 148.509,160.800 148.509 C 159.810 148.509,159.405 148.587,159.900 148.682 M219.700 148.676 C 220.085 148.776,220.715 148.776,221.100 148.676 C 221.485 148.575,221.170 148.493,220.400 148.493 C 219.630 148.493,219.315 148.575,219.700 148.676 M148.305 149.083 C 148.802 149.179,149.522 149.175,149.905 149.075 C 150.287 148.975,149.880 148.896,149.000 148.901 C 148.120 148.905,147.807 148.987,148.305 149.083 M140.900 149.494 C 141.945 149.576,143.655 149.576,144.700 149.494 C 145.745 149.412,144.890 149.344,142.800 149.344 C 140.710 149.344,139.855 149.412,140.900 149.494 M231.091 149.489 C 231.801 149.577,233.061 149.579,233.891 149.492 C 234.721 149.405,234.140 149.333,232.600 149.331 C 231.060 149.329,230.381 149.400,231.091 149.489 M117.900 151.089 C 118.615 151.178,119.785 151.178,120.500 151.089 C 121.215 151.001,120.630 150.928,119.200 150.928 C 117.770 150.928,117.185 151.001,117.900 151.089 M249.300 151.087 C 249.905 151.178,250.895 151.178,251.500 151.087 C 252.105 150.995,251.610 150.920,250.400 150.920 C 249.190 150.920,248.695 150.995,249.300 151.087 M90.821 153.979 C 90.446 154.216,90.870 154.265,92.021 154.118 C 92.999 153.992,93.875 153.825,93.967 153.745 C 94.342 153.419,91.355 153.640,90.821 153.979 M272.305 153.883 C 272.802 153.979,273.522 153.975,273.905 153.875 C 274.287 153.775,273.880 153.696,273.000 153.701 C 272.120 153.705,271.807 153.787,272.305 153.883 M82.400 155.200 C 81.016 155.491,81.014 155.495,82.200 155.541 C 82.860 155.567,83.670 155.413,84.000 155.200 C 84.666 154.770,84.445 154.770,82.400 155.200 M282.021 155.221 C 282.555 155.560,285.542 155.781,285.167 155.455 C 285.075 155.375,284.199 155.208,283.221 155.082 C 282.070 154.935,281.646 154.984,282.021 155.221 M66.600 157.891 C 65.940 157.985,65.251 158.206,65.068 158.383 C 64.885 158.560,65.477 158.569,66.384 158.403 C 67.727 158.157,69.407 157.457,68.167 157.660 C 67.965 157.693,67.260 157.797,66.600 157.891 M299.160 158.120 C 299.346 158.306,300.106 158.396,300.849 158.319 C 302.167 158.183,302.158 158.175,300.510 157.980 C 299.581 157.871,298.973 157.933,299.160 158.120 M58.200 159.600 L 57.000 159.905 58.076 159.953 C 58.668 159.979,59.264 159.820,59.400 159.600 C 59.536 159.380,59.592 159.221,59.524 159.247 C 59.456 159.273,58.860 159.432,58.200 159.600 M309.300 159.876 C 309.685 159.976,310.315 159.976,310.700 159.876 C 311.085 159.775,310.770 159.693,310.000 159.693 C 309.230 159.693,308.915 159.775,309.300 159.876 M323.600 162.405 C 323.930 162.616,324.725 162.791,325.367 162.794 C 326.914 162.802,326.577 162.571,324.600 162.268 C 323.510 162.101,323.191 162.145,323.600 162.405 M337.769 173.000 C 337.770 177.620,337.828 179.455,337.899 177.078 C 337.970 174.701,337.969 170.921,337.898 168.678 C 337.827 166.435,337.769 168.380,337.769 173.000 M46.974 175.200 C 46.974 180.810,47.030 183.105,47.099 180.300 C 47.168 177.495,47.168 172.905,47.099 170.100 C 47.030 167.295,46.974 169.590,46.974 175.200 M47.724 196.600 C 47.726 197.920,47.801 198.412,47.890 197.693 C 47.979 196.974,47.977 195.894,47.886 195.293 C 47.795 194.692,47.722 195.280,47.724 196.600 M336.109 197.600 C 336.109 198.590,336.187 198.995,336.282 198.500 C 336.378 198.005,336.378 197.195,336.282 196.700 C 336.187 196.205,336.109 196.610,336.109 197.600 M48.800 205.776 C 48.800 206.533,48.938 207.238,49.107 207.343 C 49.276 207.447,49.348 206.828,49.265 205.966 C 49.081 204.032,48.800 203.918,48.800 205.776 M50.352 213.687 C 50.537 214.798,50.593 214.855,50.719 214.054 C 50.801 213.533,50.703 212.943,50.501 212.741 C 50.279 212.519,50.221 212.893,50.352 213.687 M296.575 279.300 L 295.400 280.600 296.700 279.425 C 297.415 278.779,298.000 278.194,298.000 278.125 C 298.000 277.816,297.670 278.088,296.575 279.300 M292.175 283.700 L 291.000 285.000 292.300 283.825 C 293.015 283.179,293.600 282.594,293.600 282.525 C 293.600 282.216,293.270 282.488,292.175 283.700 M94.800 287.677 C 94.800 287.757,95.925 288.796,97.300 289.987 C 98.675 291.177,99.350 291.649,98.800 291.036 C 97.803 289.924,94.800 287.403,94.800 287.677 M284.678 290.613 C 284.060 291.156,283.714 291.600,283.908 291.600 C 284.102 291.600,284.683 291.150,285.200 290.600 C 286.395 289.328,286.131 289.334,284.678 290.613 M280.200 294.639 L 277.800 296.877 280.300 294.799 C 282.495 292.974,283.072 292.398,282.700 292.401 C 282.645 292.401,281.520 293.408,280.200 294.639 M122.800 308.179 C 122.800 308.289,123.340 308.659,124.000 309.000 C 124.660 309.341,125.200 309.531,125.200 309.421 C 125.200 309.311,124.660 308.941,124.000 308.600 C 123.340 308.259,122.800 308.069,122.800 308.179 M134.800 314.189 C 134.800 314.506,137.700 315.633,137.928 315.405 C 138.041 315.292,138.035 315.200,137.916 315.200 C 137.796 315.200,137.046 314.928,136.249 314.595 C 135.452 314.262,134.800 314.079,134.800 314.189 M249.400 314.614 C 248.395 315.098,248.363 315.153,249.200 314.951 C 249.750 314.819,250.371 314.550,250.580 314.355 C 251.098 313.871,250.814 313.933,249.400 314.614 M245.700 316.012 C 244.506 316.492,244.556 316.736,245.800 316.498 C 246.350 316.393,246.800 316.148,246.800 315.953 C 246.800 315.759,246.755 315.611,246.700 315.625 C 246.645 315.639,246.195 315.813,245.700 316.012 M242.333 317.342 C 241.526 317.594,240.739 317.926,240.585 318.081 C 240.170 318.497,243.335 317.587,243.780 317.163 C 244.217 316.745,244.262 316.740,242.333 317.342 M143.000 317.600 C 143.440 317.789,144.070 317.944,144.400 317.944 C 144.778 317.944,144.704 317.817,144.200 317.600 C 143.760 317.411,143.130 317.256,142.800 317.256 C 142.422 317.256,142.496 317.383,143.000 317.600 M146.627 318.755 C 147.052 319.144,149.529 319.796,149.154 319.420 C 149.019 319.286,148.311 319.004,147.581 318.795 C 146.851 318.585,146.422 318.568,146.627 318.755 M151.646 320.180 C 151.781 320.314,152.489 320.596,153.219 320.805 C 153.949 321.015,154.378 321.032,154.173 320.845 C 153.748 320.456,151.271 319.804,151.646 320.180 M233.000 320.285 C 231.660 320.608,231.494 321.077,232.787 320.887 C 233.454 320.789,234.000 320.550,234.000 320.355 C 234.000 320.160,233.955 320.021,233.900 320.046 C 233.845 320.072,233.440 320.179,233.000 320.285 M156.251 321.578 C 156.657 321.945,159.460 322.526,159.103 322.169 C 158.971 322.038,158.197 321.780,157.383 321.596 C 156.568 321.412,156.059 321.404,156.251 321.578 M227.200 322.018 C 226.762 322.315,226.924 322.352,227.800 322.156 C 229.271 321.827,229.590 321.598,228.567 321.606 C 228.145 321.609,227.530 321.795,227.200 322.018 M162.624 323.239 C 162.717 323.389,163.412 323.584,164.168 323.672 C 164.925 323.761,165.468 323.710,165.376 323.561 C 165.283 323.411,164.588 323.216,163.832 323.128 C 163.075 323.039,162.532 323.090,162.624 323.239 M221.496 323.184 C 220.668 323.344,219.881 323.586,219.746 323.721 C 219.363 324.104,222.553 323.539,222.980 323.148 C 223.189 322.957,223.279 322.821,223.180 322.846 C 223.081 322.871,222.323 323.023,221.496 323.184 M170.600 324.797 C 171.364 325.128,174.314 325.355,173.967 325.056 C 173.875 324.977,172.900 324.809,171.800 324.682 C 170.513 324.533,170.085 324.574,170.600 324.797 M212.600 324.800 L 211.000 325.086 212.600 325.137 C 213.480 325.165,214.470 325.013,214.800 324.800 C 215.515 324.338,215.181 324.338,212.600 324.800 M202.252 326.037 C 200.081 326.216,198.209 326.458,198.092 326.575 C 197.749 326.918,205.743 326.325,206.400 325.959 C 206.730 325.775,206.820 325.644,206.600 325.668 C 206.380 325.692,204.423 325.858,202.252 326.037 M179.233 326.144 C 179.325 326.224,181.200 326.382,183.400 326.496 C 185.998 326.631,186.839 326.588,185.800 326.375 C 184.222 326.051,178.910 325.864,179.233 326.144 " stroke="none" fill="#d0b75c" fill-rule="evenodd"></path></g></svg>