<svg id="svg" version="1.1" xmlns="http://www.w3.org/2000/svg" xmlns:xlink="http://www.w3.org/1999/xlink" width="400" height="400" viewBox="0, 0, 400,400"><g id="svgg"><path id="path0" d="M188.400 238.779 C 187.850 238.967,185.851 239.138,183.957 239.160 C 179.139 239.216,169.959 239.972,169.000 240.393 C 168.560 240.585,166.400 240.953,164.200 241.210 C 162.000 241.467,160.020 241.816,159.800 241.985 C 159.580 242.155,158.414 242.419,157.210 242.572 C 156.005 242.726,154.835 242.994,154.610 243.168 C 154.384 243.343,153.030 243.708,151.600 243.980 C 150.170 244.252,148.820 244.615,148.600 244.785 C 148.380 244.956,147.480 245.225,146.600 245.384 C 145.720 245.542,144.820 245.810,144.600 245.978 C 144.380 246.147,143.302 246.504,142.205 246.772 C 141.108 247.040,140.028 247.401,139.805 247.574 C 139.582 247.748,138.866 248.018,138.214 248.174 C 137.562 248.330,136.266 248.805,135.336 249.229 C 134.405 249.653,133.364 250.000,133.022 250.000 C 132.680 250.000,132.400 250.160,132.400 250.357 C 132.400 250.553,131.905 250.834,131.300 250.982 C 129.536 251.414,115.126 258.715,114.863 259.310 C 114.788 259.480,114.158 259.892,113.463 260.224 C 111.052 261.378,110.000 262.046,110.000 262.422 C 110.000 262.630,109.817 262.800,109.592 262.800 C 109.135 262.800,106.396 264.799,102.741 267.800 C 101.401 268.900,100.026 269.980,99.685 270.200 C 98.175 271.175,89.978 279.750,89.772 280.569 C 89.556 281.431,100.238 292.400,101.294 292.400 C 101.585 292.400,105.918 295.827,107.634 297.414 C 107.982 297.736,108.402 298.000,108.566 298.000 C 108.731 298.000,109.634 298.630,110.574 299.400 C 111.514 300.170,112.407 300.800,112.558 300.800 C 112.710 300.800,113.778 301.475,114.931 302.300 C 117.541 304.167,118.336 304.677,119.600 305.295 C 120.150 305.564,120.704 305.929,120.832 306.106 C 121.241 306.672,133.245 312.827,137.400 314.600 C 140.592 315.963,142.724 316.739,144.000 317.003 C 144.770 317.162,145.582 317.438,145.805 317.617 C 146.028 317.795,147.108 318.160,148.205 318.428 C 149.302 318.696,150.380 319.046,150.600 319.206 C 150.820 319.365,151.720 319.625,152.600 319.784 C 153.480 319.942,154.380 320.210,154.600 320.378 C 154.820 320.547,156.170 320.898,157.600 321.158 C 159.030 321.419,160.560 321.798,161.000 322.002 C 161.893 322.415,164.533 322.978,169.600 323.836 C 171.470 324.152,173.810 324.593,174.800 324.815 C 181.689 326.362,203.638 326.357,210.400 324.807 C 211.390 324.580,213.910 324.136,216.000 323.820 C 220.342 323.165,224.414 322.318,225.000 321.947 C 225.220 321.808,226.705 321.465,228.300 321.183 C 229.895 320.902,231.200 320.544,231.200 320.387 C 231.200 320.231,232.100 319.984,233.200 319.838 C 234.300 319.692,235.200 319.427,235.200 319.250 C 235.200 319.072,236.235 318.699,237.500 318.419 C 238.765 318.140,239.982 317.764,240.205 317.585 C 240.428 317.406,241.463 317.045,242.505 316.782 C 243.547 316.520,244.400 316.146,244.400 315.953 C 244.400 315.759,244.688 315.600,245.040 315.600 C 246.780 315.600,259.439 309.161,263.654 306.132 C 264.673 305.399,265.629 304.800,265.778 304.800 C 265.926 304.800,266.827 304.215,267.778 303.500 C 268.730 302.785,269.920 301.930,270.423 301.600 C 270.927 301.270,272.472 300.055,273.857 298.900 C 275.242 297.745,276.491 296.800,276.632 296.800 C 276.942 296.800,286.653 288.137,289.218 285.572 C 290.223 284.567,291.340 283.632,291.699 283.494 C 292.059 283.356,292.672 282.738,293.061 282.121 C 293.450 281.505,294.189 280.562,294.703 280.026 L 295.638 279.053 291.719 275.112 C 289.564 272.945,286.840 270.413,285.668 269.486 C 284.495 268.559,282.448 266.937,281.119 265.882 C 278.123 263.504,272.796 259.945,270.400 258.721 C 269.850 258.439,269.162 257.983,268.872 257.705 C 268.582 257.428,267.907 257.091,267.372 256.957 C 266.837 256.823,266.400 256.589,266.400 256.437 C 266.400 256.285,265.725 255.919,264.900 255.624 C 264.075 255.329,263.310 254.975,263.200 254.838 C 262.901 254.466,258.516 252.400,258.025 252.400 C 257.791 252.400,257.600 252.234,257.600 252.032 C 257.600 251.829,257.015 251.538,256.300 251.386 C 255.585 251.233,254.550 250.866,254.000 250.570 C 252.250 249.630,249.262 248.400,248.722 248.398 C 248.435 248.396,247.731 248.150,247.158 247.851 C 246.585 247.552,245.189 247.085,244.057 246.814 C 242.924 246.542,241.910 246.178,241.804 246.006 C 241.697 245.833,240.802 245.571,239.814 245.423 C 238.827 245.275,237.927 245.005,237.814 244.823 C 237.702 244.641,236.393 244.268,234.905 243.994 C 233.417 243.719,232.020 243.358,231.800 243.192 C 231.580 243.026,230.410 242.759,229.200 242.599 C 227.990 242.439,226.711 242.156,226.358 241.971 C 226.004 241.785,224.024 241.435,221.958 241.193 C 219.891 240.951,217.914 240.600,217.565 240.414 C 217.215 240.227,213.885 239.876,210.165 239.633 C 206.444 239.391,202.230 239.106,200.800 239.001 C 194.804 238.559,189.334 238.461,188.400 238.779 " stroke="none" fill="#f3f3f3" fill-rule="evenodd"></path><path id="path1" d="M191.200 2.800 C 191.200 3.033,189.902 3.199,188.100 3.197 C 183.813 3.193,172.644 4.045,172.400 4.395 C 172.290 4.553,170.130 4.912,167.600 5.194 C 165.070 5.476,162.820 5.845,162.600 6.014 C 162.380 6.183,160.985 6.450,159.500 6.607 C 158.015 6.765,156.800 7.030,156.800 7.198 C 156.800 7.365,155.360 7.726,153.600 8.000 C 151.840 8.274,150.400 8.635,150.400 8.803 C 150.400 8.971,149.410 9.232,148.200 9.383 C 146.990 9.534,146.000 9.808,146.000 9.993 C 146.000 10.177,144.740 10.540,143.200 10.800 C 141.660 11.060,140.400 11.411,140.400 11.581 C 140.400 11.752,139.320 12.120,138.000 12.400 C 136.680 12.680,135.600 13.045,135.600 13.210 C 135.600 13.376,134.944 13.634,134.142 13.785 C 133.339 13.935,132.304 14.297,131.842 14.590 C 131.379 14.882,130.370 15.252,129.600 15.412 C 128.830 15.572,127.845 15.949,127.411 16.251 C 126.977 16.553,126.225 16.800,125.740 16.800 C 125.254 16.800,124.585 17.072,124.252 17.405 C 123.919 17.738,123.096 18.121,122.423 18.255 C 121.750 18.390,121.200 18.629,121.200 18.787 C 121.200 18.944,120.480 19.289,119.600 19.553 C 118.720 19.816,118.000 20.191,118.000 20.384 C 118.000 20.578,117.450 20.857,116.779 21.005 C 115.384 21.311,108.514 24.693,108.176 25.239 C 108.053 25.438,107.603 25.600,107.176 25.600 C 106.749 25.600,106.400 25.768,106.400 25.974 C 106.400 26.180,105.770 26.576,105.000 26.854 C 104.230 27.133,103.600 27.471,103.600 27.606 C 103.600 27.740,102.970 28.098,102.200 28.400 C 101.430 28.702,100.800 29.096,100.800 29.275 C 100.800 29.454,100.524 29.600,100.187 29.600 C 99.851 29.600,99.476 29.859,99.354 30.176 C 99.233 30.492,98.596 30.869,97.940 31.013 C 97.283 31.157,96.653 31.517,96.540 31.813 C 96.426 32.109,95.796 32.469,95.140 32.613 C 94.483 32.757,93.849 33.128,93.730 33.438 C 93.612 33.747,93.273 34.000,92.977 34.000 C 92.682 34.000,92.296 34.225,92.120 34.501 C 91.944 34.776,91.260 35.271,90.600 35.601 C 89.278 36.261,89.157 36.342,87.342 37.794 C 86.650 38.347,85.885 38.800,85.642 38.800 C 85.399 38.800,85.200 38.984,85.200 39.210 C 85.200 39.435,84.750 39.791,84.200 40.000 C 83.650 40.209,83.200 40.553,83.200 40.763 C 83.200 40.974,82.795 41.274,82.300 41.430 C 81.805 41.587,81.165 42.049,80.877 42.457 C 80.590 42.866,80.179 43.200,79.964 43.200 C 79.749 43.200,79.045 43.740,78.400 44.400 C 77.755 45.060,77.086 45.603,76.913 45.607 C 76.741 45.611,76.176 46.061,75.658 46.607 C 75.140 47.153,74.578 47.600,74.409 47.600 C 74.104 47.600,73.048 48.554,67.071 54.229 C 65.350 55.863,63.845 57.200,63.727 57.200 C 63.454 57.200,61.958 58.567,60.072 60.539 C 59.262 61.385,58.285 62.370,57.900 62.728 C 57.515 63.085,57.200 63.505,57.200 63.660 C 57.200 63.815,55.895 65.305,54.300 66.971 C 50.817 70.609,48.400 73.389,48.400 73.756 C 48.400 73.904,47.770 74.603,47.000 75.310 C 46.230 76.016,45.600 76.731,45.600 76.897 C 45.600 77.064,45.317 77.515,44.971 77.900 C 43.586 79.441,42.401 81.017,42.400 81.319 C 42.400 81.495,41.950 82.055,41.400 82.565 C 40.850 83.075,40.400 83.695,40.400 83.942 C 40.400 84.190,40.040 84.618,39.600 84.893 C 39.160 85.168,38.800 85.541,38.800 85.723 C 38.800 85.905,38.350 86.643,37.800 87.364 C 37.250 88.086,36.800 88.884,36.800 89.138 C 36.800 89.392,36.632 89.600,36.427 89.600 C 36.222 89.600,35.946 89.939,35.815 90.352 C 35.684 90.766,35.225 91.531,34.796 92.052 C 33.543 93.573,33.431 93.738,32.801 95.000 C 32.471 95.660,32.111 96.290,32.000 96.400 C 31.889 96.510,31.529 97.140,31.199 97.800 C 30.870 98.460,30.420 99.219,30.200 99.486 C 29.980 99.753,29.613 100.203,29.385 100.486 C 29.157 100.769,28.717 101.630,28.408 102.400 C 28.099 103.170,27.745 103.890,27.622 104.000 C 27.499 104.110,27.129 104.740,26.800 105.400 C 26.471 106.060,26.109 106.690,25.997 106.800 C 25.582 107.205,23.600 111.428,23.600 111.906 C 23.600 112.178,23.457 112.400,23.283 112.400 C 22.938 112.400,20.800 116.844,20.800 117.560 C 20.800 117.802,20.659 118.000,20.487 118.000 C 20.315 118.000,19.935 118.810,19.643 119.800 C 19.351 120.790,18.972 121.600,18.800 121.600 C 18.629 121.600,18.371 122.230,18.226 123.000 C 18.082 123.770,17.805 124.400,17.611 124.400 C 17.416 124.400,17.036 125.390,16.765 126.600 C 16.494 127.810,16.134 128.800,15.965 128.800 C 15.796 128.800,15.436 129.790,15.165 131.000 C 14.894 132.210,14.536 133.200,14.368 133.200 C 14.201 133.200,13.937 133.785,13.782 134.500 C 13.626 135.215,13.358 135.891,13.186 136.001 C 13.013 136.112,12.637 137.372,12.349 138.801 C 12.062 140.231,11.694 141.495,11.532 141.612 C 11.370 141.729,11.008 143.034,10.727 144.512 C 10.447 145.990,10.092 147.200,9.938 147.200 C 9.784 147.200,9.534 148.190,9.383 149.400 C 9.232 150.610,8.967 151.600,8.795 151.600 C 8.623 151.600,8.253 153.175,7.971 155.100 C 7.690 157.025,7.335 158.690,7.184 158.800 C 6.737 159.124,4.864 170.618,4.826 173.267 C 4.812 174.293,4.639 175.193,4.442 175.267 C 2.948 175.823,2.884 220.706,4.372 224.200 C 4.560 224.640,4.929 227.160,5.193 229.800 C 5.457 232.440,5.812 234.780,5.981 235.000 C 6.151 235.220,6.406 236.560,6.547 237.978 C 6.688 239.395,6.946 240.655,7.120 240.778 C 7.293 240.900,7.669 242.424,7.955 244.165 C 8.240 245.905,8.628 247.615,8.816 247.965 C 9.005 248.314,9.269 249.455,9.404 250.500 C 9.539 251.545,9.793 252.400,9.968 252.400 C 10.143 252.400,10.518 253.750,10.800 255.400 C 11.082 257.050,11.439 258.400,11.593 258.400 C 11.747 258.400,12.101 259.435,12.381 260.700 C 12.660 261.965,13.033 263.180,13.209 263.400 C 13.385 263.620,13.655 264.475,13.809 265.300 C 13.963 266.125,14.236 266.800,14.416 266.800 C 14.596 266.800,14.964 267.790,15.235 269.000 C 15.506 270.210,15.864 271.200,16.032 271.200 C 16.199 271.200,16.458 271.785,16.607 272.500 C 16.757 273.215,17.102 274.160,17.376 274.600 C 17.650 275.040,17.995 275.895,18.144 276.500 C 18.293 277.105,18.575 277.600,18.771 277.600 C 18.966 277.600,19.357 278.500,19.639 279.600 C 19.921 280.700,20.283 281.600,20.444 281.600 C 20.605 281.600,20.852 282.128,20.994 282.772 C 21.136 283.417,21.498 284.150,21.800 284.400 C 22.102 284.650,22.464 285.383,22.606 286.028 C 22.748 286.672,23.000 287.200,23.168 287.200 C 23.335 287.200,23.710 287.920,24.000 288.800 C 24.290 289.680,24.665 290.400,24.832 290.400 C 25.000 290.400,25.255 290.940,25.400 291.600 C 25.545 292.260,25.817 292.800,26.005 292.800 C 26.193 292.800,26.473 293.205,26.628 293.700 C 26.783 294.195,27.233 295.013,27.627 295.519 C 28.022 296.024,28.461 296.969,28.604 297.619 C 28.747 298.268,29.029 298.800,29.232 298.800 C 29.434 298.800,29.600 299.076,29.600 299.413 C 29.600 299.749,29.859 300.124,30.176 300.246 C 30.492 300.367,30.866 300.991,31.007 301.631 C 31.147 302.271,31.473 302.931,31.731 303.098 C 32.200 303.400,32.857 304.429,33.903 306.500 C 34.209 307.105,34.592 307.600,34.755 307.600 C 34.917 307.600,35.295 308.223,35.593 308.983 C 35.892 309.744,36.376 310.459,36.668 310.571 C 36.961 310.683,37.200 311.051,37.200 311.387 C 37.200 311.724,37.348 312.000,37.529 312.000 C 37.899 312.000,40.000 315.080,40.000 315.622 C 40.000 315.814,40.360 316.165,40.800 316.400 C 41.240 316.635,41.600 317.092,41.600 317.414 C 41.600 317.736,41.784 318.000,42.009 318.000 C 42.233 318.000,42.638 318.495,42.909 319.100 C 43.179 319.705,43.895 320.621,44.500 321.136 C 45.105 321.650,45.600 322.259,45.600 322.490 C 45.600 322.720,46.005 323.317,46.500 323.816 C 46.995 324.316,47.588 324.967,47.818 325.262 C 49.913 327.958,52.147 330.531,53.716 332.056 C 54.752 333.063,55.600 334.014,55.600 334.169 C 55.600 334.518,65.445 344.400,65.793 344.400 C 65.931 344.400,67.214 345.570,68.644 347.000 C 70.074 348.430,71.369 349.605,71.522 349.611 C 71.798 349.621,74.622 351.995,76.242 353.578 C 76.705 354.030,77.274 354.400,77.507 354.400 C 77.739 354.400,78.350 354.895,78.864 355.500 C 79.379 356.105,80.295 356.821,80.900 357.091 C 81.505 357.362,82.000 357.767,82.000 357.991 C 82.000 358.216,82.264 358.400,82.586 358.400 C 82.908 358.400,83.365 358.760,83.600 359.200 C 83.835 359.640,84.218 360.000,84.451 360.000 C 84.684 360.000,85.286 360.315,85.791 360.700 C 86.295 361.085,87.118 361.670,87.620 362.000 C 88.121 362.330,88.858 362.910,89.256 363.290 C 89.654 363.669,90.449 364.097,91.022 364.241 C 91.595 364.385,92.159 364.750,92.275 365.051 C 92.391 365.353,92.658 365.600,92.869 365.600 C 93.081 365.600,93.843 366.050,94.564 366.600 C 95.286 367.150,96.084 367.600,96.338 367.600 C 96.592 367.600,96.800 367.746,96.800 367.925 C 96.800 368.104,97.430 368.498,98.200 368.800 C 98.970 369.102,99.600 369.496,99.600 369.675 C 99.600 369.854,99.876 370.000,100.213 370.000 C 100.549 370.000,100.929 370.270,101.055 370.600 C 101.182 370.930,101.477 371.200,101.711 371.200 C 102.417 371.200,107.200 373.641,107.200 374.002 C 107.200 374.186,107.740 374.455,108.400 374.600 C 109.060 374.745,109.600 375.000,109.600 375.168 C 109.600 375.335,110.320 375.710,111.200 376.000 C 112.080 376.290,112.800 376.665,112.800 376.832 C 112.800 377.000,113.340 377.255,114.000 377.400 C 114.660 377.545,115.200 377.822,115.200 378.016 C 115.200 378.209,115.920 378.584,116.800 378.847 C 117.680 379.111,118.400 379.444,118.400 379.588 C 118.400 379.731,119.300 380.079,120.400 380.361 C 121.500 380.643,122.400 381.037,122.400 381.237 C 122.400 381.437,122.715 381.601,123.100 381.603 C 123.485 381.604,124.337 381.959,124.994 382.392 C 125.650 382.825,126.955 383.294,127.894 383.435 C 128.832 383.576,129.600 383.843,129.600 384.030 C 129.600 384.217,130.365 384.564,131.300 384.801 C 132.970 385.226,133.806 385.538,136.200 386.633 C 136.860 386.935,138.300 387.372,139.400 387.605 C 140.500 387.837,141.940 388.271,142.600 388.568 C 143.260 388.865,144.655 389.230,145.700 389.379 C 146.745 389.527,147.600 389.797,147.600 389.978 C 147.600 390.160,148.590 390.432,149.800 390.583 C 151.010 390.734,152.000 390.999,152.000 391.171 C 152.000 391.343,153.620 391.716,155.600 392.000 C 157.580 392.284,159.200 392.649,159.200 392.811 C 159.200 392.974,160.415 393.236,161.900 393.395 C 163.385 393.554,164.690 393.828,164.801 394.004 C 164.911 394.181,167.521 394.555,170.601 394.834 C 173.680 395.114,176.290 395.472,176.400 395.631 C 177.381 397.040,220.893 397.034,224.200 395.624 C 224.640 395.437,227.250 395.062,230.000 394.792 C 232.750 394.522,235.090 394.162,235.200 393.992 C 235.310 393.822,236.615 393.554,238.100 393.395 C 239.585 393.236,240.800 392.983,240.800 392.831 C 240.800 392.679,242.420 392.315,244.400 392.022 C 246.380 391.729,248.000 391.359,248.000 391.200 C 248.000 391.041,248.931 390.801,250.070 390.666 C 251.208 390.531,252.243 390.259,252.370 390.061 C 252.496 389.863,253.905 389.470,255.500 389.187 C 257.095 388.903,258.400 388.540,258.400 388.379 C 258.400 388.218,259.570 387.854,261.000 387.570 C 262.430 387.286,263.600 386.922,263.600 386.762 C 263.600 386.601,264.320 386.349,265.200 386.200 C 266.080 386.051,266.800 385.794,266.800 385.629 C 266.800 385.463,267.790 385.090,269.000 384.800 C 270.210 384.510,271.200 384.121,271.200 383.936 C 271.200 383.751,271.522 383.600,271.915 383.600 C 272.309 383.600,273.298 383.260,274.114 382.844 C 274.930 382.428,276.049 381.974,276.599 381.836 C 277.150 381.698,277.600 381.408,277.600 381.192 C 277.600 380.977,277.902 380.800,278.272 380.800 C 279.204 380.800,281.600 379.901,281.600 379.551 C 281.600 379.393,282.128 379.148,282.772 379.006 C 283.417 378.864,284.159 378.490,284.421 378.174 C 284.683 377.858,285.313 377.600,285.820 377.600 C 286.328 377.600,286.986 377.357,287.282 377.060 C 287.579 376.764,288.537 376.288,289.411 376.004 C 290.285 375.719,291.144 375.242,291.320 374.943 C 291.496 374.645,291.901 374.400,292.220 374.400 C 292.539 374.400,292.800 374.227,292.800 374.016 C 292.800 373.805,293.520 373.416,294.400 373.153 C 295.280 372.889,296.000 372.555,296.000 372.411 C 296.000 372.267,296.630 371.902,297.400 371.600 C 298.170 371.298,298.800 370.904,298.800 370.725 C 298.800 370.546,299.042 370.400,299.339 370.400 C 299.635 370.400,300.293 370.040,300.800 369.600 C 301.307 369.160,301.952 368.800,302.233 368.800 C 302.513 368.800,302.986 368.575,303.282 368.300 C 304.276 367.379,306.363 366.000,306.764 366.000 C 306.982 366.000,307.304 365.764,307.480 365.477 C 307.656 365.189,308.372 364.722,309.071 364.440 C 309.770 364.158,310.440 363.673,310.559 363.363 C 310.678 363.054,311.051 362.800,311.387 362.800 C 311.724 362.800,312.000 362.616,312.000 362.390 C 312.000 362.165,312.455 361.807,313.011 361.596 C 314.014 361.214,314.548 360.844,316.029 359.500 C 316.453 359.115,316.974 358.800,317.186 358.800 C 317.398 358.800,317.765 358.440,318.000 358.000 C 318.235 357.560,318.694 357.200,319.018 357.200 C 319.342 357.200,319.916 356.840,320.293 356.400 C 320.670 355.960,321.171 355.600,321.408 355.600 C 321.644 355.600,322.279 355.068,322.819 354.417 C 323.358 353.766,324.015 353.226,324.277 353.217 C 324.540 353.208,324.990 352.882,325.277 352.493 C 325.565 352.104,326.250 351.495,326.800 351.139 C 327.350 350.784,328.573 349.752,329.517 348.846 C 330.461 347.941,331.329 347.200,331.445 347.200 C 331.718 347.200,347.200 331.722,347.200 331.448 C 347.200 331.334,348.100 330.287,349.200 329.122 C 350.300 327.956,351.200 326.896,351.200 326.766 C 351.200 326.636,351.875 325.799,352.700 324.905 C 353.525 324.011,354.523 322.857,354.917 322.340 C 355.311 321.823,356.076 320.860,356.617 320.200 C 357.157 319.540,357.599 318.871,357.600 318.714 C 357.600 318.556,358.137 317.836,358.793 317.114 C 360.763 314.945,361.200 314.411,361.200 314.173 C 361.200 314.049,361.650 313.357,362.200 312.636 C 362.750 311.914,363.200 311.116,363.200 310.862 C 363.200 310.608,363.368 310.400,363.573 310.400 C 363.778 310.400,364.060 310.041,364.199 309.602 C 364.338 309.164,364.666 308.579,364.927 308.302 C 365.721 307.461,367.600 304.444,367.600 304.009 C 367.600 303.784,367.758 303.600,367.951 303.600 C 368.145 303.600,368.543 303.015,368.837 302.300 C 369.130 301.585,369.515 300.820,369.693 300.600 C 369.870 300.380,370.360 299.780,370.783 299.267 C 371.205 298.754,371.663 297.824,371.800 297.201 C 371.937 296.577,372.285 295.976,372.573 295.866 C 372.861 295.755,373.224 295.157,373.380 294.536 C 373.536 293.916,373.786 293.316,373.936 293.204 C 374.356 292.889,376.400 288.651,376.400 288.094 C 376.400 287.822,376.577 287.600,376.792 287.600 C 377.008 287.600,377.298 287.150,377.436 286.600 C 377.574 286.050,377.847 285.600,378.043 285.600 C 378.240 285.600,378.400 285.357,378.400 285.060 C 378.400 284.762,378.829 283.712,379.354 282.725 C 379.878 281.739,380.433 280.362,380.586 279.666 C 380.738 278.970,381.015 278.400,381.200 278.400 C 381.385 278.400,381.651 277.878,381.791 277.239 C 381.932 276.601,382.396 275.392,382.823 274.554 C 383.250 273.716,383.600 272.709,383.600 272.315 C 383.600 271.922,383.751 271.600,383.936 271.600 C 384.121 271.600,384.510 270.610,384.800 269.400 C 385.090 268.190,385.463 267.200,385.629 267.200 C 385.794 267.200,386.051 266.480,386.200 265.600 C 386.349 264.720,386.610 264.000,386.781 264.000 C 386.951 264.000,387.321 262.915,387.602 261.588 C 387.884 260.262,388.249 259.094,388.413 258.992 C 388.577 258.890,388.945 257.636,389.229 256.204 C 389.514 254.772,389.883 253.600,390.049 253.600 C 390.215 253.600,390.461 252.745,390.596 251.700 C 390.731 250.655,390.995 249.514,391.184 249.165 C 391.372 248.815,391.758 247.150,392.041 245.465 C 392.324 243.779,392.680 242.400,392.831 242.400 C 392.983 242.400,393.235 241.185,393.393 239.700 C 393.550 238.215,393.825 236.820,394.003 236.600 C 394.181 236.380,394.559 234.040,394.842 231.400 C 395.124 228.760,395.476 226.510,395.624 226.400 C 395.974 226.139,396.807 214.787,396.803 210.324 C 396.801 208.412,396.980 206.736,397.200 206.600 C 397.441 206.451,397.600 203.663,397.600 199.576 C 397.600 195.325,397.451 192.800,397.200 192.800 C 396.965 192.800,396.800 191.403,396.800 189.408 C 396.800 184.606,396.028 173.952,395.611 173.000 C 395.418 172.560,395.043 170.130,394.777 167.600 C 394.511 165.070,394.155 162.820,393.986 162.600 C 393.817 162.380,393.550 160.985,393.393 159.500 C 393.235 158.015,392.977 156.800,392.817 156.800 C 392.658 156.800,392.298 155.495,392.018 153.900 C 391.737 152.305,391.368 150.820,391.198 150.600 C 391.028 150.380,390.763 149.255,390.607 148.100 C 390.452 146.945,390.178 146.000,389.999 146.000 C 389.819 146.000,389.460 144.740,389.200 143.200 C 388.940 141.660,388.589 140.400,388.419 140.400 C 388.248 140.400,387.880 139.320,387.600 138.000 C 387.320 136.680,386.955 135.600,386.790 135.600 C 386.624 135.600,386.363 134.925,386.209 134.100 C 386.055 133.275,385.797 132.420,385.636 132.200 C 385.476 131.980,385.098 130.990,384.796 130.000 C 384.495 129.010,384.012 127.845,383.724 127.411 C 383.436 126.977,383.200 126.225,383.200 125.740 C 383.200 125.254,382.952 124.609,382.649 124.306 C 382.346 124.003,381.971 123.180,381.817 122.477 C 381.663 121.775,381.387 121.200,381.205 121.200 C 381.023 121.200,380.643 120.300,380.361 119.200 C 380.079 118.100,379.732 117.200,379.588 117.200 C 379.445 117.200,379.090 116.480,378.800 115.600 C 378.510 114.720,378.135 114.000,377.968 114.000 C 377.800 114.000,377.545 113.460,377.400 112.800 C 377.255 112.140,376.978 111.600,376.784 111.600 C 376.591 111.600,376.216 110.880,375.953 110.000 C 375.689 109.120,375.322 108.400,375.137 108.400 C 374.952 108.400,374.800 108.143,374.800 107.829 C 374.800 107.514,374.567 107.019,374.283 106.729 C 373.999 106.438,373.527 105.615,373.235 104.900 C 372.942 104.185,372.559 103.600,372.383 103.600 C 372.207 103.600,371.942 103.048,371.794 102.373 C 371.646 101.698,371.283 101.053,370.987 100.940 C 370.691 100.826,370.334 100.208,370.193 99.567 C 370.052 98.925,369.804 98.400,369.642 98.400 C 369.481 98.400,369.041 97.815,368.666 97.100 C 368.290 96.385,367.541 95.080,367.001 94.200 C 366.461 93.320,365.904 92.285,365.763 91.900 C 365.622 91.515,365.343 91.200,365.143 91.200 C 364.944 91.200,364.609 90.750,364.400 90.200 C 364.191 89.650,363.879 89.200,363.708 89.200 C 363.536 89.200,363.139 88.622,362.826 87.915 C 362.514 87.208,361.840 86.243,361.329 85.769 C 360.818 85.296,360.400 84.705,360.400 84.458 C 360.400 84.210,360.040 83.782,359.600 83.507 C 359.160 83.232,358.800 82.779,358.800 82.500 C 358.800 82.221,358.440 81.684,358.000 81.307 C 357.560 80.930,357.200 80.399,357.200 80.125 C 357.200 79.852,356.840 79.435,356.400 79.200 C 355.960 78.965,355.600 78.524,355.600 78.221 C 355.600 77.919,355.060 77.217,354.400 76.661 C 353.740 76.106,353.200 75.475,353.200 75.260 C 353.200 75.044,352.660 74.358,352.000 73.735 C 351.340 73.112,350.800 72.458,350.800 72.282 C 350.800 72.106,349.900 71.062,348.800 69.962 C 347.700 68.862,346.800 67.835,346.800 67.681 C 346.800 67.526,345.796 66.410,344.569 65.200 C 343.343 63.990,342.038 62.668,341.670 62.262 C 340.028 60.451,333.230 53.963,329.968 51.093 C 325.897 47.511,325.022 46.800,324.685 46.800 C 324.500 46.800,323.894 46.260,323.339 45.600 C 322.783 44.940,322.141 44.400,321.910 44.400 C 321.680 44.400,321.093 43.995,320.605 43.500 C 319.551 42.429,317.492 40.834,316.090 40.000 C 315.535 39.670,314.638 39.002,314.098 38.515 C 313.557 38.028,312.594 37.399,311.957 37.117 C 311.321 36.835,310.800 36.464,310.800 36.292 C 310.800 36.121,310.350 35.809,309.800 35.600 C 309.250 35.391,308.800 35.056,308.800 34.857 C 308.800 34.657,308.485 34.387,308.100 34.258 C 307.715 34.129,306.257 33.298,304.860 32.411 C 303.463 31.525,302.158 30.800,301.960 30.800 C 301.762 30.800,301.600 30.620,301.600 30.400 C 301.600 30.180,301.352 30.000,301.049 30.000 C 300.746 30.000,300.282 29.739,300.017 29.420 C 299.752 29.102,298.875 28.626,298.068 28.364 C 297.261 28.102,296.464 27.656,296.298 27.375 C 296.131 27.093,295.456 26.744,294.798 26.599 C 294.139 26.455,293.600 26.174,293.600 25.976 C 293.600 25.778,293.150 25.502,292.600 25.364 C 292.050 25.226,291.600 24.953,291.600 24.757 C 291.600 24.560,291.375 24.400,291.100 24.401 C 290.549 24.402,283.123 20.762,282.795 20.330 C 282.682 20.181,281.737 19.845,280.695 19.582 C 279.653 19.320,278.800 18.955,278.800 18.771 C 278.800 18.587,278.170 18.318,277.400 18.174 C 276.630 18.029,276.000 17.765,276.000 17.587 C 276.000 17.408,275.325 17.053,274.500 16.797 C 273.675 16.540,272.460 16.090,271.800 15.796 C 271.140 15.502,270.072 15.130,269.427 14.969 C 268.781 14.808,267.791 14.435,267.227 14.141 C 266.662 13.846,265.872 13.604,265.471 13.602 C 265.071 13.601,264.495 13.352,264.191 13.048 C 263.888 12.745,262.776 12.367,261.720 12.209 C 260.664 12.051,259.705 11.768,259.588 11.579 C 259.471 11.391,258.166 11.008,256.688 10.727 C 255.210 10.447,254.000 10.085,254.000 9.923 C 254.000 9.760,253.100 9.508,252.000 9.362 C 250.900 9.216,250.000 8.959,250.000 8.790 C 250.000 8.621,248.470 8.255,246.600 7.977 C 244.730 7.699,243.200 7.341,243.200 7.182 C 243.200 7.023,241.985 6.765,240.500 6.607 C 239.015 6.450,237.616 6.171,237.391 5.987 C 237.167 5.804,235.007 5.443,232.591 5.186 C 230.176 4.929,227.840 4.565,227.400 4.377 C 226.440 3.966,216.594 3.200,212.277 3.200 C 210.492 3.200,209.200 3.032,209.200 2.800 C 209.200 2.545,205.933 2.400,200.200 2.400 C 194.467 2.400,191.200 2.545,191.200 2.800 M88.730 73.593 C 88.802 73.806,89.747 74.098,90.830 74.242 C 91.914 74.385,92.800 74.636,92.800 74.799 C 92.800 74.963,93.925 75.316,95.300 75.586 C 96.675 75.855,97.980 76.212,98.200 76.380 C 98.420 76.547,99.498 76.904,100.595 77.172 C 101.692 77.440,102.772 77.805,102.995 77.983 C 103.218 78.162,104.030 78.439,104.800 78.600 C 105.570 78.761,106.380 79.020,106.600 79.176 C 106.820 79.332,107.810 79.680,108.800 79.948 C 110.571 80.429,111.422 80.749,113.800 81.829 C 114.460 82.129,115.900 82.586,117.000 82.845 C 118.100 83.104,119.182 83.456,119.405 83.628 C 119.628 83.800,120.663 84.155,121.705 84.418 C 122.747 84.680,123.600 85.038,123.600 85.212 C 123.600 85.387,124.319 85.651,125.198 85.800 C 126.077 85.948,126.885 86.214,126.993 86.389 C 127.102 86.565,127.868 86.833,128.696 86.984 C 129.523 87.135,130.560 87.484,131.000 87.760 C 131.440 88.035,132.700 88.500,133.800 88.792 C 134.900 89.085,135.980 89.455,136.200 89.616 C 136.420 89.776,137.140 90.024,137.800 90.165 C 139.842 90.604,145.289 93.533,145.843 94.491 C 146.132 94.991,146.597 95.850,146.876 96.400 C 147.155 96.950,147.567 97.528,147.792 97.685 C 148.547 98.213,148.289 105.609,147.454 107.400 C 146.632 109.161,143.714 112.400,142.949 112.400 C 142.683 112.400,141.955 112.653,141.332 112.963 C 139.122 114.062,138.170 114.374,135.600 114.842 C 134.170 115.102,132.820 115.452,132.600 115.620 C 132.380 115.788,131.300 116.055,130.200 116.213 C 129.100 116.371,128.020 116.637,127.800 116.803 C 127.580 116.969,125.780 117.328,123.800 117.600 C 121.820 117.872,120.020 118.237,119.800 118.412 C 119.580 118.586,117.870 118.948,116.000 119.215 C 114.130 119.482,112.420 119.842,112.200 120.013 C 111.980 120.185,110.900 120.455,109.800 120.613 C 108.700 120.771,107.620 121.032,107.400 121.192 C 107.180 121.352,105.560 121.719,103.800 122.007 C 102.040 122.296,100.510 122.645,100.400 122.784 C 100.290 122.922,98.760 123.270,97.000 123.557 C 95.240 123.844,93.620 124.217,93.400 124.386 C 93.180 124.555,92.014 124.819,90.810 124.972 C 89.605 125.126,88.435 125.396,88.210 125.573 C 87.984 125.749,86.315 126.120,84.500 126.396 C 82.685 126.672,81.200 127.027,81.200 127.184 C 81.200 127.342,79.662 127.710,77.782 128.003 C 75.902 128.295,74.272 128.684,74.158 128.867 C 73.870 129.333,67.340 129.285,66.495 128.810 C 66.113 128.596,65.170 128.141,64.400 127.799 C 61.325 126.436,60.850 125.983,59.573 123.200 C 59.320 122.650,58.953 121.887,58.757 121.505 C 58.561 121.123,58.400 119.456,58.400 117.800 C 58.400 116.144,58.561 114.477,58.757 114.095 C 58.953 113.713,59.320 112.950,59.573 112.400 C 60.862 109.591,61.668 108.783,64.400 107.561 C 64.950 107.315,65.693 106.966,66.051 106.784 C 66.409 106.603,67.399 106.329,68.251 106.175 C 69.103 106.021,69.980 105.763,70.200 105.601 C 70.420 105.438,71.860 105.078,73.400 104.800 C 74.940 104.522,76.380 104.169,76.600 104.015 C 76.820 103.861,78.530 103.501,80.400 103.215 C 82.270 102.929,83.980 102.556,84.200 102.386 C 84.420 102.216,85.637 101.949,86.905 101.792 C 88.173 101.635,89.304 101.356,89.417 101.172 C 89.531 100.988,90.744 100.703,92.112 100.540 C 93.480 100.377,94.240 100.169,93.800 100.078 C 93.360 99.988,92.820 99.781,92.600 99.619 C 92.380 99.457,91.300 99.088,90.200 98.800 C 89.100 98.512,88.020 98.145,87.800 97.984 C 87.580 97.824,86.776 97.559,86.013 97.395 C 85.250 97.232,84.350 96.952,84.013 96.774 C 83.676 96.595,82.050 95.820,80.400 95.051 C 77.540 93.719,75.089 91.657,73.459 89.211 C 72.499 87.770,72.526 80.906,73.500 79.096 C 74.838 76.611,77.671 74.229,80.600 73.127 C 81.692 72.716,88.568 73.110,88.730 73.593 M316.622 78.010 C 317.600 78.455,318.400 78.995,318.400 79.210 C 318.400 79.424,318.613 79.600,318.874 79.600 C 319.540 79.600,321.200 81.229,321.200 81.882 C 321.200 82.181,321.452 82.522,321.760 82.640 C 323.957 83.483,323.195 93.680,320.792 95.600 C 320.654 95.710,320.419 96.132,320.269 96.538 C 320.119 96.944,319.637 97.370,319.198 97.485 C 318.759 97.599,318.400 97.838,318.400 98.016 C 318.400 98.193,317.725 98.546,316.900 98.799 C 316.075 99.053,314.860 99.498,314.200 99.788 C 311.953 100.776,311.001 101.147,309.400 101.657 C 308.520 101.937,307.620 102.277,307.400 102.411 C 307.180 102.546,306.190 102.902,305.200 103.204 C 301.930 104.199,301.631 104.675,304.070 105.003 C 305.242 105.161,306.380 105.425,306.600 105.592 C 306.820 105.758,307.986 106.019,309.190 106.172 C 310.395 106.326,311.565 106.594,311.790 106.769 C 312.016 106.943,313.640 107.310,315.400 107.584 C 317.160 107.858,318.782 108.230,319.005 108.411 C 319.227 108.592,320.892 108.973,322.705 109.258 C 324.517 109.543,326.000 109.894,326.000 110.037 C 326.000 110.180,326.900 110.416,328.000 110.562 C 329.100 110.708,330.000 110.979,330.000 111.164 C 330.000 111.349,330.556 111.611,331.235 111.747 C 333.107 112.121,335.893 114.980,336.209 116.853 C 336.352 117.701,336.634 118.497,336.835 118.622 C 337.036 118.746,337.200 120.446,337.200 122.401 C 337.200 127.085,336.282 128.722,331.628 132.335 C 330.150 133.481,320.376 133.926,319.111 132.903 C 318.830 132.676,317.790 132.360,316.800 132.200 C 315.810 132.040,314.820 131.768,314.600 131.596 C 314.380 131.423,312.760 131.058,311.000 130.784 C 309.240 130.510,307.616 130.143,307.390 129.969 C 307.165 129.794,305.995 129.526,304.790 129.372 C 303.586 129.219,302.420 128.958,302.200 128.793 C 301.980 128.628,300.450 128.277,298.800 128.014 C 297.150 127.750,295.525 127.393,295.189 127.220 C 294.853 127.046,293.233 126.672,291.589 126.388 C 289.945 126.105,288.420 125.744,288.200 125.587 C 287.980 125.430,286.900 125.171,285.800 125.013 C 284.700 124.855,283.620 124.586,283.400 124.415 C 283.180 124.245,281.470 123.871,279.600 123.585 C 277.730 123.299,276.020 122.939,275.800 122.785 C 275.580 122.631,274.140 122.278,272.600 122.000 C 271.060 121.722,269.616 121.350,269.390 121.173 C 269.165 120.996,268.040 120.727,266.890 120.574 C 265.741 120.422,264.800 120.173,264.800 120.020 C 264.800 119.868,263.144 119.524,261.119 119.254 C 259.095 118.984,257.247 118.605,257.014 118.412 C 256.780 118.218,255.737 117.845,254.695 117.582 C 253.653 117.320,252.800 116.946,252.800 116.753 C 252.800 116.559,252.567 116.400,252.281 116.400 C 251.996 116.400,251.120 115.725,250.336 114.900 C 244.746 109.022,246.915 98.455,254.200 96.071 C 255.880 95.521,257.012 95.073,259.000 94.172 C 259.660 93.872,260.740 93.510,261.400 93.366 C 262.060 93.222,262.960 92.888,263.400 92.622 C 263.840 92.357,265.100 91.900,266.200 91.608 C 267.300 91.315,268.380 90.945,268.600 90.784 C 268.820 90.624,269.630 90.361,270.400 90.200 C 271.170 90.039,271.982 89.762,272.205 89.583 C 272.428 89.405,273.508 89.040,274.605 88.772 C 275.702 88.504,276.780 88.154,277.000 87.995 C 277.220 87.835,278.346 87.483,279.501 87.212 C 280.657 86.941,281.693 86.573,281.803 86.395 C 281.914 86.216,282.722 85.948,283.600 85.800 C 284.478 85.652,285.286 85.384,285.397 85.205 C 285.507 85.027,286.498 84.664,287.599 84.400 C 288.699 84.136,289.600 83.787,289.600 83.624 C 289.600 83.461,290.603 83.103,291.829 82.829 C 293.055 82.554,294.540 82.092,295.129 81.802 C 297.017 80.871,298.158 80.444,300.000 79.978 C 300.990 79.727,301.980 79.375,302.200 79.197 C 302.420 79.018,303.320 78.742,304.200 78.584 C 305.080 78.425,305.980 78.159,306.200 77.991 C 307.597 76.926,314.269 76.938,316.622 78.010 M217.800 147.998 C 218.020 148.160,221.710 148.419,226.000 148.572 C 230.290 148.725,235.420 149.019,237.400 149.225 C 239.380 149.430,243.340 149.789,246.200 150.023 C 249.060 150.256,251.760 150.600,252.200 150.788 C 252.640 150.975,255.970 151.407,259.600 151.748 C 269.831 152.707,276.884 153.546,278.200 153.960 C 278.860 154.167,280.750 154.461,282.400 154.613 C 284.050 154.765,285.580 155.025,285.800 155.191 C 286.020 155.357,288.270 155.721,290.800 156.000 C 293.330 156.279,295.580 156.645,295.800 156.813 C 296.020 156.982,297.595 157.249,299.300 157.407 C 301.005 157.565,302.400 157.821,302.400 157.976 C 302.400 158.132,304.425 158.495,306.900 158.783 C 309.375 159.071,311.580 159.417,311.800 159.551 C 312.020 159.686,314.090 160.103,316.400 160.477 C 324.451 161.784,325.805 162.038,326.600 162.388 C 327.040 162.582,329.159 162.957,331.309 163.223 C 333.459 163.488,335.314 163.862,335.433 164.053 C 335.551 164.244,336.267 164.400,337.024 164.400 L 338.400 164.400 338.374 170.700 C 338.336 180.037,337.113 198.142,336.408 199.800 C 336.221 200.240,335.847 202.310,335.576 204.400 C 335.306 206.490,334.952 208.380,334.791 208.600 C 334.630 208.820,334.284 210.257,334.021 211.793 C 333.759 213.328,333.400 214.768,333.223 214.993 C 333.046 215.217,332.777 216.255,332.626 217.300 C 332.475 218.345,332.218 219.200,332.056 219.200 C 331.893 219.200,331.528 220.325,331.245 221.700 C 330.961 223.075,330.593 224.380,330.427 224.600 C 330.260 224.820,329.892 225.860,329.607 226.910 C 329.323 227.961,328.935 228.917,328.745 229.034 C 328.555 229.151,328.394 229.552,328.386 229.924 C 328.379 230.296,328.025 231.320,327.600 232.200 C 327.175 233.080,326.821 234.034,326.814 234.321 C 326.806 234.607,326.453 235.507,326.029 236.321 C 325.606 237.134,323.878 240.590,322.190 244.000 C 318.519 251.416,317.446 253.389,316.167 255.073 C 315.635 255.774,315.200 256.513,315.200 256.716 C 315.200 256.919,314.570 257.910,313.800 258.918 C 313.030 259.927,312.400 260.868,312.400 261.009 C 312.400 261.150,311.770 262.034,311.000 262.974 C 310.230 263.914,309.600 264.829,309.600 265.008 C 309.600 265.187,309.332 265.618,309.005 265.966 C 308.678 266.315,307.696 267.500,306.823 268.600 C 305.949 269.700,304.867 270.979,304.417 271.442 C 303.968 271.905,303.600 272.481,303.600 272.722 C 303.600 272.963,303.373 273.304,303.096 273.480 C 302.819 273.656,301.350 275.203,299.832 276.917 C 298.314 278.631,296.810 279.981,296.491 279.917 C 296.171 279.853,294.175 281.576,292.055 283.746 C 288.844 287.034,282.094 293.269,280.600 294.328 C 280.380 294.484,279.020 295.599,277.578 296.806 C 276.136 298.012,274.456 299.360,273.845 299.800 C 273.233 300.240,271.781 301.320,270.617 302.200 C 269.452 303.080,268.101 304.070,267.613 304.400 C 267.125 304.730,266.167 305.405,265.485 305.900 C 264.803 306.395,264.069 306.800,263.854 306.800 C 263.639 306.800,263.179 307.055,262.831 307.366 C 260.898 309.099,248.294 315.475,244.200 316.790 C 243.320 317.073,242.420 317.429,242.200 317.582 C 241.980 317.735,240.990 318.080,240.000 318.348 C 239.010 318.617,237.840 318.996,237.400 319.190 C 236.287 319.682,231.289 321.096,229.600 321.397 C 228.830 321.534,227.840 321.810,227.400 322.009 C 226.515 322.411,223.939 322.961,218.800 323.846 C 216.930 324.168,214.770 324.609,214.000 324.825 C 209.380 326.127,191.311 327.112,184.815 326.416 C 172.544 325.103,161.357 323.218,158.600 322.000 C 158.160 321.806,157.170 321.534,156.400 321.397 C 154.842 321.119,149.842 319.723,148.600 319.219 C 148.160 319.040,146.270 318.403,144.400 317.803 C 142.530 317.203,140.280 316.404,139.400 316.027 C 138.520 315.650,136.990 315.016,136.000 314.618 C 133.743 313.710,125.263 309.492,122.600 307.952 C 121.500 307.316,120.330 306.672,120.000 306.520 C 119.670 306.369,119.191 306.055,118.935 305.822 C 118.679 305.590,116.654 304.249,114.435 302.842 C 112.216 301.436,110.400 300.131,110.400 299.942 C 110.400 299.754,110.203 299.600,109.963 299.600 C 108.958 299.600,97.945 290.598,91.979 284.900 C 90.309 283.305,88.672 282.000,88.341 282.000 C 87.554 282.000,82.741 276.895,77.591 270.600 C 76.691 269.500,75.605 268.215,75.177 267.744 C 74.750 267.273,74.400 266.697,74.400 266.463 C 74.400 266.230,74.174 265.896,73.899 265.720 C 73.623 265.544,72.858 264.590,72.199 263.600 C 71.539 262.610,70.865 261.740,70.700 261.667 C 70.535 261.593,70.400 261.356,70.400 261.140 C 70.400 260.924,69.950 260.157,69.400 259.436 C 68.850 258.714,68.400 257.916,68.400 257.662 C 68.400 257.408,68.242 257.200,68.049 257.200 C 67.855 257.200,67.460 256.615,67.171 255.900 C 66.882 255.185,66.492 254.494,66.304 254.365 C 65.311 253.681,58.307 239.400,56.218 233.800 C 55.643 232.260,55.022 230.724,54.837 230.387 C 54.653 230.050,54.368 229.150,54.205 228.387 C 54.041 227.624,53.762 226.818,53.583 226.595 C 53.405 226.372,53.040 225.292,52.772 224.195 C 52.504 223.098,52.154 222.020,51.995 221.800 C 51.836 221.580,51.478 220.140,51.200 218.600 C 50.922 217.060,50.550 215.616,50.373 215.390 C 50.196 215.165,49.926 213.995,49.772 212.790 C 49.619 211.586,49.345 210.410,49.162 210.178 C 48.980 209.946,48.619 207.606,48.360 204.978 C 48.101 202.350,47.695 199.955,47.458 199.655 C 47.170 199.290,46.976 192.944,46.872 180.455 L 46.717 161.800 47.858 161.325 C 48.486 161.063,50.530 160.635,52.400 160.374 C 54.270 160.113,55.980 159.770,56.200 159.612 C 56.420 159.454,58.220 159.105,60.200 158.837 C 62.180 158.569,64.160 158.193,64.600 158.001 C 65.461 157.626,68.329 157.132,75.600 156.104 C 78.130 155.747,80.290 155.332,80.400 155.184 C 80.510 155.035,81.950 154.787,83.600 154.634 C 85.250 154.480,87.140 154.179,87.800 153.965 C 89.305 153.477,97.786 152.553,108.200 151.744 C 112.600 151.402,116.560 150.971,117.000 150.785 C 117.440 150.600,121.130 150.247,125.200 150.002 C 129.270 149.756,134.760 149.402,137.400 149.214 C 140.040 149.027,146.880 148.753,152.600 148.607 C 158.320 148.461,163.360 148.173,163.800 147.968 C 165.314 147.262,216.842 147.291,217.800 147.998 M174.300 239.489 C 175.015 239.578,176.185 239.578,176.900 239.489 C 177.615 239.401,177.030 239.328,175.600 239.328 C 174.170 239.328,173.585 239.401,174.300 239.489 M209.500 239.489 C 210.215 239.578,211.385 239.578,212.100 239.489 C 212.815 239.401,212.230 239.328,210.800 239.328 C 209.370 239.328,208.785 239.401,209.500 239.489 M164.000 240.800 L 162.600 241.095 163.876 241.147 C 164.578 241.176,165.264 241.020,165.400 240.800 C 165.536 240.580,165.592 240.424,165.524 240.453 C 165.456 240.482,164.770 240.638,164.000 240.800 M221.700 241.076 C 222.085 241.176,222.715 241.176,223.100 241.076 C 223.485 240.975,223.170 240.893,222.400 240.893 C 221.630 240.893,221.315 240.975,221.700 241.076 M233.816 243.626 C 233.912 243.781,234.523 243.986,235.174 244.082 C 235.825 244.177,236.279 244.129,236.184 243.974 C 236.088 243.819,235.477 243.614,234.826 243.518 C 234.175 243.423,233.721 243.471,233.816 243.626 " stroke="none" fill="#a4a4a4" fill-rule="evenodd"></path><path id="path2" d="M81.828 73.555 C 81.707 73.750,80.956 74.032,80.159 74.181 C 76.526 74.863,73.200 79.696,73.200 84.294 C 73.200 89.688,76.247 92.823,85.000 96.436 C 85.440 96.618,86.610 96.972,87.600 97.222 C 88.590 97.473,89.580 97.817,89.800 97.987 C 90.020 98.156,91.190 98.524,92.400 98.805 C 95.696 99.568,96.544 100.274,94.550 100.594 C 93.697 100.732,92.714 100.997,92.365 101.185 C 92.016 101.372,90.306 101.740,88.565 102.002 C 86.824 102.264,85.220 102.624,85.000 102.801 C 84.780 102.978,83.565 103.251,82.300 103.408 C 81.035 103.564,80.000 103.812,80.000 103.958 C 80.000 104.104,78.517 104.457,76.705 104.742 C 74.892 105.027,73.223 105.415,72.995 105.605 C 72.767 105.794,71.640 106.073,70.490 106.226 C 69.341 106.378,68.400 106.631,68.400 106.788 C 68.400 106.945,67.410 107.294,66.200 107.565 C 64.990 107.836,64.000 108.215,64.000 108.407 C 64.000 108.599,63.507 108.993,62.904 109.282 C 62.301 109.571,61.571 110.301,61.282 110.904 C 60.993 111.507,60.608 112.000,60.426 112.000 C 58.966 112.000,58.900 122.502,60.354 123.600 C 60.499 123.710,60.911 124.250,61.269 124.800 C 61.626 125.350,62.972 126.320,64.259 126.956 C 65.547 127.592,66.913 128.267,67.295 128.456 C 68.216 128.912,73.092 128.899,73.376 128.439 C 73.498 128.241,74.679 127.953,75.999 127.800 C 77.320 127.647,78.400 127.394,78.400 127.239 C 78.400 127.083,79.795 126.723,81.500 126.438 C 83.205 126.154,84.780 125.783,85.000 125.613 C 85.220 125.444,86.930 125.078,88.800 124.800 C 90.670 124.522,92.384 124.149,92.610 123.973 C 92.835 123.796,93.960 123.527,95.110 123.374 C 96.259 123.222,97.200 122.980,97.200 122.837 C 97.200 122.694,98.683 122.343,100.495 122.058 C 102.308 121.773,103.973 121.395,104.195 121.219 C 104.418 121.043,105.632 120.774,106.894 120.621 C 108.155 120.469,109.279 120.195,109.392 120.014 C 109.504 119.832,111.172 119.463,113.098 119.194 C 115.024 118.925,116.780 118.563,117.000 118.388 C 117.220 118.214,118.930 117.852,120.800 117.585 C 122.670 117.318,124.380 116.966,124.600 116.803 C 124.820 116.640,125.986 116.381,127.190 116.228 C 128.395 116.074,129.565 115.804,129.790 115.627 C 130.016 115.450,131.460 115.078,133.000 114.800 C 134.540 114.522,135.980 114.168,136.200 114.013 C 136.420 113.859,137.635 113.510,138.900 113.237 C 140.165 112.965,141.200 112.576,141.200 112.371 C 141.200 112.167,141.534 112.000,141.942 112.000 C 143.237 112.000,146.743 107.898,147.041 106.035 C 147.185 105.136,147.459 104.400,147.651 104.400 C 148.095 104.400,148.111 100.288,147.670 99.780 C 147.488 99.571,147.099 98.635,146.806 97.700 C 146.512 96.765,146.116 96.000,145.926 96.000 C 145.736 96.000,145.412 95.557,145.206 95.016 C 144.842 94.059,139.604 91.200,138.215 91.200 C 137.903 91.200,137.536 91.020,137.400 90.800 C 137.264 90.580,136.848 90.399,136.476 90.398 C 136.104 90.396,135.317 90.143,134.727 89.835 C 134.137 89.527,133.057 89.151,132.327 88.998 C 131.597 88.846,130.637 88.493,130.194 88.213 C 129.751 87.934,128.761 87.571,127.994 87.406 C 127.227 87.242,126.418 86.962,126.195 86.783 C 125.972 86.605,124.937 86.245,123.895 85.982 C 122.853 85.720,122.000 85.375,122.000 85.216 C 122.000 85.057,120.965 84.699,119.700 84.419 C 118.435 84.140,117.220 83.767,117.000 83.591 C 116.780 83.415,115.925 83.145,115.100 82.991 C 114.275 82.837,113.600 82.572,113.600 82.403 C 113.600 82.234,112.747 81.880,111.705 81.618 C 110.663 81.355,109.628 80.994,109.405 80.815 C 109.182 80.636,107.965 80.260,106.700 79.981 C 105.435 79.701,104.400 79.341,104.400 79.181 C 104.400 79.020,103.725 78.763,102.900 78.609 C 102.075 78.455,101.220 78.190,101.000 78.022 C 100.780 77.853,99.702 77.496,98.605 77.228 C 97.508 76.960,96.428 76.598,96.205 76.423 C 95.982 76.248,95.080 75.975,94.200 75.816 C 93.320 75.658,92.420 75.388,92.200 75.216 C 91.980 75.045,90.540 74.683,89.000 74.413 C 87.460 74.143,85.887 73.760,85.505 73.561 C 84.613 73.097,82.114 73.093,81.828 73.555 M308.622 77.965 C 308.497 78.166,307.632 78.456,306.698 78.610 C 305.764 78.764,304.820 79.030,304.600 79.201 C 304.380 79.371,303.165 79.740,301.900 80.019 C 300.635 80.299,299.600 80.659,299.600 80.819 C 299.600 80.980,298.925 81.234,298.100 81.385 C 297.275 81.536,296.237 81.892,295.794 82.177 C 295.351 82.462,294.361 82.829,293.594 82.994 C 292.827 83.158,292.020 83.419,291.800 83.574 C 291.580 83.729,290.590 84.101,289.600 84.400 C 288.610 84.699,287.620 85.064,287.400 85.210 C 287.180 85.356,286.100 85.712,285.000 86.000 C 283.900 86.288,282.820 86.660,282.600 86.826 C 282.380 86.992,281.525 87.255,280.700 87.409 C 279.875 87.563,279.200 87.820,279.200 87.981 C 279.200 88.141,278.165 88.501,276.900 88.781 C 275.635 89.060,274.420 89.433,274.200 89.609 C 273.980 89.785,273.125 90.055,272.300 90.209 C 271.475 90.363,270.800 90.620,270.800 90.781 C 270.800 90.941,269.802 91.296,268.583 91.569 C 267.364 91.842,265.879 92.319,265.283 92.630 C 264.687 92.941,263.615 93.307,262.900 93.442 C 262.185 93.578,261.600 93.849,261.600 94.045 C 261.600 94.240,261.320 94.400,260.978 94.400 C 260.636 94.400,259.601 94.740,258.678 95.155 C 257.755 95.570,256.415 96.034,255.700 96.186 C 254.985 96.339,254.400 96.610,254.400 96.788 C 254.400 96.967,253.947 97.227,253.392 97.366 C 252.108 97.689,248.850 101.087,248.567 102.400 C 248.449 102.950,248.183 103.713,247.976 104.095 C 247.502 104.970,247.480 108.800,247.949 108.800 C 248.141 108.800,248.415 109.532,248.558 110.427 C 248.854 112.278,251.861 115.850,253.462 116.251 C 253.978 116.381,254.400 116.623,254.400 116.789 C 254.400 116.955,255.525 117.322,256.900 117.605 C 258.275 117.888,259.580 118.245,259.800 118.398 C 260.020 118.551,261.776 118.902,263.702 119.180 C 265.628 119.457,267.294 119.828,267.403 120.004 C 267.512 120.181,268.546 120.452,269.700 120.607 C 270.855 120.763,271.982 121.036,272.205 121.215 C 272.427 121.393,274.092 121.773,275.905 122.058 C 277.717 122.343,279.200 122.704,279.200 122.860 C 279.200 123.015,280.235 123.268,281.500 123.421 C 282.765 123.574,283.980 123.836,284.200 124.003 C 284.420 124.170,285.950 124.523,287.600 124.786 C 289.250 125.050,290.897 125.421,291.260 125.611 C 291.623 125.801,293.378 126.186,295.160 126.467 C 296.942 126.747,298.400 127.094,298.400 127.237 C 298.400 127.380,299.341 127.622,300.490 127.774 C 301.640 127.927,302.765 128.196,302.990 128.373 C 303.216 128.549,304.930 128.922,306.800 129.200 C 308.670 129.478,310.380 129.841,310.600 130.006 C 310.820 130.172,312.350 130.540,314.000 130.826 C 315.650 131.111,317.098 131.487,317.217 131.662 C 317.337 131.836,318.737 132.100,320.330 132.248 C 321.922 132.396,323.320 132.671,323.436 132.859 C 323.717 133.313,328.800 133.300,328.800 132.845 C 328.800 132.649,329.393 132.378,330.118 132.242 C 331.675 131.950,334.800 128.953,335.998 126.603 C 336.846 124.940,337.155 119.866,336.435 119.422 C 336.234 119.297,335.950 118.490,335.805 117.627 C 335.433 115.430,332.042 112.213,329.677 111.813 C 328.757 111.658,327.910 111.379,327.796 111.193 C 327.681 111.008,326.555 110.731,325.294 110.579 C 324.032 110.426,322.820 110.167,322.600 110.003 C 322.380 109.839,320.940 109.478,319.400 109.200 C 317.860 108.922,316.420 108.556,316.200 108.387 C 315.980 108.217,314.360 107.863,312.600 107.600 C 310.840 107.337,309.220 106.976,309.000 106.799 C 308.780 106.622,307.520 106.348,306.200 106.189 C 304.880 106.031,303.620 105.764,303.400 105.596 C 303.180 105.428,302.190 105.150,301.200 104.978 C 299.878 104.749,299.612 104.601,300.200 104.419 C 300.975 104.180,302.103 103.709,304.600 102.580 C 305.260 102.282,306.557 101.845,307.483 101.608 C 308.409 101.372,309.262 101.024,309.379 100.834 C 309.496 100.645,310.249 100.367,311.054 100.216 C 311.859 100.065,312.896 99.698,313.358 99.400 C 313.821 99.103,314.880 98.735,315.711 98.583 C 320.135 97.774,324.822 87.862,322.078 85.118 C 321.815 84.855,321.600 84.300,321.600 83.885 C 321.600 82.819,317.490 78.927,316.024 78.605 C 315.356 78.458,314.706 78.172,314.581 77.969 C 314.285 77.490,308.917 77.487,308.622 77.965 M170.200 148.031 C 161.400 148.221,153.030 148.556,151.600 148.775 C 150.170 148.994,145.130 149.356,140.400 149.578 C 130.785 150.031,121.891 150.611,115.600 151.197 C 113.290 151.413,108.070 151.866,104.000 152.206 C 99.930 152.546,96.240 152.987,95.800 153.187 C 95.360 153.387,93.380 153.669,91.400 153.815 C 89.420 153.961,87.620 154.219,87.400 154.387 C 87.180 154.556,84.930 154.921,82.400 155.200 C 79.870 155.479,77.620 155.843,77.400 156.009 C 77.180 156.175,75.657 156.443,74.016 156.605 C 72.375 156.766,70.755 157.052,70.416 157.239 C 70.077 157.427,68.090 157.843,66.000 158.164 C 63.910 158.485,60.310 159.125,58.000 159.586 C 55.690 160.046,52.529 160.656,50.976 160.941 C 49.423 161.226,47.938 161.591,47.676 161.753 C 46.641 162.393,47.305 202.033,48.374 203.389 C 48.552 203.615,48.826 205.150,48.983 206.800 C 49.140 208.450,49.407 209.980,49.577 210.200 C 49.747 210.420,50.110 212.040,50.384 213.800 C 50.658 215.560,51.020 217.180,51.188 217.400 C 51.357 217.620,51.719 219.017,51.994 220.505 C 52.268 221.993,52.636 223.299,52.811 223.407 C 52.987 223.515,53.252 224.323,53.400 225.202 C 53.549 226.081,53.814 226.800,53.991 226.800 C 54.167 226.800,54.437 227.475,54.592 228.300 C 54.746 229.125,55.216 230.555,55.636 231.478 C 56.056 232.401,56.400 233.331,56.400 233.546 C 56.400 233.760,56.648 234.445,56.951 235.068 C 57.254 235.690,57.766 236.830,58.089 237.600 C 59.409 240.751,64.141 250.209,64.458 250.333 C 64.646 250.407,64.800 250.640,64.800 250.852 C 64.800 251.420,68.363 257.567,69.671 259.258 C 70.292 260.059,70.800 260.854,70.800 261.024 C 70.800 261.194,71.071 261.618,71.403 261.966 C 71.734 262.315,72.712 263.590,73.576 264.800 C 78.363 271.509,87.226 281.600,88.332 281.600 C 88.581 281.600,88.890 281.181,89.019 280.669 C 89.147 280.156,91.554 277.501,94.368 274.769 C 99.311 269.968,100.099 269.268,104.000 266.212 C 104.990 265.437,106.070 264.561,106.400 264.266 C 106.730 263.971,107.315 263.616,107.700 263.478 C 108.085 263.339,108.400 263.039,108.400 262.813 C 108.400 262.586,108.572 262.400,108.782 262.400 C 109.130 262.400,111.619 260.889,112.605 260.079 C 114.515 258.510,130.495 250.400,131.676 250.400 C 132.074 250.400,132.400 250.240,132.400 250.043 C 132.400 249.847,132.889 249.564,133.486 249.414 C 134.083 249.264,135.334 248.795,136.264 248.371 C 137.195 247.947,138.225 247.600,138.554 247.600 C 138.884 247.600,139.248 247.446,139.365 247.257 C 139.481 247.069,140.662 246.684,141.988 246.402 C 143.315 246.121,144.400 245.752,144.400 245.582 C 144.400 245.412,145.660 245.047,147.200 244.772 C 148.740 244.497,150.000 244.138,150.000 243.973 C 150.000 243.809,150.945 243.546,152.100 243.389 C 153.255 243.232,154.293 242.958,154.406 242.780 C 154.520 242.602,156.230 242.234,158.206 241.962 C 160.183 241.689,161.894 241.328,162.008 241.158 C 162.123 240.989,163.653 240.722,165.408 240.566 C 167.164 240.410,168.690 240.153,168.800 239.994 C 169.068 239.608,179.296 238.800,183.913 238.800 C 186.104 238.800,187.600 238.638,187.600 238.400 C 187.600 238.153,189.659 238.000,192.976 238.000 C 196.129 238.000,198.455 238.165,198.600 238.400 C 198.736 238.620,200.401 238.800,202.301 238.800 C 206.823 238.800,216.889 239.592,217.400 239.988 C 217.620 240.158,219.150 240.426,220.800 240.583 C 222.450 240.740,223.980 241.005,224.200 241.172 C 224.420 241.339,226.176 241.702,228.102 241.980 C 230.028 242.257,231.696 242.632,231.809 242.814 C 231.921 242.995,233.000 243.267,234.206 243.418 C 235.413 243.569,236.400 243.815,236.400 243.966 C 236.400 244.117,237.525 244.472,238.900 244.755 C 240.275 245.039,241.580 245.409,241.800 245.578 C 242.020 245.746,243.098 246.104,244.195 246.372 C 245.292 246.640,246.372 247.005,246.595 247.183 C 246.818 247.362,247.627 247.642,248.394 247.806 C 249.161 247.971,250.151 248.334,250.594 248.613 C 251.037 248.893,251.985 249.243,252.700 249.393 C 253.415 249.542,254.000 249.829,254.000 250.032 C 254.000 250.234,254.312 250.400,254.694 250.400 C 255.469 250.400,259.725 252.431,259.933 252.900 C 260.007 253.065,260.277 253.200,260.533 253.200 C 261.134 253.200,268.441 256.841,269.102 257.470 C 269.379 257.733,270.000 258.073,270.484 258.227 C 270.967 258.380,271.590 258.707,271.867 258.953 C 272.859 259.831,273.417 260.208,274.600 260.800 C 275.922 261.461,276.043 261.543,277.858 262.994 C 278.550 263.547,279.295 264.000,279.515 264.000 C 279.735 264.000,280.018 264.270,280.145 264.600 C 280.271 264.930,280.611 265.200,280.899 265.200 C 281.187 265.200,281.710 265.515,282.063 265.900 C 282.415 266.285,283.846 267.500,285.244 268.600 C 288.212 270.936,296.000 278.609,296.000 279.197 C 296.000 280.545,299.399 277.403,303.200 272.540 C 303.530 272.118,304.655 270.760,305.700 269.522 C 306.745 268.285,307.600 267.166,307.600 267.036 C 307.600 266.906,307.884 266.485,308.232 266.100 C 308.802 265.469,310.831 262.696,312.400 260.402 C 312.730 259.920,313.405 258.967,313.900 258.285 C 314.395 257.603,314.800 256.810,314.800 256.522 C 314.800 256.235,314.935 255.999,315.100 255.997 C 315.546 255.994,317.974 251.794,320.881 246.000 C 321.598 244.570,322.324 243.340,322.493 243.267 C 322.662 243.193,322.800 242.957,322.800 242.741 C 322.800 242.526,323.268 241.326,323.840 240.075 C 326.696 233.827,327.599 231.685,327.614 231.122 C 327.621 230.835,327.975 229.880,328.400 229.000 C 328.825 228.120,329.180 227.130,329.189 226.800 C 329.198 226.470,329.457 225.717,329.765 225.127 C 330.073 224.537,330.452 223.457,330.608 222.727 C 330.765 221.997,331.028 221.220,331.194 221.000 C 331.360 220.780,331.732 219.385,332.021 217.900 C 332.310 216.415,332.671 215.200,332.822 215.200 C 332.973 215.200,333.222 214.259,333.374 213.110 C 333.527 211.960,333.802 210.835,333.986 210.610 C 334.171 210.384,334.529 208.760,334.784 207.000 C 335.038 205.240,335.428 203.221,335.650 202.513 C 336.633 199.379,338.114 177.597,337.912 169.246 L 337.800 164.606 333.800 163.939 C 329.041 163.147,321.766 161.813,317.600 160.970 C 315.950 160.636,312.710 160.091,310.400 159.758 C 308.090 159.426,305.840 158.996,305.400 158.803 C 304.960 158.610,302.710 158.233,300.400 157.965 C 298.090 157.697,296.020 157.345,295.800 157.183 C 295.580 157.021,294.050 156.759,292.400 156.600 C 290.750 156.441,289.220 156.173,289.000 156.005 C 288.780 155.837,286.440 155.470,283.800 155.189 C 281.160 154.909,278.820 154.546,278.600 154.384 C 278.380 154.221,276.490 153.958,274.400 153.799 C 272.310 153.639,270.328 153.366,269.997 153.192 C 269.665 153.018,266.875 152.669,263.797 152.417 C 260.718 152.165,257.570 151.789,256.800 151.582 C 254.791 151.040,232.065 149.085,220.400 148.452 C 209.154 147.840,187.446 147.659,170.200 148.031 " stroke="none" fill="#7c7c7c" fill-rule="evenodd"></path><path id="path3" d="M80.600 73.127 C 77.671 74.229,74.838 76.611,73.500 79.096 C 72.526 80.906,72.499 87.770,73.459 89.211 C 75.089 91.657,77.540 93.719,80.400 95.051 C 82.050 95.820,83.676 96.595,84.013 96.774 C 84.350 96.952,85.250 97.232,86.013 97.395 C 86.776 97.559,87.580 97.824,87.800 97.984 C 88.020 98.145,89.100 98.512,90.200 98.800 C 91.300 99.088,92.380 99.457,92.600 99.619 C 92.820 99.781,93.360 99.988,93.800 100.078 C 94.240 100.169,93.480 100.377,92.112 100.540 C 90.744 100.703,89.531 100.988,89.417 101.172 C 89.304 101.356,88.173 101.635,86.905 101.792 C 85.637 101.949,84.420 102.216,84.200 102.386 C 83.980 102.556,82.270 102.929,80.400 103.215 C 78.530 103.501,76.820 103.861,76.600 104.015 C 76.380 104.169,74.940 104.522,73.400 104.800 C 71.860 105.078,70.420 105.438,70.200 105.601 C 69.980 105.763,69.103 106.021,68.251 106.175 C 67.399 106.329,66.409 106.603,66.051 106.784 C 65.693 106.966,64.950 107.315,64.400 107.561 C 61.668 108.783,60.862 109.591,59.573 112.400 C 59.320 112.950,58.953 113.713,58.757 114.095 C 58.561 114.477,58.400 116.144,58.400 117.800 C 58.400 119.456,58.561 121.123,58.757 121.505 C 58.953 121.887,59.320 122.650,59.573 123.200 C 60.850 125.983,61.325 126.436,64.400 127.799 C 65.170 128.141,66.113 128.596,66.495 128.810 C 67.340 129.285,73.870 129.333,74.158 128.867 C 74.272 128.684,75.902 128.295,77.782 128.003 C 79.662 127.710,81.200 127.342,81.200 127.184 C 81.200 127.027,82.685 126.672,84.500 126.396 C 86.315 126.120,87.984 125.749,88.210 125.573 C 88.435 125.396,89.605 125.126,90.810 124.972 C 92.014 124.819,93.180 124.555,93.400 124.386 C 93.620 124.217,95.240 123.844,97.000 123.557 C 98.760 123.270,100.290 122.922,100.400 122.784 C 100.510 122.645,102.040 122.296,103.800 122.007 C 105.560 121.719,107.180 121.352,107.400 121.192 C 107.620 121.032,108.700 120.771,109.800 120.613 C 110.900 120.455,111.980 120.185,112.200 120.013 C 112.420 119.842,114.130 119.482,116.000 119.215 C 117.870 118.948,119.580 118.586,119.800 118.412 C 120.020 118.237,121.820 117.872,123.800 117.600 C 125.780 117.328,127.580 116.969,127.800 116.803 C 128.020 116.637,129.100 116.371,130.200 116.213 C 131.300 116.055,132.380 115.788,132.600 115.620 C 132.820 115.452,134.170 115.102,135.600 114.842 C 138.170 114.374,139.122 114.062,141.332 112.963 C 141.955 112.653,142.683 112.400,142.949 112.400 C 143.714 112.400,146.632 109.161,147.454 107.400 C 148.289 105.609,148.547 98.213,147.792 97.685 C 147.567 97.528,147.155 96.950,146.876 96.400 C 146.597 95.850,146.132 94.991,145.843 94.491 C 145.289 93.533,139.842 90.604,137.800 90.165 C 137.140 90.024,136.420 89.776,136.200 89.616 C 135.980 89.455,134.900 89.085,133.800 88.792 C 132.700 88.500,131.440 88.035,131.000 87.760 C 130.560 87.484,129.523 87.135,128.696 86.984 C 127.868 86.833,127.102 86.565,126.993 86.389 C 126.885 86.214,126.077 85.948,125.198 85.800 C 124.319 85.651,123.600 85.387,123.600 85.212 C 123.600 85.038,122.747 84.680,121.705 84.418 C 120.663 84.155,119.628 83.800,119.405 83.628 C 119.182 83.456,118.100 83.104,117.000 82.845 C 115.900 82.586,114.460 82.129,113.800 81.829 C 111.422 80.749,110.571 80.429,108.800 79.948 C 107.810 79.680,106.820 79.332,106.600 79.176 C 106.380 79.020,105.570 78.761,104.800 78.600 C 104.030 78.439,103.218 78.162,102.995 77.983 C 102.772 77.805,101.692 77.440,100.595 77.172 C 99.498 76.904,98.420 76.547,98.200 76.380 C 97.980 76.212,96.675 75.855,95.300 75.586 C 93.925 75.316,92.800 74.963,92.800 74.799 C 92.800 74.636,91.914 74.385,90.830 74.242 C 89.747 74.098,88.802 73.806,88.730 73.593 C 88.568 73.110,81.692 72.716,80.600 73.127 M85.505 73.561 C 85.887 73.760,87.460 74.143,89.000 74.413 C 90.540 74.683,91.980 75.045,92.200 75.216 C 92.420 75.388,93.320 75.658,94.200 75.816 C 95.080 75.975,95.982 76.248,96.205 76.423 C 96.428 76.598,97.508 76.960,98.605 77.228 C 99.702 77.496,100.780 77.853,101.000 78.022 C 101.220 78.190,102.075 78.455,102.900 78.609 C 103.725 78.763,104.400 79.020,104.400 79.181 C 104.400 79.341,105.435 79.701,106.700 79.981 C 107.965 80.260,109.182 80.636,109.405 80.815 C 109.628 80.994,110.663 81.355,111.705 81.618 C 112.747 81.880,113.600 82.234,113.600 82.403 C 113.600 82.572,114.275 82.837,115.100 82.991 C 115.925 83.145,116.780 83.415,117.000 83.591 C 117.220 83.767,118.435 84.140,119.700 84.419 C 120.965 84.699,122.000 85.057,122.000 85.216 C 122.000 85.375,122.853 85.720,123.895 85.982 C 124.937 86.245,125.972 86.605,126.195 86.783 C 126.418 86.962,127.227 87.242,127.994 87.406 C 128.761 87.571,129.751 87.934,130.194 88.213 C 130.637 88.493,131.597 88.846,132.327 88.998 C 133.057 89.151,134.137 89.527,134.727 89.835 C 135.317 90.143,136.104 90.396,136.476 90.398 C 136.848 90.399,137.264 90.580,137.400 90.800 C 137.536 91.020,137.903 91.200,138.215 91.200 C 139.604 91.200,144.842 94.059,145.206 95.016 C 145.412 95.557,145.736 96.000,145.926 96.000 C 146.116 96.000,146.512 96.765,146.806 97.700 C 147.099 98.635,147.488 99.571,147.670 99.780 C 148.111 100.288,148.095 104.400,147.651 104.400 C 147.459 104.400,147.185 105.136,147.041 106.035 C 146.743 107.898,143.237 112.000,141.942 112.000 C 141.534 112.000,141.200 112.167,141.200 112.371 C 141.200 112.576,140.165 112.965,138.900 113.237 C 137.635 113.510,136.420 113.859,136.200 114.013 C 135.980 114.168,134.540 114.522,133.000 114.800 C 131.460 115.078,130.016 115.450,129.790 115.627 C 129.565 115.804,128.395 116.074,127.190 116.228 C 125.986 116.381,124.820 116.640,124.600 116.803 C 124.380 116.966,122.670 117.318,120.800 117.585 C 118.930 117.852,117.220 118.214,117.000 118.388 C 116.780 118.563,115.024 118.925,113.098 119.194 C 111.172 119.463,109.504 119.832,109.392 120.014 C 109.279 120.195,108.155 120.469,106.894 120.621 C 105.632 120.774,104.418 121.043,104.195 121.219 C 103.973 121.395,102.308 121.773,100.495 122.058 C 98.683 122.343,97.200 122.694,97.200 122.837 C 97.200 122.980,96.259 123.222,95.110 123.374 C 93.960 123.527,92.835 123.796,92.610 123.973 C 92.384 124.149,90.670 124.522,88.800 124.800 C 86.930 125.078,85.220 125.444,85.000 125.613 C 84.780 125.783,83.205 126.154,81.500 126.438 C 79.795 126.723,78.400 127.083,78.400 127.239 C 78.400 127.394,77.320 127.647,75.999 127.800 C 74.679 127.953,73.498 128.241,73.376 128.439 C 73.092 128.899,68.216 128.912,67.295 128.456 C 66.913 128.267,65.547 127.592,64.259 126.956 C 62.972 126.320,61.626 125.350,61.269 124.800 C 60.911 124.250,60.499 123.710,60.354 123.600 C 58.900 122.502,58.966 112.000,60.426 112.000 C 60.608 112.000,60.993 111.507,61.282 110.904 C 61.571 110.301,62.301 109.571,62.904 109.282 C 63.507 108.993,64.000 108.599,64.000 108.407 C 64.000 108.215,64.990 107.836,66.200 107.565 C 67.410 107.294,68.400 106.945,68.400 106.788 C 68.400 106.631,69.341 106.378,70.490 106.226 C 71.640 106.073,72.767 105.794,72.995 105.605 C 73.223 105.415,74.892 105.027,76.705 104.742 C 78.517 104.457,80.000 104.104,80.000 103.958 C 80.000 103.812,81.035 103.564,82.300 103.408 C 83.565 103.251,84.780 102.978,85.000 102.801 C 85.220 102.624,86.824 102.264,88.565 102.002 C 90.306 101.740,92.016 101.372,92.365 101.185 C 92.714 100.997,93.697 100.732,94.550 100.594 C 96.544 100.274,95.696 99.568,92.400 98.805 C 91.190 98.524,90.020 98.156,89.800 97.987 C 89.580 97.817,88.590 97.473,87.600 97.222 C 86.610 96.972,85.440 96.618,85.000 96.436 C 76.247 92.823,73.200 89.688,73.200 84.294 C 73.200 79.696,76.526 74.863,80.159 74.181 C 80.956 74.032,81.707 73.750,81.828 73.555 C 82.114 73.093,84.613 73.097,85.505 73.561 M307.400 77.489 C 306.960 77.598,306.420 77.823,306.200 77.991 C 305.980 78.159,305.080 78.425,304.200 78.584 C 303.320 78.742,302.420 79.018,302.200 79.197 C 301.980 79.375,300.990 79.727,300.000 79.978 C 298.158 80.444,297.017 80.871,295.129 81.802 C 294.540 82.092,293.055 82.554,291.829 82.829 C 290.603 83.103,289.600 83.461,289.600 83.624 C 289.600 83.787,288.699 84.136,287.599 84.400 C 286.498 84.664,285.507 85.027,285.397 85.205 C 285.286 85.384,284.478 85.652,283.600 85.800 C 282.722 85.948,281.914 86.216,281.803 86.395 C 281.693 86.573,280.657 86.941,279.501 87.212 C 278.346 87.483,277.220 87.835,277.000 87.995 C 276.780 88.154,275.702 88.504,274.605 88.772 C 273.508 89.040,272.428 89.405,272.205 89.583 C 271.982 89.762,271.170 90.039,270.400 90.200 C 269.630 90.361,268.820 90.624,268.600 90.784 C 268.380 90.945,267.300 91.315,266.200 91.608 C 265.100 91.900,263.840 92.357,263.400 92.622 C 262.960 92.888,262.060 93.222,261.400 93.366 C 260.740 93.510,259.660 93.872,259.000 94.172 C 257.012 95.073,255.880 95.521,254.200 96.071 C 246.915 98.455,244.746 109.022,250.336 114.900 C 251.120 115.725,251.996 116.400,252.281 116.400 C 252.567 116.400,252.800 116.559,252.800 116.753 C 252.800 116.946,253.653 117.320,254.695 117.582 C 255.737 117.845,256.780 118.218,257.014 118.412 C 257.247 118.605,259.095 118.984,261.119 119.254 C 263.144 119.524,264.800 119.868,264.800 120.020 C 264.800 120.173,265.741 120.422,266.890 120.574 C 268.040 120.727,269.165 120.996,269.390 121.173 C 269.616 121.350,271.060 121.722,272.600 122.000 C 274.140 122.278,275.580 122.631,275.800 122.785 C 276.020 122.939,277.730 123.299,279.600 123.585 C 281.470 123.871,283.180 124.245,283.400 124.415 C 283.620 124.586,284.700 124.855,285.800 125.013 C 286.900 125.171,287.980 125.430,288.200 125.587 C 288.420 125.744,289.945 126.105,291.589 126.388 C 293.233 126.672,294.853 127.046,295.189 127.220 C 295.525 127.393,297.150 127.750,298.800 128.014 C 300.450 128.277,301.980 128.628,302.200 128.793 C 302.420 128.958,303.586 129.219,304.790 129.372 C 305.995 129.526,307.165 129.794,307.390 129.969 C 307.616 130.143,309.240 130.510,311.000 130.784 C 312.760 131.058,314.380 131.423,314.600 131.596 C 314.820 131.768,315.810 132.040,316.800 132.200 C 317.790 132.360,318.830 132.676,319.111 132.903 C 320.376 133.926,330.150 133.481,331.628 132.335 C 336.282 128.722,337.200 127.085,337.200 122.401 C 337.200 120.446,337.036 118.746,336.835 118.622 C 336.634 118.497,336.352 117.701,336.209 116.853 C 335.893 114.980,333.107 112.121,331.235 111.747 C 330.556 111.611,330.000 111.349,330.000 111.164 C 330.000 110.979,329.100 110.708,328.000 110.562 C 326.900 110.416,326.000 110.180,326.000 110.037 C 326.000 109.894,324.517 109.543,322.705 109.258 C 320.892 108.973,319.227 108.592,319.005 108.411 C 318.782 108.230,317.160 107.858,315.400 107.584 C 313.640 107.310,312.016 106.943,311.790 106.769 C 311.565 106.594,310.395 106.326,309.190 106.172 C 307.986 106.019,306.820 105.758,306.600 105.592 C 306.380 105.425,305.242 105.161,304.070 105.003 C 301.631 104.675,301.930 104.199,305.200 103.204 C 306.190 102.902,307.180 102.546,307.400 102.411 C 307.620 102.277,308.520 101.937,309.400 101.657 C 311.001 101.147,311.953 100.776,314.200 99.788 C 314.860 99.498,316.075 99.053,316.900 98.799 C 317.725 98.546,318.400 98.193,318.400 98.016 C 318.400 97.838,318.759 97.599,319.198 97.485 C 319.637 97.370,320.119 96.944,320.269 96.538 C 320.419 96.132,320.654 95.710,320.792 95.600 C 323.195 93.680,323.957 83.483,321.760 82.640 C 321.452 82.522,321.200 82.181,321.200 81.882 C 321.200 81.229,319.540 79.600,318.874 79.600 C 318.613 79.600,318.400 79.424,318.400 79.210 C 318.400 77.781,310.953 76.616,307.400 77.489 M314.581 77.969 C 314.706 78.172,315.356 78.458,316.024 78.605 C 317.490 78.927,321.600 82.819,321.600 83.885 C 321.600 84.300,321.815 84.855,322.078 85.118 C 324.822 87.862,320.135 97.774,315.711 98.583 C 314.880 98.735,313.821 99.103,313.358 99.400 C 312.896 99.698,311.859 100.065,311.054 100.216 C 310.249 100.367,309.496 100.645,309.379 100.834 C 309.262 101.024,308.409 101.372,307.483 101.608 C 306.557 101.845,305.260 102.282,304.600 102.580 C 302.103 103.709,300.975 104.180,300.200 104.419 C 299.612 104.601,299.878 104.749,301.200 104.978 C 302.190 105.150,303.180 105.428,303.400 105.596 C 303.620 105.764,304.880 106.031,306.200 106.189 C 307.520 106.348,308.780 106.622,309.000 106.799 C 309.220 106.976,310.840 107.337,312.600 107.600 C 314.360 107.863,315.980 108.217,316.200 108.387 C 316.420 108.556,317.860 108.922,319.400 109.200 C 320.940 109.478,322.380 109.839,322.600 110.003 C 322.820 110.167,324.032 110.426,325.294 110.579 C 326.555 110.731,327.681 111.008,327.796 111.193 C 327.910 111.379,328.757 111.658,329.677 111.813 C 332.042 112.213,335.433 115.430,335.805 117.627 C 335.950 118.490,336.234 119.297,336.435 119.422 C 337.155 119.866,336.846 124.940,335.998 126.603 C 334.800 128.953,331.675 131.950,330.118 132.242 C 329.393 132.378,328.800 132.649,328.800 132.845 C 328.800 133.300,323.717 133.313,323.436 132.859 C 323.320 132.671,321.922 132.396,320.330 132.248 C 318.737 132.100,317.337 131.836,317.217 131.662 C 317.098 131.487,315.650 131.111,314.000 130.826 C 312.350 130.540,310.820 130.172,310.600 130.006 C 310.380 129.841,308.670 129.478,306.800 129.200 C 304.930 128.922,303.216 128.549,302.990 128.373 C 302.765 128.196,301.640 127.927,300.490 127.774 C 299.341 127.622,298.400 127.380,298.400 127.237 C 298.400 127.094,296.942 126.747,295.160 126.467 C 293.378 126.186,291.623 125.801,291.260 125.611 C 290.897 125.421,289.250 125.050,287.600 124.786 C 285.950 124.523,284.420 124.170,284.200 124.003 C 283.980 123.836,282.765 123.574,281.500 123.421 C 280.235 123.268,279.200 123.015,279.200 122.860 C 279.200 122.704,277.717 122.343,275.905 122.058 C 274.092 121.773,272.427 121.393,272.205 121.215 C 271.982 121.036,270.855 120.763,269.700 120.607 C 268.546 120.452,267.512 120.181,267.403 120.004 C 267.294 119.828,265.628 119.457,263.702 119.180 C 261.776 118.902,260.020 118.551,259.800 118.398 C 259.580 118.245,258.275 117.888,256.900 117.605 C 255.525 117.322,254.400 116.955,254.400 116.789 C 254.400 116.623,253.978 116.381,253.462 116.251 C 251.861 115.850,248.854 112.278,248.558 110.427 C 248.415 109.532,248.141 108.800,247.949 108.800 C 247.480 108.800,247.502 104.970,247.976 104.095 C 248.183 103.713,248.449 102.950,248.567 102.400 C 248.850 101.087,252.108 97.689,253.392 97.366 C 253.947 97.227,254.400 96.967,254.400 96.788 C 254.400 96.610,254.985 96.339,255.700 96.186 C 256.415 96.034,257.755 95.570,258.678 95.155 C 259.601 94.740,260.636 94.400,260.978 94.400 C 261.320 94.400,261.600 94.240,261.600 94.045 C 261.600 93.849,262.185 93.578,262.900 93.442 C 263.615 93.307,264.687 92.941,265.283 92.630 C 265.879 92.319,267.364 91.842,268.583 91.569 C 269.802 91.296,270.800 90.941,270.800 90.781 C 270.800 90.620,271.475 90.363,272.300 90.209 C 273.125 90.055,273.980 89.785,274.200 89.609 C 274.420 89.433,275.635 89.060,276.900 88.781 C 278.165 88.501,279.200 88.141,279.200 87.981 C 279.200 87.820,279.875 87.563,280.700 87.409 C 281.525 87.255,282.380 86.992,282.600 86.826 C 282.820 86.660,283.900 86.288,285.000 86.000 C 286.100 85.712,287.180 85.356,287.400 85.210 C 287.620 85.064,288.610 84.699,289.600 84.400 C 290.590 84.101,291.580 83.729,291.800 83.574 C 292.020 83.419,292.827 83.158,293.594 82.994 C 294.361 82.829,295.351 82.462,295.794 82.177 C 296.237 81.892,297.275 81.536,298.100 81.385 C 298.925 81.234,299.600 80.980,299.600 80.819 C 299.600 80.659,300.635 80.299,301.900 80.019 C 303.165 79.740,304.380 79.371,304.600 79.201 C 304.820 79.030,305.764 78.764,306.698 78.610 C 307.632 78.456,308.497 78.166,308.622 77.965 C 308.917 77.487,314.285 77.490,314.581 77.969 M175.213 147.486 C 168.000 147.570,164.085 147.762,163.813 148.047 C 163.517 148.358,164.249 148.398,166.400 148.188 C 170.352 147.803,214.080 147.799,216.400 148.184 C 217.581 148.380,218.062 148.347,217.800 148.089 C 217.345 147.642,192.346 147.288,175.213 147.486 M143.400 148.846 C 132.354 149.344,131.669 149.511,141.598 149.284 C 146.547 149.171,151.047 148.941,151.598 148.774 L 152.600 148.469 151.600 148.495 C 151.050 148.509,147.360 148.667,143.400 148.846 M227.096 148.800 C 227.808 148.963,231.138 149.195,234.496 149.315 C 239.043 149.477,239.682 149.451,237.000 149.211 C 231.382 148.708,225.664 148.471,227.096 148.800 M124.400 150.099 C 120.550 150.304,117.273 150.591,117.118 150.736 C 116.729 151.101,129.916 150.441,131.400 150.021 C 132.060 149.834,132.330 149.692,132.000 149.704 C 131.670 149.716,128.250 149.893,124.400 150.099 M240.925 149.842 C 241.302 150.238,252.405 151.129,252.166 150.744 C 252.079 150.604,249.801 150.366,247.104 150.216 C 244.407 150.066,241.840 149.843,241.400 149.722 C 240.960 149.600,240.746 149.654,240.925 149.842 M105.600 151.827 L 100.200 152.332 105.400 152.124 C 108.260 152.010,110.870 151.761,111.200 151.570 C 111.530 151.380,111.620 151.246,111.400 151.273 C 111.180 151.300,108.570 151.549,105.600 151.827 M256.845 151.607 C 257.150 151.772,259.380 152.005,261.800 152.124 C 265.286 152.296,265.619 152.273,263.400 152.011 C 258.524 151.436,256.273 151.297,256.845 151.607 M92.600 153.241 C 87.780 153.745,87.340 153.954,91.600 153.718 C 93.690 153.602,95.571 153.348,95.780 153.154 C 95.989 152.959,96.079 152.824,95.980 152.853 C 95.881 152.882,94.360 153.057,92.600 153.241 M270.045 153.209 C 270.350 153.376,272.310 153.611,274.400 153.732 C 277.239 153.897,277.644 153.869,276.000 153.620 C 272.502 153.091,269.441 152.880,270.045 153.209 M83.900 154.524 C 81.975 154.743,80.400 155.038,80.400 155.180 C 80.400 155.520,87.054 154.688,87.437 154.300 C 87.600 154.135,87.658 154.028,87.567 154.063 C 87.475 154.098,85.825 154.305,83.900 154.524 M278.650 154.386 C 278.766 154.504,280.463 154.784,282.421 155.010 C 284.378 155.235,285.849 155.301,285.690 155.156 C 285.345 154.842,278.344 154.076,278.650 154.386 M74.200 156.219 L 71.000 156.738 74.000 156.529 C 75.650 156.413,77.171 156.157,77.380 155.960 C 77.589 155.762,77.679 155.623,77.580 155.650 C 77.481 155.678,75.960 155.934,74.200 156.219 M289.023 156.037 C 289.114 156.184,290.586 156.435,292.294 156.594 C 294.002 156.753,295.580 156.999,295.800 157.141 C 296.398 157.528,302.400 158.276,302.400 157.964 C 302.400 157.815,301.005 157.564,299.300 157.406 C 297.595 157.247,296.020 157.001,295.800 156.859 C 295.231 156.491,288.823 155.714,289.023 156.037 M67.728 157.352 C 66.148 157.598,64.756 157.902,64.635 158.027 C 64.262 158.409,70.174 157.549,70.580 157.162 C 70.789 156.963,70.879 156.823,70.780 156.852 C 70.681 156.880,69.308 157.105,67.728 157.352 M59.129 158.954 C 57.661 159.199,56.351 159.509,56.220 159.643 C 56.088 159.776,57.333 159.674,58.986 159.414 C 60.638 159.155,62.112 158.821,62.262 158.672 C 62.411 158.522,62.368 158.424,62.167 158.454 C 61.965 158.484,60.598 158.709,59.129 158.954 M305.504 158.838 C 305.858 159.161,312.071 159.939,311.756 159.621 C 311.636 159.499,310.114 159.213,308.373 158.984 C 306.632 158.755,305.341 158.689,305.504 158.838 M51.126 160.547 C 49.655 160.796,48.346 161.109,48.216 161.243 C 48.087 161.376,49.333 161.274,50.986 161.014 C 52.638 160.755,54.112 160.421,54.262 160.272 C 54.575 159.958,54.641 159.952,51.126 160.547 M314.506 160.239 C 314.673 160.406,316.203 160.791,317.905 161.093 C 319.607 161.396,322.316 161.879,323.925 162.167 C 325.534 162.455,326.704 162.556,326.525 162.391 C 326.346 162.226,325.030 161.900,323.600 161.665 C 319.686 161.025,316.318 160.424,315.201 160.166 C 314.651 160.039,314.338 160.072,314.506 160.239 M46.865 180.394 C 46.964 191.827,47.181 199.341,47.418 199.578 C 47.670 199.830,47.699 198.183,47.498 194.884 C 47.328 192.088,47.236 183.455,47.294 175.700 C 47.353 167.873,47.245 161.600,47.051 161.600 C 46.856 161.600,46.774 169.856,46.865 180.394 M328.859 162.969 C 329.216 163.358,335.621 164.358,335.393 163.989 C 335.293 163.827,334.173 163.569,332.905 163.417 C 331.637 163.265,330.150 163.039,329.600 162.914 C 329.050 162.789,328.717 162.814,328.859 162.969 M337.767 175.903 C 337.743 184.242,337.811 186.081,338.013 182.600 C 338.404 175.858,338.459 164.399,338.100 164.403 C 337.935 164.404,337.785 169.579,337.767 175.903 M337.173 188.433 C 337.158 188.745,336.933 191.467,336.672 194.481 C 336.411 197.496,336.311 199.836,336.449 199.681 C 336.751 199.344,337.632 188.298,337.377 188.044 C 337.280 187.946,337.188 188.122,337.173 188.433 M335.592 202.033 C 335.588 202.125,335.342 203.691,335.045 205.513 C 334.749 207.336,334.618 208.716,334.753 208.581 C 335.072 208.264,336.009 202.275,335.776 202.043 C 335.679 201.946,335.596 201.942,335.592 202.033 M48.505 206.515 C 48.694 208.309,48.996 209.962,49.175 210.189 C 49.355 210.415,49.626 211.632,49.779 212.894 C 49.931 214.155,50.195 215.273,50.365 215.378 C 50.753 215.618,50.089 211.231,49.602 210.338 C 49.403 209.973,49.116 208.303,48.964 206.626 C 48.812 204.950,48.569 203.505,48.424 203.415 C 48.280 203.326,48.316 204.721,48.505 206.515 M333.863 210.700 C 333.584 211.152,333.065 215.030,333.313 214.800 C 333.552 214.579,334.364 210.400,334.169 210.400 C 334.102 210.400,333.964 210.535,333.863 210.700 M332.146 217.210 C 331.922 218.305,331.876 219.200,332.045 219.200 C 332.377 219.200,333.007 215.673,332.725 215.392 C 332.631 215.298,332.370 216.116,332.146 217.210 M51.307 219.272 C 51.528 220.442,51.841 221.548,52.003 221.728 C 52.164 221.908,52.115 221.098,51.893 219.928 C 51.672 218.758,51.359 217.652,51.197 217.472 C 51.036 217.292,51.085 218.102,51.307 219.272 M331.071 221.100 C 330.974 221.265,330.766 221.997,330.609 222.727 C 330.453 223.457,330.073 224.537,329.765 225.127 C 329.457 225.717,329.203 226.470,329.200 226.800 C 329.197 227.130,328.932 227.904,328.611 228.520 C 327.849 229.980,327.166 232.468,327.600 232.200 C 327.786 232.085,328.063 231.408,328.215 230.695 C 328.368 229.983,328.628 229.220,328.794 229.000 C 328.960 228.780,329.312 227.880,329.576 227.000 C 329.840 226.120,330.215 225.040,330.409 224.600 C 331.172 222.872,331.713 220.008,331.071 221.100 M52.856 224.634 C 53.091 225.495,53.376 226.290,53.489 226.400 C 53.841 226.744,53.134 223.820,52.772 223.434 C 52.583 223.233,52.621 223.773,52.856 224.634 M54.231 228.200 C 54.358 229.080,54.622 229.965,54.817 230.166 C 55.012 230.367,54.988 229.827,54.762 228.966 C 54.161 226.665,53.968 226.388,54.231 228.200 M55.649 232.409 C 56.254 234.200,56.595 234.548,56.228 233.000 C 56.071 232.340,55.771 231.624,55.561 231.409 C 55.350 231.194,55.390 231.644,55.649 232.409 M326.390 234.300 C 326.175 234.905,325.798 235.748,325.551 236.173 C 324.883 237.324,324.384 239.257,324.826 238.984 C 325.032 238.857,325.200 238.443,325.200 238.065 C 325.200 237.687,325.484 236.972,325.832 236.476 C 326.478 235.554,327.290 233.200,326.962 233.200 C 326.862 233.200,326.605 233.695,326.390 234.300 M56.956 235.742 C 57.600 237.615,58.089 238.104,57.595 236.381 C 57.385 235.651,57.044 234.884,56.837 234.677 C 56.630 234.470,56.683 234.949,56.956 235.742 M58.405 239.219 C 58.615 239.949,58.956 240.716,59.163 240.923 C 59.370 241.130,59.317 240.651,59.044 239.858 C 58.400 237.985,57.911 237.496,58.405 239.219 M190.082 238.296 C 191.558 238.373,194.078 238.373,195.682 238.297 C 197.287 238.221,196.080 238.158,193.000 238.158 C 189.920 238.157,188.607 238.219,190.082 238.296 M170.800 239.600 L 168.600 239.870 170.676 239.935 C 171.818 239.971,172.864 239.820,173.000 239.600 C 173.136 239.380,173.192 239.229,173.124 239.265 C 173.056 239.301,172.010 239.452,170.800 239.600 M213.565 239.726 C 213.744 239.905,214.681 239.991,215.646 239.918 L 217.400 239.785 215.319 239.593 C 214.175 239.487,213.385 239.547,213.565 239.726 M323.578 240.658 C 323.357 241.239,323.064 241.897,322.926 242.119 C 322.789 242.342,322.866 242.406,323.099 242.263 C 323.539 241.990,324.500 239.600,324.169 239.600 C 324.065 239.600,323.799 240.076,323.578 240.658 M59.600 241.740 C 59.600 242.159,60.781 244.400,61.002 244.400 C 61.227 244.400,60.365 242.338,59.924 241.820 C 59.746 241.611,59.600 241.575,59.600 241.740 M155.400 242.400 L 154.200 242.705 155.276 242.753 C 155.868 242.779,156.464 242.620,156.600 242.400 C 156.736 242.180,156.792 242.021,156.724 242.047 C 156.656 242.073,156.060 242.232,155.400 242.400 M229.541 242.501 C 229.743 242.703,230.333 242.801,230.854 242.719 C 231.655 242.593,231.598 242.537,230.487 242.352 C 229.693 242.221,229.319 242.279,229.541 242.501 M321.689 244.300 C 321.422 244.905,320.932 245.985,320.600 246.700 C 319.560 248.945,320.291 248.113,321.568 245.600 C 322.239 244.280,322.650 243.200,322.482 243.200 C 322.313 243.200,321.957 243.695,321.689 244.300 M62.400 247.340 C 62.400 247.759,63.581 250.000,63.802 250.000 C 64.027 250.000,63.165 247.938,62.724 247.420 C 62.546 247.211,62.400 247.175,62.400 247.340 M318.948 249.700 C 318.380 250.799,318.372 250.921,318.895 250.487 C 319.456 250.021,320.138 248.400,319.773 248.400 C 319.689 248.400,319.318 248.985,318.948 249.700 M65.047 252.416 C 65.626 253.525,66.174 254.360,66.263 254.270 C 66.496 254.038,64.660 250.443,64.296 250.420 C 64.129 250.409,64.467 251.307,65.047 252.416 M314.512 257.083 C 314.250 257.697,313.736 258.605,313.369 259.100 C 313.002 259.595,312.790 260.000,312.897 260.000 C 313.298 260.000,315.274 256.823,315.134 256.403 C 315.054 256.162,314.774 256.468,314.512 257.083 M69.288 259.200 C 69.831 259.970,70.379 260.870,70.506 261.200 C 70.711 261.733,70.739 261.733,70.758 261.200 C 70.769 260.870,70.221 259.970,69.540 259.200 L 68.301 257.800 69.288 259.200 M311.542 261.509 C 311.180 262.109,310.386 263.276,309.777 264.102 C 309.168 264.928,308.785 265.718,308.926 265.859 C 309.066 265.999,309.303 265.774,309.452 265.357 C 309.602 264.941,310.340 263.832,311.093 262.894 C 311.847 261.956,312.404 261.015,312.331 260.803 C 312.259 260.592,311.904 260.909,311.542 261.509 M71.757 262.900 C 72.118 263.395,72.618 264.205,72.870 264.700 C 73.122 265.195,73.484 265.600,73.674 265.600 C 73.864 265.600,74.200 266.075,74.421 266.655 C 74.642 267.236,74.940 267.593,75.084 267.449 C 75.229 267.305,74.954 266.695,74.475 266.093 C 73.995 265.492,73.197 264.326,72.702 263.503 C 72.206 262.680,71.643 262.005,71.451 262.003 C 71.259 262.001,71.397 262.405,71.757 262.900 M307.600 266.878 C 307.600 267.141,307.105 267.905,306.500 268.577 L 305.400 269.797 306.537 268.799 C 307.875 267.623,308.628 266.400,308.014 266.400 C 307.786 266.400,307.600 266.615,307.600 266.878 M76.391 269.188 C 76.857 269.841,77.423 270.491,77.651 270.632 C 77.879 270.772,78.410 271.453,78.831 272.144 C 79.252 272.835,79.598 273.186,79.599 272.924 C 79.599 272.663,78.880 271.617,78.000 270.600 C 77.120 269.583,76.400 268.582,76.400 268.376 C 76.400 268.169,76.208 268.000,75.973 268.000 C 75.738 268.000,75.926 268.535,76.391 269.188 M304.600 270.800 C 304.202 271.240,304.078 271.600,304.324 271.600 C 304.570 271.600,304.965 271.240,305.200 270.800 C 305.435 270.360,305.560 270.000,305.476 270.000 C 305.392 270.000,304.998 270.360,304.600 270.800 M302.881 272.818 C 302.572 273.313,302.546 273.600,302.809 273.600 C 303.038 273.600,303.332 273.322,303.462 272.983 C 303.822 272.045,303.433 271.934,302.881 272.818 M299.549 276.825 C 297.769 278.828,296.829 279.596,296.319 279.463 C 295.923 279.359,295.700 279.438,295.823 279.637 C 296.328 280.455,297.235 279.852,299.787 277.000 C 301.264 275.350,302.379 274.000,302.266 274.000 C 302.153 274.000,300.930 275.271,299.549 276.825 M81.600 275.446 C 81.600 275.983,87.777 282.000,88.329 282.000 C 88.653 282.000,88.318 281.595,87.585 281.100 C 86.851 280.605,85.340 279.090,84.226 277.733 C 82.369 275.472,81.600 274.802,81.600 275.446 " stroke="none" fill="#8c8c8c" fill-rule="evenodd"></path><path id="path4" d="M183.200 238.800 L 178.600 239.040 183.000 239.080 C 185.420 239.102,187.850 238.976,188.400 238.800 C 189.141 238.563,189.193 238.490,188.600 238.520 C 188.160 238.542,185.730 238.668,183.200 238.800 M199.600 239.047 C 201.845 239.333,208.293 239.379,207.863 239.106 C 207.608 238.944,205.420 238.836,203.000 238.866 C 200.580 238.896,199.050 238.977,199.600 239.047 M167.400 240.294 C 166.520 240.382,165.670 240.581,165.510 240.736 C 165.351 240.892,165.981 240.951,166.910 240.869 C 167.840 240.786,168.771 240.556,168.980 240.359 C 169.189 240.162,169.279 240.030,169.180 240.067 C 169.081 240.104,168.280 240.206,167.400 240.294 M217.800 240.603 C 218.714 240.921,221.129 241.009,220.948 240.716 C 220.841 240.542,219.998 240.414,219.076 240.432 C 218.154 240.449,217.580 240.526,217.800 240.603 M158.400 242.000 L 157.000 242.295 158.276 242.347 C 158.978 242.376,159.664 242.220,159.800 242.000 C 159.936 241.780,159.992 241.624,159.924 241.653 C 159.856 241.682,159.170 241.838,158.400 242.000 M226.400 241.994 C 226.730 242.211,227.435 242.391,227.967 242.394 C 229.251 242.402,228.925 242.175,227.200 241.858 C 226.215 241.677,225.978 241.718,226.400 241.994 M153.600 243.088 C 152.133 243.351,151.762 243.896,153.192 243.686 C 153.862 243.588,154.508 243.349,154.629 243.154 C 154.749 242.959,154.792 242.825,154.724 242.854 C 154.656 242.884,154.150 242.990,153.600 243.088 M147.600 244.688 C 146.133 244.951,145.762 245.496,147.192 245.286 C 147.862 245.188,148.508 244.949,148.629 244.754 C 148.749 244.559,148.792 244.425,148.724 244.454 C 148.656 244.484,148.150 244.590,147.600 244.688 M237.806 244.810 C 237.906 244.972,238.435 245.190,238.982 245.294 C 239.529 245.399,239.894 245.352,239.794 245.190 C 239.694 245.028,239.165 244.810,238.618 244.706 C 238.071 244.601,237.706 244.648,237.806 244.810 M143.000 246.215 C 141.412 246.765,141.410 246.767,142.800 246.542 C 143.570 246.418,144.371 246.155,144.580 245.958 C 145.047 245.518,144.987 245.528,143.000 246.215 M242.000 246.111 C 242.110 246.224,242.905 246.509,243.766 246.744 C 244.627 246.979,245.167 247.017,244.966 246.828 C 244.580 246.466,241.656 245.759,242.000 246.111 M139.000 247.485 C 137.775 247.780,137.398 248.328,138.576 248.103 C 139.146 247.994,139.710 247.746,139.830 247.552 C 139.949 247.359,139.992 247.221,139.924 247.246 C 139.856 247.272,139.440 247.379,139.000 247.485 M100.778 269.100 L 99.400 270.600 100.900 269.222 C 102.296 267.938,102.584 267.600,102.278 267.600 C 102.212 267.600,101.537 268.275,100.778 269.100 M291.400 274.800 C 293.592 277.000,295.475 278.800,295.585 278.800 C 295.695 278.800,293.992 277.000,291.800 274.800 C 289.608 272.600,287.725 270.800,287.615 270.800 C 287.505 270.800,289.208 272.600,291.400 274.800 M294.587 280.118 C 294.140 280.603,293.455 281.505,293.064 282.121 C 292.673 282.738,292.059 283.356,291.699 283.494 C 291.340 283.632,290.223 284.567,289.218 285.572 C 286.653 288.137,276.942 296.800,276.632 296.800 C 276.491 296.800,275.242 297.745,273.857 298.900 C 272.472 300.055,270.927 301.270,270.423 301.600 C 269.920 301.930,268.730 302.785,267.778 303.500 C 266.827 304.215,265.926 304.800,265.778 304.800 C 265.629 304.800,264.673 305.399,263.654 306.132 C 261.245 307.863,256.276 310.660,252.000 312.691 C 246.886 315.121,245.740 315.600,245.040 315.600 C 244.688 315.600,244.400 315.759,244.400 315.953 C 244.400 316.146,243.547 316.520,242.505 316.782 C 241.463 317.045,240.428 317.406,240.205 317.585 C 239.982 317.764,238.765 318.140,237.500 318.419 C 236.235 318.699,235.200 319.072,235.200 319.250 C 235.200 319.427,234.300 319.692,233.200 319.838 C 232.100 319.984,231.200 320.231,231.200 320.387 C 231.200 320.544,229.895 320.902,228.300 321.182 C 226.705 321.463,225.220 321.829,225.000 321.996 C 224.780 322.163,223.722 322.426,222.648 322.582 C 221.574 322.737,220.314 323.027,219.848 323.227 C 219.382 323.426,217.020 323.863,214.600 324.198 C 207.780 325.143,205.855 325.611,209.800 325.364 C 211.560 325.253,213.540 324.996,214.200 324.791 C 214.860 324.587,216.930 324.159,218.800 323.840 C 223.871 322.975,226.507 322.414,227.400 322.009 C 227.840 321.810,228.830 321.534,229.600 321.397 C 231.289 321.096,236.287 319.682,237.400 319.190 C 237.840 318.996,239.010 318.617,240.000 318.348 C 240.990 318.080,241.980 317.735,242.200 317.582 C 242.420 317.429,243.320 317.073,244.200 316.790 C 248.294 315.475,260.898 309.099,262.831 307.366 C 263.179 307.055,263.639 306.800,263.854 306.800 C 264.069 306.800,264.803 306.395,265.485 305.900 C 266.167 305.405,267.125 304.730,267.613 304.400 C 268.101 304.070,269.452 303.080,270.617 302.200 C 271.781 301.320,273.233 300.240,273.845 299.800 C 274.456 299.360,276.136 298.012,277.578 296.806 C 279.020 295.599,280.380 294.484,280.600 294.328 C 283.850 292.024,295.777 280.322,295.548 279.662 C 295.467 279.427,295.034 279.632,294.587 280.118 M89.164 280.867 C 88.742 281.655,88.987 282.010,91.854 284.767 C 97.760 290.446,108.935 299.600,109.963 299.600 C 110.203 299.600,110.400 299.754,110.400 299.942 C 110.400 300.131,112.216 301.436,114.435 302.842 C 116.654 304.249,118.679 305.590,118.935 305.822 C 119.191 306.055,119.670 306.369,120.000 306.520 C 120.330 306.672,121.500 307.316,122.600 307.952 C 125.263 309.492,133.743 313.710,136.000 314.618 C 136.990 315.016,138.520 315.650,139.400 316.027 C 140.280 316.404,142.530 317.203,144.400 317.803 C 146.270 318.403,148.160 319.040,148.600 319.219 C 149.842 319.723,154.842 321.119,156.400 321.397 C 157.170 321.534,158.160 321.806,158.600 322.000 C 160.664 322.912,175.060 325.624,177.400 325.542 C 178.916 325.489,177.410 325.174,171.025 324.209 C 168.619 323.846,166.369 323.403,166.025 323.225 C 165.681 323.048,164.500 322.772,163.400 322.614 C 162.300 322.455,161.220 322.186,161.000 322.015 C 160.780 321.845,159.340 321.478,157.800 321.200 C 156.260 320.922,154.820 320.554,154.600 320.383 C 154.380 320.212,153.480 319.942,152.600 319.784 C 151.720 319.625,150.820 319.365,150.600 319.206 C 150.380 319.046,149.302 318.696,148.205 318.428 C 147.108 318.160,146.028 317.795,145.805 317.617 C 145.582 317.438,144.770 317.162,144.000 317.003 C 142.724 316.739,140.592 315.963,137.400 314.600 C 133.245 312.827,121.241 306.672,120.832 306.106 C 120.704 305.929,120.150 305.564,119.600 305.295 C 118.336 304.677,117.541 304.167,114.931 302.300 C 113.778 301.475,112.710 300.800,112.558 300.800 C 112.407 300.800,111.514 300.170,110.574 299.400 C 109.634 298.630,108.731 298.000,108.566 298.000 C 108.402 298.000,107.982 297.736,107.634 297.414 C 105.918 295.827,101.585 292.400,101.294 292.400 C 100.412 292.400,89.548 281.441,89.732 280.737 C 89.991 279.747,89.732 279.806,89.164 280.867 M182.000 326.174 C 186.300 326.647,198.733 326.641,203.200 326.163 C 205.779 325.888,203.219 325.800,192.600 325.800 C 181.761 325.800,179.368 325.884,182.000 326.174 " stroke="none" fill="#b4b4b4" fill-rule="evenodd"></path></g></svg>