<svg id="svg" version="1.1" xmlns="http://www.w3.org/2000/svg" xmlns:xlink="http://www.w3.org/1999/xlink" width="400" height="400" viewBox="0, 0, 400,400"><g id="svgg"><path id="path0" d="M57.500 0.289 C 56.675 0.377,56.000 0.617,56.000 0.824 C 56.000 1.031,55.651 1.200,55.224 1.200 C 54.797 1.200,54.336 1.380,54.200 1.600 C 54.064 1.820,53.637 2.000,53.252 2.000 C 52.866 2.000,52.164 2.360,51.692 2.800 C 51.220 3.240,50.596 3.600,50.305 3.600 C 50.014 3.600,49.517 3.960,49.200 4.400 C 48.883 4.840,48.389 5.200,48.103 5.200 C 47.428 5.200,43.557 9.073,42.582 10.724 C 42.167 11.426,41.686 12.000,41.514 12.000 C 41.341 12.000,41.200 12.360,41.200 12.800 C 41.200 13.240,41.020 13.600,40.800 13.600 C 40.580 13.600,40.400 13.960,40.400 14.400 C 40.400 14.840,40.220 15.200,40.000 15.200 C 39.780 15.200,39.600 15.560,39.600 16.000 C 39.600 16.440,39.420 16.800,39.200 16.800 C 38.980 16.800,38.800 17.340,38.800 18.000 C 38.800 18.660,38.620 19.200,38.400 19.200 C 38.180 19.200,38.000 19.729,38.000 20.376 C 38.000 21.023,37.820 21.664,37.600 21.800 C 37.045 22.143,37.045 377.857,37.600 378.200 C 37.820 378.336,38.000 378.977,38.000 379.624 C 38.000 380.271,38.180 380.800,38.400 380.800 C 38.620 380.800,38.800 381.340,38.800 382.000 C 38.800 382.660,38.980 383.200,39.200 383.200 C 39.420 383.200,39.600 383.560,39.600 384.000 C 39.600 384.440,39.780 384.800,40.000 384.800 C 40.220 384.800,40.400 385.160,40.400 385.600 C 40.400 386.040,40.580 386.400,40.800 386.400 C 41.020 386.400,41.200 386.760,41.200 387.200 C 41.200 387.640,41.341 388.000,41.514 388.000 C 41.686 388.000,42.167 388.574,42.582 389.276 C 43.557 390.927,47.428 394.800,48.103 394.800 C 48.389 394.800,48.883 395.160,49.200 395.600 C 49.517 396.040,50.014 396.400,50.305 396.400 C 50.596 396.400,51.220 396.760,51.692 397.200 C 52.164 397.640,52.866 398.000,53.252 398.000 C 53.637 398.000,54.064 398.180,54.200 398.400 C 54.336 398.620,54.782 398.800,55.190 398.800 C 55.599 398.800,56.008 399.025,56.100 399.300 C 56.345 400.036,275.655 400.036,275.900 399.300 C 275.992 399.025,276.412 398.800,276.833 398.800 C 277.255 398.800,277.600 398.620,277.600 398.400 C 277.600 398.180,277.960 398.000,278.400 398.000 C 278.840 398.000,279.200 397.820,279.200 397.600 C 279.200 397.380,279.560 397.200,280.000 397.200 C 280.440 397.200,280.800 397.020,280.800 396.800 C 280.800 396.580,281.120 396.400,281.512 396.400 C 281.903 396.400,282.483 396.040,282.800 395.600 C 283.117 395.160,283.583 394.800,283.835 394.800 C 284.428 394.800,288.800 390.604,288.800 390.035 C 288.800 389.796,288.935 389.600,289.100 389.599 C 289.554 389.598,291.600 386.209,291.600 385.458 C 291.600 385.096,291.780 384.800,292.000 384.800 C 292.220 384.800,292.400 384.440,292.400 384.000 C 292.400 383.560,292.580 383.200,292.800 383.200 C 293.020 383.200,293.200 382.660,293.200 382.000 C 293.200 381.340,293.380 380.800,293.600 380.800 C 293.820 380.800,294.000 380.091,294.000 379.224 C 294.000 378.357,294.180 377.536,294.400 377.400 C 294.664 377.237,294.800 357.370,294.800 319.100 L 294.800 261.047 300.343 255.614 C 307.257 248.837,308.181 247.184,308.066 241.800 C 308.006 238.957,307.322 222.976,306.975 216.316 C 306.713 211.259,306.619 211.576,309.111 209.114 C 309.270 208.957,311.742 206.527,314.605 203.714 C 317.468 200.902,320.251 197.970,320.790 197.200 C 321.328 196.430,322.244 195.348,322.825 194.795 C 323.406 194.242,324.163 193.252,324.507 192.595 C 324.851 191.938,325.508 191.135,325.966 190.812 C 326.425 190.488,326.800 189.993,326.800 189.712 C 326.800 189.430,326.980 189.200,327.200 189.200 C 327.420 189.200,327.600 188.970,327.600 188.688 C 327.600 188.407,327.960 187.917,328.400 187.600 C 328.840 187.283,329.200 186.769,329.200 186.459 C 329.200 186.148,329.516 185.603,329.903 185.247 C 330.289 184.891,330.860 184.105,331.170 183.500 C 331.481 182.895,331.885 182.400,332.068 182.400 C 332.250 182.400,332.400 182.080,332.400 181.688 C 332.400 181.297,332.760 180.717,333.200 180.400 C 333.640 180.083,334.000 179.503,334.000 179.112 C 334.000 178.720,334.180 178.400,334.400 178.400 C 334.620 178.400,334.800 178.106,334.800 177.747 C 334.800 177.388,335.118 176.803,335.507 176.447 C 335.896 176.091,336.658 174.900,337.201 173.800 C 337.745 172.700,338.304 171.710,338.444 171.600 C 338.916 171.229,341.600 165.625,341.600 165.010 C 341.600 164.674,341.780 164.400,342.000 164.400 C 342.220 164.400,342.400 164.040,342.400 163.600 C 342.400 163.160,342.580 162.800,342.800 162.800 C 343.020 162.800,343.200 162.440,343.200 162.000 C 343.200 161.560,343.380 161.200,343.600 161.200 C 343.820 161.200,344.000 160.840,344.000 160.400 C 344.000 159.960,344.180 159.600,344.400 159.600 C 344.620 159.600,344.800 159.240,344.800 158.800 C 344.800 158.360,344.980 158.000,345.200 158.000 C 345.420 158.000,345.600 157.640,345.600 157.200 C 345.600 156.760,345.780 156.400,346.000 156.400 C 346.220 156.400,346.400 155.950,346.400 155.400 C 346.400 154.850,346.580 154.400,346.800 154.400 C 347.020 154.400,347.200 154.040,347.200 153.600 C 347.200 153.160,347.380 152.800,347.600 152.800 C 347.820 152.800,348.000 152.451,348.000 152.024 C 348.000 151.597,348.180 151.136,348.400 151.000 C 348.620 150.864,348.800 150.313,348.800 149.776 C 348.800 149.239,348.980 148.800,349.200 148.800 C 349.420 148.800,349.600 148.440,349.600 148.000 C 349.600 147.560,349.780 147.200,350.000 147.200 C 350.220 147.200,350.400 146.660,350.400 146.000 C 350.400 145.340,350.580 144.800,350.800 144.800 C 351.020 144.800,351.200 144.438,351.200 143.995 C 351.200 143.552,351.380 142.832,351.600 142.395 C 351.820 141.958,352.180 141.242,352.400 140.805 C 352.620 140.368,352.800 139.648,352.800 139.205 C 352.800 138.762,352.980 138.400,353.200 138.400 C 353.420 138.400,353.600 137.961,353.600 137.424 C 353.600 136.887,353.780 136.336,354.000 136.200 C 354.220 136.064,354.400 135.434,354.400 134.800 C 354.400 134.166,354.580 133.536,354.800 133.400 C 355.020 133.264,355.200 132.623,355.200 131.976 C 355.200 131.329,355.360 130.800,355.556 130.800 C 355.752 130.800,356.009 130.215,356.127 129.500 C 356.246 128.785,356.546 127.390,356.796 126.400 C 357.045 125.410,357.351 124.060,357.475 123.400 C 357.599 122.740,357.847 122.015,358.026 121.789 C 358.204 121.563,358.476 119.988,358.630 118.289 C 358.784 116.590,359.066 115.200,359.255 115.200 C 359.445 115.200,359.600 114.120,359.600 112.800 C 359.600 111.467,359.778 110.400,360.000 110.400 C 360.220 110.400,360.400 109.511,360.400 108.424 C 360.400 107.337,360.580 106.336,360.800 106.200 C 361.020 106.064,361.200 104.714,361.200 103.200 C 361.200 101.686,361.380 100.336,361.600 100.200 C 361.823 100.062,362.000 98.204,362.000 96.000 C 362.000 93.796,362.177 91.938,362.400 91.800 C 362.654 91.643,362.800 86.596,362.800 77.976 C 362.800 69.192,362.659 64.400,362.400 64.400 C 362.180 64.400,362.000 63.860,362.000 63.200 C 362.000 62.540,361.820 62.000,361.600 62.000 C 361.380 62.000,361.200 61.758,361.200 61.462 C 361.200 60.700,357.371 56.800,356.623 56.800 C 356.280 56.800,356.000 56.620,356.000 56.400 C 356.000 56.180,355.640 56.000,355.200 56.000 C 354.760 56.000,354.400 55.820,354.400 55.600 C 354.400 55.372,353.208 55.200,351.624 55.200 C 350.097 55.200,348.736 55.020,348.600 54.800 C 348.449 54.555,345.263 54.400,340.376 54.400 C 335.325 54.400,332.400 54.547,332.400 54.800 C 332.400 55.048,330.200 55.200,326.600 55.200 C 323.000 55.200,320.800 55.352,320.800 55.600 C 320.800 55.835,319.400 56.000,317.400 56.000 C 315.400 56.000,314.000 56.165,314.000 56.400 C 314.000 56.622,312.933 56.800,311.600 56.800 C 310.267 56.800,309.200 56.978,309.200 57.200 C 309.200 57.422,308.133 57.600,306.800 57.600 C 305.467 57.600,304.400 57.778,304.400 58.000 C 304.400 58.220,303.500 58.400,302.400 58.400 C 301.300 58.400,300.400 58.563,300.400 58.763 C 300.400 58.962,300.042 59.032,299.605 58.917 C 299.168 58.803,298.076 59.003,297.179 59.362 C 294.709 60.350,294.800 61.033,294.800 41.400 C 294.800 29.730,294.657 23.159,294.400 23.000 C 294.180 22.864,294.000 21.953,294.000 20.976 C 294.000 19.999,293.820 19.200,293.600 19.200 C 293.380 19.200,293.200 18.660,293.200 18.000 C 293.200 17.340,293.020 16.800,292.800 16.800 C 292.580 16.800,292.400 16.440,292.400 16.000 C 292.400 15.560,292.220 15.200,292.000 15.200 C 291.780 15.200,291.600 14.854,291.600 14.431 C 291.600 14.007,290.970 12.836,290.200 11.827 C 289.430 10.818,288.800 9.889,288.800 9.762 C 288.800 9.336,284.298 5.200,283.835 5.200 C 283.583 5.200,283.117 4.840,282.800 4.400 C 282.483 3.960,281.903 3.600,281.512 3.600 C 281.120 3.600,280.799 3.465,280.797 3.300 C 280.793 2.941,278.856 2.000,278.120 2.000 C 277.834 2.000,277.600 1.820,277.600 1.600 C 277.600 1.380,277.255 1.200,276.833 1.200 C 276.412 1.200,275.992 0.975,275.900 0.700 C 275.742 0.226,61.884 -0.177,57.500 0.289 M216.800 25.576 C 216.800 26.003,216.620 26.464,216.400 26.600 C 216.180 26.736,216.000 27.276,216.000 27.800 C 216.000 28.324,215.820 28.864,215.600 29.000 C 215.380 29.136,215.200 29.676,215.200 30.200 C 215.200 30.724,215.020 31.264,214.800 31.400 C 214.580 31.536,214.400 32.076,214.400 32.600 C 214.400 33.124,214.220 33.664,214.000 33.800 C 213.780 33.936,213.600 34.476,213.600 35.000 C 213.600 35.524,213.420 36.064,213.200 36.200 C 212.980 36.336,212.800 36.847,212.800 37.335 C 212.800 37.823,212.520 38.622,212.177 39.111 L 211.555 40.000 166.109 40.000 C 116.336 40.000,119.200 40.137,119.200 37.762 C 119.200 37.259,119.020 36.736,118.800 36.600 C 118.580 36.464,118.400 35.924,118.400 35.400 C 118.400 34.876,118.220 34.336,118.000 34.200 C 117.780 34.064,117.600 33.601,117.600 33.171 C 117.600 32.741,117.441 32.077,117.246 31.695 C 116.491 30.212,115.175 25.565,115.405 25.192 C 115.948 24.313,216.800 24.694,216.800 25.576 M88.800 26.000 C 88.800 26.440,88.980 26.800,89.200 26.800 C 89.420 26.800,89.600 27.340,89.600 28.000 C 89.600 28.660,89.780 29.200,90.000 29.200 C 90.220 29.200,90.400 29.740,90.400 30.400 C 90.400 31.060,90.580 31.600,90.800 31.600 C 91.020 31.600,91.200 32.219,91.200 32.976 C 91.200 33.733,91.380 34.464,91.600 34.600 C 91.820 34.736,92.000 35.287,92.000 35.824 C 92.000 36.361,92.174 36.800,92.387 36.800 C 92.601 36.800,92.678 37.054,92.559 37.364 C 92.439 37.674,92.629 38.482,92.979 39.160 C 93.330 39.837,93.598 40.439,93.575 40.496 C 93.473 40.757,94.087 43.071,94.424 43.695 C 94.631 44.077,94.800 44.842,94.800 45.395 C 94.800 45.948,94.980 46.400,95.200 46.400 C 95.420 46.400,95.600 46.940,95.600 47.600 C 95.600 48.260,95.780 48.800,96.000 48.800 C 96.220 48.800,96.400 49.239,96.400 49.776 C 96.400 50.313,96.580 50.864,96.800 51.000 C 97.020 51.136,97.200 51.597,97.200 52.024 C 97.200 52.451,97.380 52.800,97.600 52.800 C 97.820 52.800,98.000 53.036,98.000 53.325 C 98.000 53.613,98.360 54.236,98.800 54.708 C 99.240 55.180,99.600 55.691,99.600 55.844 C 99.600 56.353,103.940 60.400,104.486 60.400 C 104.781 60.400,105.283 60.760,105.600 61.200 C 105.917 61.640,106.497 62.000,106.888 62.000 C 107.280 62.000,107.600 62.180,107.600 62.400 C 107.600 62.620,107.960 62.800,108.400 62.800 C 108.840 62.800,109.200 62.980,109.200 63.200 C 109.200 63.420,109.650 63.600,110.200 63.600 C 110.750 63.600,111.200 63.780,111.200 64.000 C 111.200 64.220,112.100 64.400,113.200 64.400 C 114.300 64.400,115.200 64.580,115.200 64.800 C 115.200 65.065,132.400 65.200,166.000 65.200 C 199.600 65.200,216.800 65.065,216.800 64.800 C 216.800 64.580,217.599 64.400,218.576 64.400 C 219.553 64.400,220.464 64.220,220.600 64.000 C 220.736 63.780,221.287 63.600,221.824 63.600 C 222.361 63.600,222.800 63.420,222.800 63.200 C 222.800 62.980,223.160 62.800,223.600 62.800 C 224.040 62.800,224.400 62.620,224.400 62.400 C 224.400 62.180,224.688 62.000,225.040 62.000 C 225.391 62.000,226.183 61.460,226.800 60.800 C 227.417 60.140,228.125 59.600,228.374 59.600 C 228.889 59.600,231.600 56.997,231.600 56.502 C 231.600 56.323,231.960 55.917,232.400 55.600 C 232.840 55.283,233.200 54.703,233.200 54.312 C 233.200 53.920,233.380 53.600,233.600 53.600 C 233.820 53.600,234.000 53.330,234.000 53.000 C 234.000 52.670,234.180 52.400,234.400 52.400 C 234.620 52.400,234.800 51.950,234.800 51.400 C 234.800 50.850,234.980 50.400,235.200 50.400 C 235.420 50.400,235.600 49.961,235.600 49.424 C 235.600 48.887,235.780 48.336,236.000 48.200 C 236.220 48.064,236.400 47.524,236.400 47.000 C 236.400 46.476,236.580 45.936,236.800 45.800 C 237.020 45.664,237.200 45.023,237.200 44.376 C 237.200 43.729,237.380 43.200,237.600 43.200 C 237.820 43.200,238.000 42.761,238.000 42.224 C 238.000 41.687,238.180 41.136,238.400 41.000 C 238.620 40.864,238.800 40.324,238.800 39.800 C 238.800 39.276,238.980 38.736,239.200 38.600 C 239.420 38.464,239.600 38.001,239.600 37.571 C 239.600 37.141,239.763 36.477,239.963 36.095 C 240.560 34.953,241.600 31.178,241.600 30.154 C 241.600 29.629,241.780 29.200,242.000 29.200 C 242.220 29.200,242.400 28.660,242.400 28.000 C 242.400 27.340,242.580 26.800,242.800 26.800 C 243.020 26.800,243.200 26.440,243.200 26.000 C 243.200 25.219,243.467 25.200,254.600 25.200 C 261.933 25.200,266.000 25.343,266.000 25.600 C 266.000 25.820,266.283 26.000,266.629 26.000 C 268.399 26.000,268.400 26.010,268.400 47.600 C 268.400 69.190,268.399 69.200,266.629 69.200 C 266.283 69.200,266.000 69.380,266.000 69.600 C 266.000 69.820,265.561 70.000,265.024 70.000 C 264.487 70.000,263.936 70.180,263.800 70.400 C 263.664 70.620,263.203 70.800,262.776 70.800 C 262.349 70.800,262.000 70.980,262.000 71.200 C 262.000 71.420,261.640 71.600,261.200 71.600 C 260.760 71.600,260.400 71.780,260.400 72.000 C 260.400 72.220,260.040 72.400,259.600 72.400 C 259.160 72.400,258.800 72.580,258.800 72.800 C 258.800 73.020,258.530 73.200,258.200 73.200 C 257.870 73.200,257.600 73.380,257.600 73.600 C 257.600 73.820,257.251 74.000,256.824 74.000 C 256.397 74.000,255.950 74.157,255.832 74.348 C 255.714 74.540,255.095 74.801,254.457 74.929 C 253.818 75.056,253.050 75.395,252.748 75.680 C 252.447 75.966,252.020 76.220,251.800 76.243 C 250.861 76.346,249.600 76.920,249.600 77.247 C 249.600 77.441,249.255 77.600,248.833 77.600 C 248.412 77.600,248.007 77.735,247.933 77.900 C 247.860 78.065,246.900 78.650,245.800 79.199 C 244.700 79.749,243.451 80.514,243.025 80.899 C 242.598 81.285,242.013 81.600,241.725 81.600 C 241.436 81.600,241.200 81.780,241.200 82.000 C 241.200 82.220,240.880 82.400,240.488 82.400 C 240.097 82.400,239.517 82.760,239.200 83.200 C 238.883 83.640,238.303 84.000,237.912 84.000 C 237.520 84.000,237.200 84.180,237.200 84.400 C 237.200 84.620,236.964 84.800,236.675 84.800 C 236.387 84.800,235.764 85.160,235.292 85.600 C 234.820 86.040,234.196 86.400,233.905 86.400 C 233.614 86.400,233.117 86.760,232.800 87.200 C 232.483 87.640,232.020 88.000,231.771 88.000 C 231.522 88.000,230.754 88.540,230.063 89.200 C 229.372 89.860,228.602 90.400,228.351 90.400 C 228.099 90.400,227.603 90.717,227.247 91.104 C 226.891 91.492,225.880 92.339,225.000 92.988 C 224.120 93.636,222.950 94.631,222.400 95.199 C 221.850 95.766,220.770 96.673,220.000 97.213 C 218.077 98.561,209.607 107.073,209.898 107.365 C 210.027 107.494,209.923 107.600,209.667 107.600 C 209.084 107.600,207.600 109.053,207.600 109.624 C 207.600 109.857,207.420 109.936,207.200 109.800 C 206.980 109.664,206.800 109.750,206.800 109.991 C 206.800 110.301,204.088 110.372,197.500 110.236 C 192.385 110.130,184.564 109.968,180.119 109.875 C 172.481 109.717,169.200 110.024,169.200 110.898 C 169.200 111.064,168.919 111.200,168.575 111.200 C 167.836 111.200,163.899 114.939,151.517 127.400 C 146.489 132.460,136.820 142.180,130.032 149.000 C 117.672 161.416,116.000 163.396,116.000 165.612 C 116.000 166.265,115.820 166.800,115.600 166.800 C 115.374 166.800,115.200 167.933,115.200 169.400 C 115.200 170.867,115.374 172.000,115.600 172.000 C 115.820 172.000,116.000 172.414,116.000 172.920 C 116.000 173.974,116.853 175.992,117.300 175.997 C 117.465 175.999,117.600 176.288,117.600 176.640 C 117.600 177.396,121.088 180.800,121.864 180.800 C 122.159 180.800,122.400 180.980,122.400 181.200 C 122.400 181.420,122.940 181.600,123.600 181.600 C 124.260 181.600,124.800 181.780,124.800 182.000 C 124.800 182.220,125.610 182.400,126.600 182.400 C 127.590 182.400,128.400 182.580,128.400 182.800 C 128.400 183.020,129.264 183.200,130.320 183.200 C 131.376 183.200,132.411 183.363,132.620 183.561 C 132.983 183.906,134.477 184.157,139.100 184.650 C 140.255 184.773,141.200 185.037,141.200 185.237 C 141.200 185.437,142.089 185.600,143.176 185.600 C 144.263 185.600,145.264 185.780,145.400 186.000 C 145.536 186.220,146.537 186.400,147.624 186.400 C 148.711 186.400,149.600 186.580,149.600 186.800 C 149.600 187.020,150.489 187.200,151.576 187.200 C 152.663 187.200,153.664 187.380,153.800 187.600 C 153.936 187.820,154.847 188.000,155.824 188.000 C 156.801 188.000,157.600 188.180,157.600 188.400 C 157.600 188.620,157.420 188.800,157.200 188.800 C 156.980 188.800,156.800 189.520,156.800 190.400 C 156.800 191.280,156.620 192.000,156.400 192.000 C 156.180 192.000,156.000 192.630,156.000 193.400 C 156.000 194.170,155.820 194.800,155.600 194.800 C 155.380 194.800,155.200 195.700,155.200 196.800 C 155.200 197.900,155.020 198.800,154.800 198.800 C 154.580 198.800,154.400 199.599,154.400 200.576 C 154.400 202.320,154.300 202.454,148.814 208.057 C 145.742 211.194,143.311 213.844,143.411 213.945 C 143.512 214.046,143.236 214.380,142.797 214.687 C 142.359 214.994,142.000 215.595,142.000 216.023 C 142.000 216.450,141.820 216.800,141.600 216.800 C 141.380 216.800,141.200 217.340,141.200 218.000 C 141.200 218.660,141.020 219.200,140.800 219.200 C 140.569 219.200,140.400 220.467,140.400 222.200 C 140.400 223.933,140.569 225.200,140.800 225.200 C 141.020 225.200,141.200 225.652,141.200 226.205 C 141.200 227.201,141.890 228.773,142.534 229.245 C 142.718 229.379,142.853 229.604,142.834 229.745 C 142.815 229.885,142.800 230.178,142.800 230.396 C 142.800 230.614,145.050 233.042,147.800 235.792 C 153.599 241.591,153.387 241.195,150.700 241.218 C 148.287 241.238,144.632 242.099,145.076 242.543 C 145.241 242.708,145.068 242.724,144.691 242.580 C 144.254 242.412,143.918 242.548,143.761 242.956 C 143.627 243.308,143.361 243.499,143.171 243.382 C 142.981 243.265,142.597 243.536,142.317 243.984 C 142.037 244.433,141.615 244.800,141.379 244.800 C 141.144 244.800,140.593 245.115,140.155 245.500 C 139.372 246.189,138.378 246.811,136.800 247.600 C 136.360 247.820,135.642 248.180,135.205 248.400 C 134.768 248.620,134.138 248.800,133.805 248.800 C 133.472 248.800,133.200 248.980,133.200 249.200 C 133.200 249.420,132.840 249.600,132.400 249.600 C 131.960 249.600,131.600 249.780,131.600 250.000 C 131.600 250.220,131.161 250.400,130.624 250.400 C 130.087 250.400,129.536 250.580,129.400 250.800 C 129.264 251.020,128.803 251.200,128.376 251.200 C 127.949 251.200,127.600 251.346,127.600 251.525 C 127.600 251.704,126.970 252.098,126.200 252.400 C 125.430 252.702,124.800 253.096,124.800 253.275 C 124.800 253.454,124.440 253.600,124.000 253.600 C 123.560 253.600,123.200 253.780,123.200 254.000 C 123.200 254.220,122.840 254.400,122.400 254.400 C 121.960 254.400,121.600 254.580,121.600 254.800 C 121.600 255.020,121.280 255.200,120.888 255.200 C 120.497 255.200,119.917 255.560,119.600 256.000 C 119.283 256.440,118.743 256.800,118.400 256.800 C 118.057 256.800,117.517 257.160,117.200 257.600 C 116.883 258.040,116.348 258.404,116.012 258.409 C 114.990 258.424,107.600 265.076,107.600 265.981 C 107.600 266.211,107.420 266.400,107.200 266.400 C 106.980 266.400,106.800 266.598,106.800 266.840 C 106.800 267.081,106.260 267.783,105.600 268.400 C 104.940 269.017,104.400 269.692,104.400 269.901 C 104.400 270.110,103.860 270.846,103.200 271.537 C 102.540 272.228,102.000 273.064,102.000 273.396 C 102.000 273.728,101.820 274.000,101.600 274.000 C 101.380 274.000,101.200 274.236,101.200 274.525 C 101.200 274.813,100.840 275.436,100.400 275.908 C 99.960 276.380,99.600 276.954,99.600 277.183 C 99.600 277.412,99.420 277.600,99.200 277.600 C 98.980 277.600,98.800 277.960,98.800 278.400 C 98.800 278.840,98.620 279.200,98.400 279.200 C 98.180 279.200,98.000 279.560,98.000 280.000 C 98.000 280.440,97.820 280.800,97.600 280.800 C 97.380 280.800,97.200 281.160,97.200 281.600 C 97.200 282.040,97.020 282.400,96.800 282.400 C 96.580 282.400,96.400 282.749,96.400 283.176 C 96.400 283.603,96.220 284.064,96.000 284.200 C 95.780 284.336,95.600 284.887,95.600 285.424 C 95.600 285.961,95.460 286.400,95.289 286.400 C 95.005 286.400,93.448 290.856,93.402 291.800 C 93.391 292.020,93.141 292.782,92.846 293.493 C 92.550 294.204,92.416 295.066,92.548 295.409 C 92.679 295.751,92.623 296.340,92.422 296.716 C 91.319 298.785,90.603 315.993,91.541 317.905 C 91.728 318.287,92.313 319.476,92.841 320.547 C 93.852 322.598,96.769 325.200,98.058 325.200 C 98.466 325.200,98.800 325.380,98.800 325.600 C 98.800 325.820,99.520 326.000,100.400 326.000 C 101.280 326.000,102.000 326.180,102.000 326.400 C 102.000 326.647,104.067 326.800,107.400 326.800 C 110.733 326.800,112.800 326.647,112.800 326.400 C 112.800 326.171,114.000 326.000,115.600 326.000 C 117.140 326.000,118.400 325.846,118.400 325.658 C 118.400 325.469,119.885 325.192,121.700 325.041 C 123.515 324.891,125.060 324.595,125.133 324.384 C 125.207 324.173,125.657 323.997,126.133 323.994 C 127.083 323.987,129.822 323.111,130.259 322.674 C 130.410 322.523,130.953 322.400,131.467 322.400 C 131.980 322.400,132.400 322.220,132.400 322.000 C 132.400 321.780,132.760 321.600,133.200 321.600 C 133.640 321.600,134.000 321.420,134.000 321.200 C 134.000 320.980,134.343 320.800,134.762 320.800 C 135.578 320.800,138.912 319.199,139.133 318.700 C 139.207 318.535,139.522 318.400,139.833 318.400 C 140.145 318.400,140.400 318.220,140.400 318.000 C 140.400 317.780,140.670 317.600,141.000 317.600 C 141.330 317.600,141.600 317.420,141.600 317.200 C 141.600 316.980,141.920 316.800,142.312 316.800 C 142.703 316.800,143.283 316.440,143.600 316.000 C 143.917 315.560,144.457 315.200,144.800 315.200 C 145.143 315.200,145.683 314.840,146.000 314.400 C 146.317 313.960,146.821 313.600,147.120 313.600 C 147.418 313.600,148.354 312.880,149.200 312.000 C 150.046 311.120,150.941 310.400,151.191 310.400 C 151.698 310.400,155.556 306.542,157.400 304.189 C 158.060 303.347,158.825 302.433,159.100 302.158 C 159.375 301.882,159.600 301.414,159.600 301.117 C 159.600 300.820,159.960 300.317,160.400 300.000 C 160.840 299.683,161.200 299.103,161.200 298.712 C 161.200 298.320,161.380 298.000,161.600 298.000 C 161.820 298.000,162.000 297.764,162.000 297.475 C 162.000 297.187,162.360 296.564,162.800 296.092 C 163.240 295.620,163.600 294.956,163.600 294.617 C 163.600 294.278,163.780 294.000,164.000 294.000 C 164.220 294.000,164.400 293.640,164.400 293.200 C 164.400 292.760,164.580 292.400,164.800 292.400 C 165.020 292.400,165.200 292.040,165.200 291.600 C 165.200 291.160,165.380 290.800,165.600 290.800 C 165.820 290.800,166.000 290.350,166.000 289.800 C 166.000 289.250,166.180 288.800,166.400 288.800 C 166.620 288.800,166.800 288.440,166.800 288.000 C 166.800 287.560,166.980 287.200,167.200 287.200 C 167.420 287.200,167.600 286.851,167.600 286.424 C 167.600 285.997,167.780 285.536,168.000 285.400 C 168.220 285.264,168.400 284.713,168.400 284.176 C 168.400 283.639,168.580 283.200,168.800 283.200 C 169.020 283.200,169.200 282.840,169.200 282.400 C 169.200 281.960,169.380 281.600,169.600 281.600 C 169.820 281.600,170.000 281.240,170.000 280.800 C 170.000 280.360,170.180 280.000,170.400 280.000 C 170.620 280.000,170.800 279.706,170.800 279.347 C 170.800 278.988,171.132 278.403,171.537 278.047 C 171.943 277.691,172.511 276.950,172.801 276.400 C 173.090 275.850,173.651 275.170,174.048 274.889 C 174.444 274.607,174.885 273.752,175.029 272.989 C 175.172 272.225,175.449 271.600,175.645 271.600 C 175.840 271.600,176.000 269.980,176.000 268.000 C 176.000 266.020,176.086 264.400,176.192 264.400 C 176.298 264.400,178.831 266.830,181.822 269.800 C 185.025 272.981,187.576 275.200,188.030 275.200 C 188.453 275.200,188.800 275.380,188.800 275.600 C 188.800 275.820,189.239 276.000,189.776 276.000 C 190.313 276.000,190.864 276.180,191.000 276.400 C 191.139 276.625,193.071 276.800,195.424 276.800 C 197.941 276.800,199.600 276.641,199.600 276.400 C 199.600 276.180,199.960 276.000,200.400 276.000 C 200.840 276.000,201.200 275.820,201.200 275.600 C 201.200 275.380,201.532 275.200,201.939 275.200 C 202.852 275.200,203.366 274.758,209.653 268.572 C 212.432 265.837,214.997 263.600,215.353 263.600 C 215.709 263.600,216.000 263.420,216.000 263.200 C 216.000 262.978,217.067 262.800,218.400 262.800 C 219.733 262.800,220.800 262.622,220.800 262.400 C 220.800 262.180,221.610 262.000,222.600 262.000 C 223.590 262.000,224.400 261.820,224.400 261.600 C 224.400 261.380,225.019 261.200,225.776 261.200 C 226.533 261.200,227.264 261.020,227.400 260.800 C 228.327 259.300,229.970 261.126,229.987 263.676 C 229.994 264.708,230.180 265.664,230.400 265.800 C 230.620 265.936,230.800 266.937,230.800 268.024 C 230.800 269.111,230.980 270.000,231.200 270.000 C 231.420 270.000,231.600 270.990,231.600 272.200 C 231.600 273.410,231.780 274.400,232.000 274.400 C 232.220 274.400,232.400 275.289,232.400 276.376 C 232.400 277.463,232.580 278.464,232.800 278.600 C 233.020 278.736,233.200 279.827,233.200 281.024 C 233.200 282.221,233.380 283.200,233.600 283.200 C 233.820 283.200,234.000 284.100,234.000 285.200 C 234.000 286.300,234.180 287.200,234.400 287.200 C 234.620 287.200,234.800 288.190,234.800 289.400 C 234.800 290.610,234.980 291.600,235.200 291.600 C 235.420 291.600,235.600 292.140,235.600 292.800 C 235.600 293.460,235.780 294.000,236.000 294.000 C 236.220 294.000,236.400 294.360,236.400 294.800 C 236.400 295.240,236.580 295.600,236.800 295.600 C 237.020 295.600,237.200 295.884,237.200 296.231 C 237.200 296.987,240.085 299.846,241.207 300.202 C 241.643 300.341,242.000 300.622,242.000 300.827 C 242.000 301.032,242.439 301.200,242.976 301.200 C 243.513 301.200,244.064 301.380,244.200 301.600 C 244.524 302.124,252.276 302.124,252.600 301.600 C 252.736 301.380,253.197 301.200,253.624 301.200 C 254.051 301.200,254.400 301.020,254.400 300.800 C 254.400 300.580,254.664 300.400,254.987 300.400 C 255.310 300.400,258.356 297.610,261.756 294.200 C 265.155 290.790,268.041 288.000,268.168 288.000 C 268.296 288.000,268.400 307.093,268.400 330.429 C 268.400 375.489,268.461 374.000,266.629 374.000 C 266.283 374.000,266.000 374.180,266.000 374.400 C 266.000 374.666,232.400 374.800,166.000 374.800 C 99.600 374.800,66.000 374.666,66.000 374.400 C 66.000 374.180,65.717 374.000,65.371 374.000 C 63.493 374.000,63.600 384.525,63.600 200.000 C 63.600 15.475,63.493 26.000,65.371 26.000 C 65.717 26.000,66.000 25.820,66.000 25.600 C 66.000 25.343,70.067 25.200,77.400 25.200 C 88.533 25.200,88.800 25.219,88.800 26.000 M336.400 85.600 C 336.400 88.533,336.244 90.400,336.000 90.400 C 335.761 90.400,335.600 91.933,335.600 94.200 C 335.600 96.467,335.439 98.000,335.200 98.000 C 334.978 98.000,334.800 99.059,334.800 100.376 C 334.800 101.683,334.620 102.864,334.400 103.000 C 334.180 103.136,334.000 104.227,334.000 105.424 C 334.000 106.621,333.820 107.600,333.600 107.600 C 333.380 107.600,333.200 108.410,333.200 109.400 C 333.200 110.390,333.020 111.200,332.800 111.200 C 332.580 111.200,332.400 111.909,332.400 112.776 C 332.400 113.643,332.220 114.464,332.000 114.600 C 331.780 114.736,331.600 115.456,331.600 116.200 C 331.600 116.944,331.420 117.664,331.200 117.800 C 330.980 117.936,330.800 118.667,330.800 119.424 C 330.800 120.181,330.620 120.800,330.400 120.800 C 330.180 120.800,330.000 121.192,330.000 121.672 C 330.000 122.592,329.340 124.928,328.751 126.095 C 328.558 126.477,328.400 127.141,328.400 127.571 C 328.400 128.001,328.220 128.464,328.000 128.600 C 327.780 128.736,327.600 129.276,327.600 129.800 C 327.600 130.324,327.420 130.864,327.200 131.000 C 326.980 131.136,326.800 131.687,326.800 132.224 C 326.800 132.761,326.599 133.200,326.353 133.200 C 326.104 133.200,325.999 133.553,326.116 134.000 C 326.231 134.440,326.175 134.800,325.992 134.800 C 325.809 134.800,325.576 135.115,325.476 135.500 C 325.375 135.885,325.272 135.165,325.246 133.900 C 325.220 132.602,325.374 131.600,325.600 131.600 C 325.841 131.600,326.000 129.933,326.000 127.400 C 326.000 125.090,325.846 123.200,325.657 123.200 C 325.469 123.200,325.214 121.740,325.092 119.955 C 324.970 118.170,324.674 116.514,324.435 116.275 C 324.196 116.036,324.000 115.514,324.000 115.115 C 324.000 114.716,323.841 114.077,323.647 113.695 C 323.452 113.313,323.048 112.460,322.747 111.800 C 322.447 111.140,322.111 110.510,322.000 110.400 C 321.889 110.290,321.530 109.660,321.202 109.000 C 320.874 108.340,320.289 107.509,319.903 107.153 C 319.516 106.797,319.200 106.292,319.200 106.031 C 319.200 105.360,311.655 98.000,310.967 98.000 C 310.655 98.000,310.400 97.850,310.400 97.668 C 310.400 97.485,309.905 97.080,309.300 96.768 C 308.695 96.456,308.110 96.111,308.000 96.001 C 307.455 95.454,304.230 94.000,303.562 94.000 C 303.143 94.000,302.800 93.801,302.800 93.557 C 302.800 93.314,302.552 93.209,302.250 93.326 C 301.947 93.442,301.200 93.277,300.589 92.961 C 299.978 92.644,299.137 92.493,298.720 92.625 C 298.303 92.758,297.673 92.626,297.319 92.333 C 296.400 91.570,283.999 91.571,283.079 92.334 C 282.725 92.628,282.247 92.753,282.018 92.611 C 281.159 92.080,281.654 91.641,283.405 91.378 C 284.398 91.229,285.308 90.948,285.429 90.754 C 285.549 90.559,286.076 90.400,286.600 90.400 C 287.124 90.400,287.664 90.220,287.800 90.000 C 287.936 89.780,288.476 89.600,289.000 89.600 C 289.524 89.600,290.064 89.420,290.200 89.200 C 290.336 88.980,290.887 88.800,291.424 88.800 C 291.961 88.800,292.400 88.620,292.400 88.400 C 292.400 88.180,293.019 88.000,293.776 88.000 C 294.533 88.000,295.264 87.820,295.400 87.600 C 295.536 87.380,296.187 87.200,296.847 87.200 C 297.545 87.200,297.944 87.033,297.800 86.800 C 297.649 86.556,298.263 86.400,299.376 86.400 C 300.379 86.400,301.200 86.220,301.200 86.000 C 301.200 85.780,301.920 85.600,302.800 85.600 C 303.680 85.600,304.400 85.420,304.400 85.200 C 304.400 84.980,305.210 84.800,306.200 84.800 C 307.190 84.800,308.000 84.620,308.000 84.400 C 308.000 84.180,308.900 84.000,310.000 84.000 C 311.100 84.000,312.000 83.820,312.000 83.600 C 312.000 83.378,313.067 83.200,314.400 83.200 C 315.733 83.200,316.800 83.022,316.800 82.800 C 316.800 82.569,318.059 82.400,319.776 82.400 C 321.413 82.400,322.864 82.220,323.000 82.000 C 323.142 81.771,325.204 81.600,327.824 81.600 C 330.608 81.600,332.400 81.443,332.400 81.200 C 332.400 80.980,333.300 80.800,334.400 80.800 L 336.400 80.800 336.400 85.600 M270.000 97.600 C 270.000 97.820,269.737 98.000,269.415 98.000 C 268.766 98.000,261.200 105.397,261.200 106.032 C 261.200 106.253,260.846 106.813,260.414 107.277 C 259.981 107.741,259.710 108.255,259.812 108.419 C 259.913 108.582,259.743 108.813,259.435 108.931 C 259.127 109.049,258.755 109.696,258.607 110.368 C 258.459 111.041,258.172 111.694,257.969 111.819 C 257.766 111.945,257.600 112.397,257.600 112.824 C 257.600 113.251,257.420 113.600,257.200 113.600 C 256.980 113.600,256.800 114.039,256.800 114.576 C 256.800 115.113,256.620 115.664,256.400 115.800 C 256.180 115.936,256.000 116.577,256.000 117.224 C 256.000 117.871,255.820 118.400,255.600 118.400 C 255.378 118.400,255.200 119.467,255.200 120.800 C 255.200 122.133,255.022 123.200,254.800 123.200 C 254.559 123.200,254.400 124.859,254.400 127.376 C 254.400 129.729,254.575 131.661,254.800 131.800 C 255.020 131.936,255.200 133.027,255.200 134.224 C 255.200 135.421,255.380 136.400,255.600 136.400 C 255.820 136.400,256.000 136.940,256.000 137.600 C 256.000 138.260,256.180 138.800,256.400 138.800 C 256.620 138.800,256.800 139.143,256.800 139.562 C 256.800 139.981,257.147 141.016,257.570 141.862 C 257.994 142.708,258.825 144.435,259.417 145.700 C 260.009 146.965,260.641 148.000,260.820 148.000 C 260.999 148.000,261.262 148.365,261.404 148.811 C 262.091 150.978,271.365 158.800,273.247 158.800 C 273.661 158.800,274.000 158.980,274.000 159.200 C 274.000 159.420,274.360 159.600,274.800 159.600 C 275.240 159.600,275.600 159.780,275.600 160.000 C 275.600 160.220,276.050 160.400,276.600 160.400 C 277.150 160.400,277.600 160.580,277.600 160.800 C 277.600 161.020,278.140 161.200,278.800 161.200 C 279.460 161.200,280.000 161.380,280.000 161.600 C 280.000 161.820,280.720 162.000,281.600 162.000 C 282.480 162.000,283.200 162.180,283.200 162.400 C 283.200 162.651,285.800 162.800,290.200 162.800 C 294.600 162.800,297.200 162.651,297.200 162.400 C 297.200 162.180,297.920 162.000,298.800 162.000 C 299.680 162.000,300.400 161.820,300.400 161.600 C 300.400 161.380,300.940 161.200,301.600 161.200 C 302.260 161.200,302.800 161.020,302.800 160.800 C 302.800 160.580,303.132 160.400,303.537 160.400 C 304.516 160.400,310.027 157.623,310.847 156.715 C 311.203 156.322,311.690 156.000,311.930 156.000 C 312.484 156.000,319.200 149.306,319.200 148.754 C 319.200 148.128,320.400 147.064,320.719 147.407 C 320.874 147.573,320.775 147.790,320.500 147.888 C 320.225 147.986,320.000 148.412,320.000 148.833 C 320.000 149.255,319.820 149.600,319.600 149.600 C 319.380 149.600,319.200 149.960,319.200 150.400 C 319.200 150.840,319.020 151.200,318.800 151.200 C 318.580 151.200,318.400 151.560,318.400 152.000 C 318.400 152.440,318.220 152.800,318.000 152.800 C 317.780 152.800,317.600 153.160,317.600 153.600 C 317.600 154.040,317.420 154.400,317.200 154.400 C 316.980 154.400,316.800 154.760,316.800 155.200 C 316.800 155.640,316.642 156.000,316.449 156.000 C 316.255 156.000,315.873 156.540,315.600 157.200 C 315.327 157.860,314.978 158.400,314.826 158.400 C 314.674 158.400,314.302 159.030,314.000 159.800 C 313.698 160.570,313.304 161.200,313.125 161.200 C 312.946 161.200,312.800 161.478,312.800 161.817 C 312.800 162.156,312.440 162.820,312.000 163.292 C 311.560 163.764,311.200 164.387,311.200 164.675 C 311.200 164.964,311.032 165.200,310.827 165.200 C 310.447 165.200,309.777 166.754,309.921 167.300 C 309.964 167.465,309.842 167.600,309.649 167.600 C 309.455 167.600,309.073 168.140,308.800 168.800 C 308.527 169.460,308.175 170.000,308.019 170.000 C 307.863 170.000,307.480 170.495,307.168 171.100 C 306.855 171.705,306.105 172.677,305.500 173.260 C 304.895 173.844,304.400 174.486,304.400 174.688 C 304.400 174.890,303.995 175.423,303.500 175.871 C 302.465 176.808,301.200 178.315,301.200 178.610 C 301.200 178.721,299.715 180.321,297.900 182.167 C 296.085 184.012,293.134 187.025,291.342 188.861 C 286.925 193.388,282.847 197.200,282.421 197.200 C 282.228 197.200,280.973 198.280,279.632 199.600 C 278.292 200.920,277.092 202.000,276.966 202.000 C 276.840 202.000,276.046 202.720,275.200 203.600 C 274.354 204.480,273.451 205.200,273.192 205.200 C 272.933 205.200,272.217 205.740,271.600 206.400 C 270.983 207.060,270.300 207.600,270.082 207.600 C 269.863 207.600,269.117 208.131,268.423 208.779 C 267.728 209.427,267.077 209.922,266.975 209.879 C 266.682 209.754,264.402 211.367,264.401 211.700 C 264.401 211.865,264.164 212.000,263.875 212.000 C 263.587 212.000,263.002 212.322,262.575 212.717 C 262.149 213.111,260.900 214.048,259.800 214.800 C 258.700 215.552,257.451 216.489,257.025 216.883 C 256.598 217.278,256.013 217.600,255.725 217.600 C 255.436 217.600,255.200 217.780,255.200 218.000 C 255.200 218.220,254.964 218.400,254.675 218.400 C 254.387 218.400,253.764 218.760,253.292 219.200 C 252.820 219.640,252.238 220.000,252.000 220.000 C 251.762 220.000,251.180 220.360,250.708 220.800 C 250.236 221.240,249.613 221.600,249.325 221.600 C 249.036 221.600,248.800 221.780,248.800 222.000 C 248.800 222.220,248.522 222.400,248.183 222.400 C 247.844 222.400,247.180 222.760,246.708 223.200 C 246.236 223.640,245.613 224.000,245.325 224.000 C 245.036 224.000,244.800 224.180,244.800 224.400 C 244.800 224.620,244.474 224.800,244.075 224.800 C 243.677 224.800,242.995 225.115,242.560 225.500 C 242.125 225.885,241.566 226.240,241.318 226.289 C 241.070 226.338,239.562 227.013,237.967 227.789 C 236.373 228.565,234.828 229.200,234.534 229.200 C 234.240 229.200,234.000 229.380,234.000 229.600 C 234.000 229.820,233.640 230.000,233.200 230.000 C 232.760 230.000,232.400 230.180,232.400 230.400 C 232.400 230.620,232.040 230.800,231.600 230.800 C 231.160 230.800,230.800 230.980,230.800 231.200 C 230.800 231.420,230.350 231.600,229.800 231.600 C 229.250 231.600,228.800 231.780,228.800 232.000 C 228.800 232.220,228.350 232.400,227.800 232.400 C 227.250 232.400,226.800 232.580,226.800 232.800 C 226.800 233.020,226.350 233.200,225.800 233.200 C 225.250 233.200,224.800 233.380,224.800 233.600 C 224.800 233.820,224.260 234.000,223.600 234.000 C 222.940 234.000,222.400 234.180,222.400 234.400 C 222.400 234.620,221.860 234.800,221.200 234.800 C 220.540 234.800,220.000 234.980,220.000 235.200 C 220.000 235.420,219.280 235.600,218.400 235.600 C 217.520 235.600,216.800 235.780,216.800 236.000 C 216.800 236.220,216.091 236.400,215.224 236.400 C 214.357 236.400,213.536 236.580,213.400 236.800 C 213.264 237.020,211.723 237.200,209.976 237.200 C 208.125 237.200,206.800 237.367,206.800 237.600 C 206.800 237.820,206.085 238.000,205.212 238.000 C 203.555 238.000,201.084 239.150,199.961 240.445 C 199.601 240.860,199.140 241.200,198.936 241.200 C 198.733 241.200,197.787 241.994,196.835 242.965 L 195.103 244.729 193.651 243.351 C 192.853 242.593,192.047 241.818,191.859 241.627 C 191.319 241.079,175.832 225.594,175.511 225.281 C 172.955 222.794,172.812 222.364,174.100 221.037 C 176.837 218.219,178.400 216.311,178.400 215.789 C 178.400 215.465,178.580 215.200,178.800 215.200 C 179.020 215.200,179.200 214.660,179.200 214.000 C 179.200 213.340,179.380 212.800,179.600 212.800 C 179.831 212.800,180.000 211.541,180.000 209.824 C 180.000 208.187,180.180 206.736,180.400 206.600 C 180.620 206.464,180.800 205.373,180.800 204.176 C 180.800 202.979,180.980 202.000,181.200 202.000 C 181.420 202.000,181.600 201.280,181.600 200.400 C 181.600 199.520,181.780 198.800,182.000 198.800 C 182.220 198.800,182.400 198.260,182.400 197.600 C 182.400 196.940,182.580 196.400,182.800 196.400 C 183.020 196.400,183.200 195.860,183.200 195.200 C 183.200 194.540,183.380 194.000,183.600 194.000 C 183.820 194.000,184.000 193.460,184.000 192.800 C 184.000 192.140,184.180 191.600,184.400 191.600 C 184.620 191.600,184.800 191.150,184.800 190.600 C 184.800 190.050,184.980 189.600,185.200 189.600 C 185.420 189.600,185.600 189.251,185.600 188.824 C 185.600 188.397,185.780 187.936,186.000 187.800 C 186.220 187.664,186.400 187.113,186.400 186.576 C 186.400 186.039,186.580 185.600,186.800 185.600 C 187.020 185.600,187.200 185.240,187.200 184.800 C 187.200 184.360,187.380 184.000,187.600 184.000 C 187.820 184.000,188.000 183.640,188.000 183.200 C 188.000 182.760,188.180 182.400,188.400 182.400 C 188.620 182.400,188.800 182.040,188.800 181.600 C 188.800 181.160,188.980 180.800,189.200 180.800 C 189.420 180.800,189.600 180.440,189.600 180.000 C 189.600 179.560,189.780 179.200,190.000 179.200 C 190.220 179.200,190.400 178.851,190.400 178.424 C 190.400 177.997,190.566 177.545,190.769 177.419 C 190.972 177.294,191.257 176.653,191.401 175.995 C 191.545 175.338,191.829 174.800,192.032 174.800 C 192.234 174.800,192.400 174.530,192.400 174.200 C 192.400 173.870,192.546 173.600,192.725 173.600 C 192.904 173.600,193.298 172.970,193.600 172.200 C 193.902 171.430,194.296 170.800,194.475 170.800 C 194.654 170.800,194.800 170.522,194.800 170.183 C 194.800 169.844,195.160 169.180,195.600 168.708 C 196.040 168.236,196.400 167.613,196.400 167.325 C 196.400 167.036,196.580 166.800,196.800 166.800 C 197.020 166.800,197.200 166.480,197.200 166.088 C 197.200 165.697,197.560 165.117,198.000 164.800 C 198.440 164.483,198.800 163.903,198.800 163.512 C 198.800 163.120,198.968 162.800,199.173 162.800 C 199.378 162.800,199.660 162.441,199.799 162.002 C 199.938 161.564,200.276 160.979,200.550 160.702 C 200.824 160.426,202.012 158.760,203.192 157.000 C 204.371 155.240,205.445 153.710,205.579 153.600 C 206.156 153.127,208.800 149.160,208.800 148.768 C 208.800 148.531,209.520 147.646,210.400 146.800 C 211.280 145.954,212.000 145.072,212.000 144.838 C 212.000 144.605,212.628 143.735,213.396 142.907 C 217.895 138.052,219.200 136.572,219.200 136.323 C 219.200 135.524,238.678 116.000,239.475 116.000 C 239.612 116.000,240.409 115.280,241.246 114.400 C 242.083 113.520,242.973 112.800,243.223 112.800 C 243.474 112.800,244.183 112.260,244.800 111.600 C 245.417 110.940,246.169 110.400,246.472 110.400 C 246.775 110.400,247.283 110.040,247.600 109.600 C 247.917 109.160,248.399 108.800,248.671 108.800 C 249.091 108.800,251.239 107.546,252.600 106.506 C 252.820 106.338,253.540 105.936,254.200 105.612 C 254.860 105.289,256.152 104.524,257.072 103.912 C 257.992 103.301,258.937 102.800,259.172 102.800 C 259.407 102.800,259.600 102.620,259.600 102.400 C 259.600 102.180,259.960 102.000,260.400 102.000 C 260.840 102.000,261.200 101.820,261.200 101.600 C 261.200 101.380,261.560 101.200,262.000 101.200 C 262.440 101.200,262.800 101.020,262.800 100.800 C 262.800 100.580,263.145 100.400,263.567 100.400 C 263.988 100.400,264.393 100.265,264.467 100.100 C 264.826 99.292,270.000 96.954,270.000 97.600 M293.851 117.442 C 303.597 121.479,302.688 135.180,292.515 137.581 C 287.180 138.839,281.737 135.547,280.155 130.104 C 277.841 122.143,286.307 114.316,293.851 117.442 M184.800 136.640 C 184.800 136.771,184.260 137.383,183.600 138.000 C 182.940 138.617,182.400 139.369,182.400 139.672 C 182.400 139.975,182.040 140.483,181.600 140.800 C 181.160 141.117,180.800 141.579,180.800 141.826 C 180.800 142.074,180.440 142.602,180.000 143.000 C 179.560 143.398,179.200 143.884,179.200 144.079 C 179.200 144.274,178.840 144.820,178.400 145.292 C 177.960 145.764,177.600 146.387,177.600 146.675 C 177.600 146.964,177.432 147.200,177.227 147.200 C 176.877 147.200,176.100 148.989,176.441 149.009 C 176.529 149.015,176.195 149.453,175.700 149.985 C 175.205 150.516,174.800 151.187,174.800 151.475 C 174.800 151.764,174.620 152.000,174.400 152.000 C 174.180 152.000,174.000 152.320,174.000 152.712 C 174.000 153.103,173.640 153.683,173.200 154.000 C 172.760 154.317,172.400 154.897,172.400 155.288 C 172.400 155.680,172.220 156.000,172.000 156.000 C 171.780 156.000,171.600 156.360,171.600 156.800 C 171.600 157.240,171.420 157.600,171.200 157.600 C 170.980 157.600,170.800 157.870,170.800 158.200 C 170.800 158.530,170.620 158.800,170.400 158.800 C 170.180 158.800,170.000 159.070,170.000 159.400 C 170.000 159.730,169.854 160.000,169.675 160.000 C 169.496 160.000,169.102 160.630,168.800 161.400 C 168.245 162.815,166.430 163.420,165.800 162.400 C 165.664 162.180,164.573 162.000,163.376 162.000 C 162.179 162.000,161.200 161.829,161.200 161.621 C 161.200 161.412,160.269 161.187,159.131 161.121 C 157.994 161.054,157.000 160.810,156.924 160.578 C 156.848 160.346,162.175 154.811,168.762 148.278 L 180.738 136.400 182.769 136.400 C 183.886 136.400,184.800 136.508,184.800 136.640 M240.400 160.001 C 240.400 160.165,239.827 160.415,239.127 160.555 C 237.762 160.828,206.800 191.341,206.800 192.413 C 206.800 192.699,206.681 192.815,206.536 192.670 C 205.538 191.671,200.400 198.823,200.400 201.212 C 200.400 202.085,200.220 202.800,200.000 202.800 C 199.780 202.800,199.600 203.509,199.600 204.376 C 199.600 205.243,199.780 206.064,200.000 206.200 C 200.220 206.336,200.400 207.157,200.400 208.024 C 200.400 208.891,200.580 209.600,200.800 209.600 C 201.020 209.600,201.200 209.960,201.200 210.400 C 201.200 210.840,201.380 211.200,201.600 211.200 C 201.820 211.200,202.000 211.435,202.000 211.722 C 202.000 212.391,204.561 215.200,205.171 215.200 C 205.425 215.200,206.020 215.560,206.492 216.000 C 206.964 216.440,207.767 216.800,208.275 216.800 C 208.784 216.800,209.200 216.980,209.200 217.200 C 209.200 217.440,210.792 217.600,213.176 217.600 C 215.396 217.600,217.262 217.423,217.400 217.200 C 217.536 216.980,217.997 216.800,218.424 216.800 C 218.851 216.800,219.200 216.620,219.200 216.400 C 219.200 216.180,219.486 216.000,219.836 216.000 C 220.186 216.000,221.947 214.515,223.749 212.700 C 225.551 210.885,232.960 203.535,240.213 196.367 C 254.781 181.970,256.800 179.854,256.800 178.989 C 256.800 178.665,256.980 178.400,257.200 178.400 C 257.420 178.400,257.600 177.860,257.600 177.200 C 257.600 176.540,257.780 176.000,258.000 176.000 C 258.233 176.000,258.400 174.675,258.400 172.824 C 258.400 171.077,258.220 169.536,258.000 169.400 C 257.780 169.264,257.600 168.809,257.600 168.389 C 257.600 166.296,252.964 160.973,250.757 160.531 C 250.121 160.404,249.600 160.152,249.600 159.971 C 249.600 159.789,247.530 159.655,245.000 159.671 C 242.470 159.688,240.400 159.836,240.400 160.001 M280.800 235.135 L 280.800 237.069 268.981 248.935 C 256.164 261.803,256.800 261.234,256.800 259.824 C 256.800 259.287,256.620 258.736,256.400 258.600 C 256.180 258.464,256.000 257.499,256.000 256.456 C 256.000 255.413,255.833 254.389,255.630 254.180 C 255.317 253.858,255.044 250.998,255.164 249.300 C 255.184 249.025,255.560 248.800,256.000 248.800 C 256.440 248.800,256.800 248.654,256.800 248.475 C 256.800 248.296,257.430 247.902,258.200 247.600 C 258.970 247.298,259.600 246.904,259.600 246.725 C 259.600 246.546,259.836 246.400,260.125 246.400 C 260.413 246.400,261.036 246.040,261.508 245.600 C 261.980 245.160,262.644 244.800,262.983 244.800 C 263.322 244.800,263.600 244.620,263.600 244.400 C 263.600 244.180,263.836 244.000,264.125 244.000 C 264.413 244.000,265.036 243.640,265.508 243.200 C 265.980 242.760,266.644 242.400,266.983 242.400 C 267.322 242.400,267.600 242.232,267.600 242.027 C 267.600 241.822,268.005 241.526,268.500 241.369 C 269.639 241.009,276.384 236.507,277.247 235.531 C 277.603 235.129,278.148 234.800,278.459 234.800 C 278.769 234.800,279.283 234.440,279.600 234.000 C 280.498 232.754,280.800 233.039,280.800 235.135 M143.029 275.411 C 142.665 275.968,142.475 276.598,142.607 276.811 C 142.739 277.025,142.702 277.201,142.524 277.203 C 142.099 277.207,141.200 279.161,141.200 280.080 C 141.200 280.476,141.020 280.800,140.800 280.800 C 140.580 280.800,140.400 281.036,140.400 281.325 C 140.400 281.613,140.040 282.236,139.600 282.708 C 139.160 283.180,138.800 283.804,138.800 284.095 C 138.800 284.386,138.440 284.883,138.000 285.200 C 137.560 285.517,137.200 285.978,137.200 286.225 C 137.200 286.756,133.831 290.400,133.340 290.400 C 133.020 290.401,131.473 291.557,129.900 292.971 C 129.515 293.317,129.200 293.488,129.200 293.351 C 129.200 293.214,128.975 293.287,128.700 293.513 C 127.688 294.344,123.657 296.400,123.038 296.400 C 122.687 296.400,122.400 296.580,122.400 296.800 C 122.400 297.020,122.040 297.200,121.600 297.200 C 121.160 297.200,120.800 297.380,120.800 297.600 C 120.800 297.820,120.620 298.000,120.400 298.000 C 120.180 298.000,120.000 297.561,120.000 297.024 C 120.000 296.487,120.180 295.936,120.400 295.800 C 120.620 295.664,120.800 295.203,120.800 294.776 C 120.800 294.349,120.980 294.000,121.200 294.000 C 121.420 294.000,121.600 293.640,121.600 293.200 C 121.600 292.760,121.736 292.400,121.902 292.400 C 122.069 292.400,122.462 291.819,122.776 291.109 C 123.489 289.498,124.916 287.277,125.986 286.114 C 126.434 285.627,126.800 285.071,126.800 284.878 C 126.800 284.352,130.253 280.800,130.764 280.800 C 131.008 280.800,131.772 280.260,132.463 279.600 C 133.154 278.940,133.962 278.400,134.259 278.400 C 134.557 278.400,134.800 278.220,134.800 278.000 C 134.800 277.780,135.160 277.600,135.600 277.600 C 136.040 277.600,136.400 277.420,136.400 277.200 C 136.400 276.980,136.760 276.800,137.200 276.800 C 137.640 276.800,138.000 276.620,138.000 276.400 C 138.000 276.180,138.360 276.000,138.800 276.000 C 139.240 276.000,139.600 275.855,139.600 275.677 C 139.600 275.415,141.628 274.756,143.346 274.460 C 143.536 274.427,143.394 274.855,143.029 275.411 M145.600 336.000 C 145.600 336.220,145.150 336.400,144.600 336.400 C 144.050 336.400,143.600 336.580,143.600 336.800 C 143.600 337.020,143.330 337.200,143.000 337.200 C 142.670 337.200,142.400 337.380,142.400 337.600 C 142.400 337.820,142.212 338.000,141.982 338.000 C 141.407 338.000,139.919 339.569,139.232 340.900 C 138.920 341.505,138.515 342.000,138.332 342.000 C 138.150 342.000,138.000 342.360,138.000 342.800 C 138.000 343.240,137.820 343.600,137.600 343.600 C 137.380 343.600,137.200 344.410,137.200 345.400 C 137.200 346.390,137.020 347.200,136.800 347.200 C 136.580 347.200,136.400 347.819,136.400 348.576 C 136.400 349.333,136.580 350.064,136.800 350.200 C 137.020 350.336,137.200 351.157,137.200 352.024 C 137.200 352.891,137.380 353.600,137.600 353.600 C 137.820 353.600,138.000 353.872,138.000 354.205 C 138.000 355.438,139.076 356.785,142.224 359.491 C 143.623 360.694,144.739 361.200,145.995 361.200 C 146.658 361.200,147.200 361.380,147.200 361.600 C 147.200 361.861,153.733 362.000,166.000 362.000 C 178.267 362.000,184.800 361.861,184.800 361.600 C 184.800 361.380,185.430 361.200,186.200 361.200 C 186.970 361.200,187.600 361.064,187.600 360.898 C 187.600 360.731,188.185 360.342,188.900 360.033 C 190.353 359.404,193.200 356.557,193.200 355.733 C 193.200 355.440,193.380 355.200,193.600 355.200 C 193.820 355.200,194.000 354.840,194.000 354.400 C 194.000 353.960,194.180 353.600,194.400 353.600 C 194.644 353.600,194.800 351.733,194.800 348.800 C 194.800 345.867,194.644 344.000,194.400 344.000 C 194.180 344.000,194.000 343.640,194.000 343.200 C 194.000 342.760,193.820 342.400,193.600 342.400 C 193.380 342.400,193.200 342.170,193.200 341.888 C 193.200 341.607,192.840 341.117,192.400 340.800 C 191.960 340.483,191.600 339.903,191.600 339.512 C 191.600 339.120,191.370 338.800,191.088 338.800 C 190.807 338.800,190.317 338.440,190.000 338.000 C 189.683 337.560,189.103 337.200,188.712 337.200 C 188.320 337.200,188.000 337.020,188.000 336.800 C 188.000 336.580,187.640 336.400,187.200 336.400 C 186.760 336.400,186.400 336.220,186.400 336.000 C 186.400 335.739,179.333 335.600,166.000 335.600 C 152.667 335.600,145.600 335.739,145.600 336.000 " stroke="none" fill="#fc2454" fill-rule="evenodd"></path><path id="path1" d="M116.250 26.300 C 116.396 26.905,117.002 28.840,117.597 30.600 C 118.192 32.360,118.914 34.610,119.202 35.600 C 119.491 36.590,119.972 37.805,120.272 38.300 L 120.818 39.200 166.112 39.200 L 211.405 39.200 211.842 38.100 C 212.235 37.114,215.110 28.364,215.785 26.100 L 216.054 25.200 166.019 25.200 L 115.985 25.200 116.250 26.300 M287.577 117.954 C 276.813 121.482,278.930 136.951,290.179 136.975 C 302.652 137.001,303.487 118.657,291.053 117.790 C 289.704 117.696,288.139 117.770,287.577 117.954 " stroke="none" fill="#c4ca1c" fill-rule="evenodd"></path><path id="path2" d="M115.600 25.410 C 115.600 26.367,118.539 34.982,118.701 34.498 C 118.780 34.259,118.321 32.565,117.680 30.732 C 117.040 28.899,116.396 26.905,116.250 26.300 L 115.985 25.200 166.019 25.200 L 216.054 25.200 215.785 26.100 C 215.109 28.367,212.235 37.114,211.842 38.102 L 211.403 39.203 166.017 39.102 L 120.631 39.000 120.149 38.000 C 119.884 37.450,119.468 36.550,119.225 36.000 C 118.799 35.035,118.792 35.042,119.021 36.200 C 119.152 36.860,119.473 37.850,119.735 38.400 L 120.211 39.400 165.890 39.502 C 211.130 39.602,211.574 39.596,211.996 38.808 C 212.540 37.792,216.393 25.965,216.397 25.300 C 216.399 24.903,206.055 24.800,166.000 24.800 C 121.113 24.800,115.600 24.867,115.600 25.410 M285.834 118.188 C 282.943 119.604,280.374 122.794,280.419 124.912 C 280.431 125.482,280.712 125.097,281.204 123.837 C 285.087 113.892,299.006 116.379,300.028 127.200 L 300.274 129.800 300.333 127.400 C 300.518 119.889,292.613 114.867,285.834 118.188 M280.101 127.400 C 280.105 128.280,280.187 128.593,280.283 128.095 C 280.379 127.598,280.375 126.878,280.275 126.495 C 280.175 126.113,280.096 126.520,280.101 127.400 M280.428 129.651 C 280.341 131.658,284.580 136.800,286.322 136.800 C 286.671 136.800,286.139 136.281,285.139 135.648 C 283.114 134.363,281.846 132.786,281.013 130.517 C 280.707 129.683,280.444 129.293,280.428 129.651 M299.313 131.048 C 298.069 134.616,294.393 136.984,290.112 136.974 C 288.523 136.970,287.443 137.107,287.712 137.278 C 291.019 139.379,301.014 133.642,299.895 130.284 C 299.810 130.029,299.548 130.374,299.313 131.048 " stroke="none" fill="#ec5643" fill-rule="evenodd"></path><path id="path3" d="M119.206 38.038 C 119.187 40.091,117.010 40.000,166.108 40.000 C 191.103 40.000,211.636 39.865,211.738 39.700 C 211.840 39.535,191.291 39.400,166.074 39.400 L 120.224 39.400 119.718 38.400 C 119.402 37.776,119.210 37.640,119.206 38.038 M289.107 117.090 C 289.826 117.179,290.906 117.177,291.507 117.086 C 292.108 116.995,291.520 116.922,290.200 116.924 C 288.880 116.926,288.388 117.001,289.107 117.090 M300.501 127.400 C 300.505 128.280,300.587 128.593,300.683 128.095 C 300.779 127.598,300.775 126.878,300.675 126.495 C 300.575 126.113,300.496 126.520,300.501 127.400 M282.800 134.600 C 283.546 135.370,284.247 136.000,284.357 136.000 C 284.467 136.000,283.946 135.370,283.200 134.600 C 282.454 133.830,281.753 133.200,281.643 133.200 C 281.533 133.200,282.054 133.830,282.800 134.600 M295.600 136.036 C 294.936 136.579,294.869 136.715,295.400 136.440 C 296.705 135.766,297.428 135.212,297.000 135.215 C 296.780 135.217,296.150 135.586,295.600 136.036 " stroke="none" fill="#f44448" fill-rule="evenodd"></path><path id="path4" d="M289.700 137.876 C 290.085 137.976,290.715 137.976,291.100 137.876 C 291.485 137.775,291.170 137.693,290.400 137.693 C 289.630 137.693,289.315 137.775,289.700 137.876 " stroke="none" fill="#fc3858" fill-rule="evenodd"></path></g></svg>